{"glyphs":{"0":{"ha":882,"x_min":86,"x_max":796,"o":"m 440 -14 q 278 16 344 -14 q 171 99 213 46 q 110 219 129 151 q 89 364 92 288 q 87 443 88 401 q 87 528 86 485 q 89 610 88 571 q 110 754 90 686 q 172 874 131 822 q 280 956 214 926 q 440 986 346 986 q 602 956 536 986 q 710 874 668 926 q 772 754 751 822 q 793 610 792 686 q 795 528 794 571 q 795 443 796 485 q 793 364 794 401 q 772 219 792 288 q 710 99 751 151 q 603 16 669 46 q 440 -14 538 -14 m 440 106 q 601 176 549 106 q 654 371 653 247 q 657 449 657 411 q 657 526 657 488 q 654 601 657 564 q 601 795 653 722 q 440 868 549 868 q 281 795 333 868 q 226 601 229 722 q 226 526 226 564 q 226 449 225 488 q 226 371 226 411 q 282 176 229 247 q 440 106 335 106 z "},"1":{"ha":594,"x_min":32,"x_max":489,"o":"m 383 0 q 360 9 369 0 q 351 32 351 18 l 351 810 l 121 632 q 97 625 110 624 q 76 638 85 626 l 40 683 q 34 708 32 696 q 47 729 36 721 l 350 963 q 368 971 360 969 q 386 972 376 972 l 457 972 q 480 963 471 972 q 489 940 489 954 l 489 32 q 480 9 489 18 q 457 0 471 0 l 383 0 z "},"2":{"ha":815,"x_min":68,"x_max":746,"o":"m 100 0 q 77 9 86 0 q 68 32 68 18 l 68 76 q 75 104 68 89 q 103 138 82 119 l 397 432 q 509 534 468 492 q 567 615 550 576 q 585 696 585 654 q 540 822 585 775 q 408 868 496 868 q 313 845 353 868 q 250 783 272 822 q 219 693 228 743 q 205 668 217 675 q 183 661 193 661 l 111 661 q 90 669 99 661 q 82 688 82 676 q 104 794 83 740 q 166 891 125 847 q 267 961 207 935 q 408 988 328 988 q 588 948 518 988 q 692 843 658 908 q 725 700 725 778 q 704 588 725 639 q 644 490 683 538 q 546 392 604 442 l 279 121 l 713 121 q 737 113 728 121 q 746 89 746 104 l 746 32 q 737 9 746 18 q 713 0 728 0 l 100 0 z "},"3":{"ha":835,"x_min":60,"x_max":768,"o":"m 414 -14 q 261 8 326 -14 q 151 65 196 29 q 84 145 107 101 q 60 233 61 189 q 68 253 60 246 q 89 261 76 261 l 157 261 q 180 255 169 261 q 196 231 190 249 q 244 153 210 181 q 323 115 278 125 q 414 104 368 104 q 569 150 510 104 q 629 285 629 196 q 575 414 629 375 q 425 453 521 453 l 293 453 q 270 461 279 453 q 261 485 261 469 l 261 522 q 266 544 261 535 q 276 560 271 553 l 546 854 l 136 854 q 113 863 122 854 q 104 886 104 871 l 104 939 q 113 963 104 954 q 136 972 122 972 l 690 972 q 715 963 706 972 q 724 939 724 954 l 724 889 q 719 872 724 879 q 708 857 714 864 l 440 558 l 463 557 q 623 524 554 554 q 730 433 692 493 q 768 281 768 372 q 722 122 768 188 q 597 22 676 57 q 414 -14 517 -14 z "},"4":{"ha":863,"x_min":43,"x_max":817,"o":"m 557 0 q 534 9 543 0 q 525 32 525 18 l 525 232 l 75 232 q 52 241 61 232 q 43 264 43 250 l 43 319 q 47 337 43 325 q 58 361 50 349 l 475 949 q 526 972 492 972 l 626 972 q 649 963 640 972 q 658 940 658 954 l 658 353 l 783 353 q 808 344 799 353 q 817 321 817 335 l 817 264 q 808 241 817 250 q 785 232 799 232 l 658 232 l 658 32 q 649 9 658 18 q 626 0 640 0 l 557 0 m 192 350 l 526 350 l 526 826 l 192 350 z "},"5":{"ha":825,"x_min":61,"x_max":761,"o":"m 406 -14 q 220 24 296 -14 q 105 124 144 63 q 63 253 65 185 q 69 273 61 265 q 90 281 78 281 l 165 281 q 188 274 178 281 q 203 250 197 268 q 248 166 217 199 q 320 119 279 133 q 406 104 361 104 q 515 128 465 104 q 593 201 564 153 q 622 317 622 249 q 594 424 622 379 q 516 494 565 469 q 406 518 467 518 q 331 507 360 518 q 281 481 301 496 q 245 454 261 465 q 210 443 229 443 l 138 443 q 115 452 125 443 q 107 474 106 461 l 151 938 q 162 963 153 954 q 186 972 171 972 l 671 972 q 694 963 685 972 q 703 940 703 954 l 703 886 q 694 863 703 871 q 671 854 685 854 l 271 854 l 244 581 q 308 610 265 593 q 425 628 350 628 q 555 607 494 628 q 662 546 615 586 q 735 448 708 506 q 761 315 761 390 q 715 136 761 210 q 589 24 669 63 q 406 -14 508 -14 z "},"6":{"ha":838,"x_min":67,"x_max":785,"o":"m 428 -14 q 232 33 313 -14 q 109 155 151 79 q 67 319 67 231 q 77 399 67 361 q 103 472 88 438 q 135 533 119 506 q 164 576 151 560 l 428 944 q 444 962 435 951 q 474 972 454 972 l 547 972 q 567 963 560 972 q 575 942 575 954 q 574 931 575 936 q 569 924 572 926 l 367 640 q 406 648 383 646 q 446 650 428 650 q 585 622 522 649 q 692 551 647 596 q 761 447 738 506 q 785 321 785 388 q 743 157 785 233 q 622 33 701 81 q 428 -14 542 -14 m 426 104 q 535 129 485 104 q 616 202 585 154 q 647 321 647 250 q 617 438 647 390 q 535 510 586 486 q 426 535 485 535 q 318 510 368 535 q 237 438 268 486 q 206 321 206 390 q 237 202 206 250 q 318 129 268 154 q 426 104 368 104 z "},"7":{"ha":713,"x_min":40,"x_max":675,"o":"m 207 0 q 187 9 194 0 q 179 31 179 18 q 182 43 179 35 l 528 851 l 72 851 q 49 860 58 851 q 40 883 40 869 l 40 939 q 49 963 40 954 q 72 972 58 972 l 642 972 q 667 963 658 972 q 675 939 675 954 l 675 888 q 672 858 675 869 q 664 833 669 847 l 322 35 q 308 12 317 24 q 282 0 299 0 l 207 0 z "},"8":{"ha":883,"x_min":78,"x_max":806,"o":"m 442 -14 q 294 6 361 -14 q 178 65 226 26 q 104 158 131 104 q 78 279 78 211 q 119 425 78 364 q 228 518 160 486 q 143 601 174 550 q 113 724 113 653 q 153 865 113 807 q 269 954 194 922 q 442 986 343 986 q 613 955 539 986 q 728 865 688 924 q 769 725 769 807 q 739 602 769 654 q 656 518 708 550 q 765 425 724 486 q 806 279 806 364 q 760 123 806 189 q 632 22 714 57 q 442 -14 550 -14 m 442 97 q 557 119 506 97 q 639 183 608 142 q 669 279 669 224 q 639 376 669 336 q 557 437 608 415 q 442 458 506 458 q 326 437 378 458 q 243 376 274 415 q 213 279 213 336 q 243 183 213 224 q 326 119 274 142 q 442 97 378 97 m 442 568 q 540 588 494 568 q 612 640 585 607 q 639 721 639 674 q 613 803 639 768 q 542 856 588 838 q 442 875 497 875 q 341 856 386 875 q 269 803 296 838 q 243 721 243 768 q 269 638 243 672 q 341 586 296 604 q 442 568 386 568 z "},"9":{"ha":824,"x_min":53,"x_max":756,"o":"m 268 0 q 248 9 256 0 q 240 31 240 18 q 242 42 240 38 q 246 49 244 46 l 458 344 q 383 336 424 336 q 245 364 307 338 q 140 435 183 390 q 75 538 97 481 q 53 657 53 594 q 74 776 53 718 q 140 882 96 835 q 249 958 183 929 q 403 986 315 986 q 556 959 490 986 q 667 885 622 932 q 734 781 713 839 q 756 660 756 722 q 739 556 756 603 q 699 471 722 508 q 656 401 676 433 l 388 28 q 372 10 382 21 q 343 0 363 0 l 268 0 m 403 449 q 510 474 461 449 q 589 547 560 500 q 618 658 618 593 q 589 770 618 724 q 510 842 560 817 q 403 868 461 868 q 297 842 346 868 q 219 770 249 817 q 190 658 190 724 q 219 547 190 593 q 297 474 249 500 q 403 449 346 449 z "}," ":{"ha":340,"x_min":0,"x_max":0,"o":""},"A":{"ha":931,"x_min":28,"x_max":903,"o":"m 56 0 q 36 8 44 0 q 28 28 28 17 q 29 43 28 35 l 374 942 q 389 964 379 956 q 418 972 399 972 l 513 972 q 542 964 532 972 q 557 942 551 956 l 900 43 q 903 28 903 35 q 894 8 903 17 q 875 0 886 0 l 804 0 q 780 8 788 0 q 769 24 772 17 l 693 221 l 238 221 l 161 24 q 151 8 160 17 q 126 0 143 0 l 56 0 m 278 340 l 653 340 l 465 833 l 278 340 z "},"B":{"ha":928,"x_min":121,"x_max":851,"o":"m 153 0 q 129 9 138 0 q 121 32 121 18 l 121 939 q 129 963 121 954 q 153 972 138 972 l 533 972 q 703 938 638 972 q 801 846 769 904 q 832 715 832 788 q 813 617 832 658 q 767 551 794 576 q 713 511 739 525 q 809 425 767 485 q 851 281 851 365 q 817 140 851 204 q 713 38 782 76 q 544 0 644 0 l 153 0 m 257 113 l 526 113 q 664 161 615 113 q 713 281 713 210 q 664 402 713 354 q 526 450 615 450 l 257 450 l 257 113 m 257 561 l 513 561 q 647 602 601 561 q 693 714 693 643 q 647 822 693 785 q 513 860 601 860 l 257 860 l 257 561 z "},"C":{"ha":925,"x_min":83,"x_max":861,"o":"m 471 -14 q 259 33 343 -14 q 132 165 175 81 q 85 363 89 250 q 83 485 83 419 q 85 610 83 550 q 132 807 89 722 q 259 939 175 892 q 471 986 343 986 q 639 960 567 986 q 759 889 711 933 q 832 790 807 844 q 860 676 857 735 q 852 656 861 664 q 831 647 843 647 l 754 647 q 733 654 742 647 q 719 679 724 661 q 631 828 696 788 q 471 868 567 868 q 293 805 358 868 q 224 603 228 742 q 224 369 219 489 q 293 167 228 231 q 471 104 358 104 q 631 144 567 104 q 719 293 696 185 q 733 318 724 311 q 754 325 742 325 l 831 325 q 852 317 843 325 q 860 297 861 310 q 832 183 857 239 q 759 83 807 128 q 639 13 711 39 q 471 -14 567 -14 z "},"D":{"ha":957,"x_min":121,"x_max":869,"o":"m 153 0 q 129 9 138 0 q 121 32 121 18 l 121 939 q 129 963 121 954 q 153 972 138 972 l 468 972 q 699 929 611 972 q 826 802 786 886 q 868 596 867 718 q 869 486 869 533 q 868 378 869 439 q 826 166 865 250 q 701 41 786 82 q 475 0 615 0 l 153 0 m 257 118 l 468 118 q 621 144 564 118 q 703 229 678 171 q 731 383 729 288 q 733 456 733 425 q 733 519 733 488 q 731 590 733 550 q 667 790 728 725 q 461 854 606 854 l 257 854 l 257 118 z "},"E":{"ha":842,"x_min":121,"x_max":769,"o":"m 153 0 q 129 9 138 0 q 121 32 121 18 l 121 939 q 129 963 121 954 q 153 972 138 972 l 726 972 q 750 963 742 972 q 758 939 758 954 l 758 886 q 750 863 758 871 q 726 854 742 854 l 254 854 l 254 550 l 696 550 q 719 541 711 550 q 728 517 728 532 l 728 465 q 719 442 728 451 q 696 433 711 433 l 254 433 l 254 118 l 738 118 q 761 110 753 118 q 769 86 769 101 l 769 32 q 761 9 769 18 q 738 0 753 0 l 153 0 z "},"F":{"ha":811,"x_min":121,"x_max":753,"o":"m 153 0 q 129 9 138 0 q 121 32 121 18 l 121 939 q 129 963 121 954 q 153 972 138 972 l 719 972 q 744 963 735 972 q 753 939 753 954 l 753 883 q 744 860 753 868 q 719 851 735 851 l 256 851 l 256 528 l 692 528 q 716 519 707 528 q 725 494 725 510 l 725 439 q 716 416 725 425 q 692 407 707 407 l 256 407 l 256 32 q 247 9 256 18 q 222 0 238 0 l 153 0 z "},"G":{"ha":946,"x_min":83,"x_max":868,"o":"m 475 -14 q 266 32 351 -14 q 135 161 181 78 q 85 357 90 244 q 83 487 83 418 q 85 618 83 556 q 135 813 90 731 q 267 941 181 896 q 475 986 353 986 q 644 958 572 986 q 763 888 717 931 q 833 800 810 846 q 857 719 856 754 q 850 699 858 707 q 828 692 842 692 l 746 692 q 726 697 732 692 q 714 717 719 703 q 673 788 701 753 q 597 845 644 822 q 475 868 549 868 q 297 808 364 868 q 224 611 229 749 q 224 364 219 488 q 297 165 229 225 q 475 104 365 104 q 606 132 549 104 q 697 216 664 160 q 731 360 731 272 l 731 418 l 522 418 q 499 427 508 418 q 490 451 490 436 l 490 496 q 499 520 490 511 q 522 529 508 529 l 836 529 q 860 520 851 529 q 868 496 868 511 l 868 363 q 822 164 868 249 q 686 33 775 79 q 475 -14 597 -14 z "},"H":{"ha":992,"x_min":121,"x_max":871,"o":"m 153 0 q 129 9 138 0 q 121 32 121 18 l 121 939 q 129 963 121 954 q 153 972 138 972 l 224 972 q 248 963 239 972 q 257 939 257 954 l 257 556 l 735 556 l 735 939 q 744 963 735 954 q 767 972 753 972 l 838 972 q 862 963 853 972 q 871 939 871 954 l 871 32 q 862 9 871 18 q 838 0 853 0 l 767 0 q 744 9 753 0 q 735 32 735 18 l 735 431 l 257 431 l 257 32 q 248 9 257 18 q 224 0 239 0 l 153 0 z "},"I":{"ha":379,"x_min":121,"x_max":258,"o":"m 153 0 q 129 9 138 0 q 121 32 121 18 l 121 940 q 129 963 121 954 q 153 972 138 972 l 226 972 q 250 963 242 972 q 258 940 258 954 l 258 32 q 250 9 258 18 q 226 0 242 0 l 153 0 z "},"J":{"ha":881,"x_min":53,"x_max":768,"o":"m 410 -14 q 276 4 339 -14 q 163 58 213 22 q 85 150 114 94 q 53 281 56 206 q 61 302 53 293 q 83 311 69 311 l 158 311 q 183 302 174 311 q 194 279 192 293 q 231 178 200 217 q 308 122 261 140 q 413 104 356 104 q 574 174 518 104 q 629 358 629 243 l 629 851 l 136 851 q 113 860 122 851 q 104 883 104 869 l 104 940 q 113 963 104 954 q 136 972 122 972 l 735 972 q 759 963 750 972 q 768 939 768 954 l 768 356 q 725 160 768 243 q 603 31 682 76 q 410 -14 524 -14 z "},"K":{"ha":835,"x_min":121,"x_max":813,"o":"m 153 0 q 129 9 138 0 q 121 32 121 18 l 121 939 q 129 963 121 954 q 153 972 138 972 l 222 972 q 247 963 238 972 q 256 939 256 954 l 256 594 l 626 950 q 645 964 632 956 q 681 972 658 972 l 756 972 q 775 964 767 972 q 783 944 783 956 q 778 926 783 933 l 349 507 l 806 47 q 813 28 813 39 q 804 8 813 17 q 785 0 796 0 l 707 0 q 671 9 683 0 q 653 24 658 18 l 256 414 l 256 32 q 247 9 256 18 q 222 0 238 0 l 153 0 z "},"L":{"ha":782,"x_min":121,"x_max":753,"o":"m 153 0 q 129 9 138 0 q 121 32 121 18 l 121 940 q 129 963 121 954 q 153 972 138 972 l 226 972 q 249 963 240 972 q 258 940 258 954 l 258 121 l 719 121 q 744 112 735 121 q 753 88 753 103 l 753 32 q 744 9 753 18 q 719 0 735 0 l 153 0 z "},"M":{"ha":1103,"x_min":121,"x_max":983,"o":"m 153 0 q 130 9 139 0 q 121 32 121 18 l 121 939 q 130 963 121 954 q 153 972 139 972 l 222 972 q 247 964 239 972 q 258 950 256 956 l 551 389 l 847 950 q 858 964 850 956 q 882 972 865 972 l 950 972 q 974 963 965 972 q 983 939 983 954 l 983 32 q 974 9 983 18 q 950 0 965 0 l 882 0 q 859 9 868 0 q 850 32 850 18 l 850 715 l 618 263 q 601 241 613 249 q 574 233 590 233 l 531 233 q 503 241 513 233 q 486 263 493 249 l 253 715 l 253 32 q 244 9 253 18 q 221 0 235 0 l 153 0 z "},"N":{"ha":965,"x_min":121,"x_max":844,"o":"m 153 0 q 129 9 138 0 q 121 32 121 18 l 121 939 q 129 963 121 954 q 153 972 138 972 l 217 972 q 242 965 233 972 q 251 953 250 957 l 713 244 l 713 939 q 721 963 713 954 q 744 972 729 972 l 811 972 q 835 963 826 972 q 844 939 844 954 l 844 33 q 835 10 844 19 q 813 0 826 0 l 746 0 q 723 8 731 0 q 713 19 715 17 l 253 721 l 253 32 q 244 9 253 18 q 219 0 235 0 l 153 0 z "},"O":{"ha":940,"x_min":83,"x_max":858,"o":"m 471 -14 q 267 27 351 -14 q 136 153 182 68 q 85 368 90 239 q 83 485 83 429 q 85 603 83 542 q 138 816 90 731 q 272 944 186 901 q 471 986 357 986 q 669 944 583 986 q 803 816 754 901 q 856 603 851 731 q 858 485 858 542 q 856 368 858 429 q 805 153 851 239 q 674 27 758 68 q 471 -14 589 -14 m 471 104 q 644 168 576 104 q 717 375 711 232 q 719 487 719 438 q 717 597 719 536 q 681 753 714 693 q 594 840 649 813 q 471 868 540 868 q 347 840 401 868 q 260 753 293 813 q 224 597 228 693 q 222 487 222 536 q 224 375 222 438 q 297 168 229 232 q 471 104 365 104 z "},"P":{"ha":892,"x_min":121,"x_max":843,"o":"m 153 0 q 129 9 138 0 q 121 32 121 18 l 121 939 q 129 963 121 954 q 153 972 138 972 l 506 972 q 684 939 608 972 q 801 840 760 906 q 843 675 843 774 q 801 511 843 576 q 684 413 760 446 q 506 379 608 379 l 260 379 l 260 32 q 251 9 260 18 q 226 0 242 0 l 153 0 m 258 496 l 499 496 q 653 542 601 496 q 704 675 704 588 q 654 808 704 761 q 499 856 604 856 l 258 856 l 258 496 z "},"Q":{"ha":940,"x_min":83,"x_max":857,"o":"m 747 -90 q 718 -78 729 -90 q 700 -58 707 -67 l 643 19 q 469 -14 568 -14 q 267 27 351 -14 q 135 153 182 68 q 85 368 89 239 q 83 485 83 429 q 85 603 83 542 q 138 816 89 731 q 272 944 186 901 q 469 986 357 986 q 669 944 583 986 q 803 816 754 901 q 854 603 851 731 q 857 485 857 542 q 854 368 857 429 q 754 83 847 178 l 846 -47 q 849 -52 847 -49 q 850 -62 850 -56 q 843 -82 851 -74 q 822 -90 835 -90 l 747 -90 m 469 104 q 643 168 575 104 q 717 375 711 232 q 719 487 719 438 q 717 597 719 536 q 681 753 714 693 q 594 840 649 813 q 469 868 540 868 q 347 840 401 868 q 260 753 292 813 q 224 597 228 693 q 222 487 222 536 q 224 375 222 438 q 297 168 229 232 q 469 104 365 104 z "},"R":{"ha":910,"x_min":121,"x_max":851,"o":"m 153 0 q 129 9 138 0 q 121 32 121 18 l 121 939 q 129 963 121 954 q 153 972 138 972 l 492 972 q 740 899 649 972 q 832 681 832 825 q 778 506 832 574 q 633 413 725 439 l 847 43 q 851 28 851 35 q 842 8 851 17 q 822 0 833 0 l 756 0 q 721 13 732 0 q 701 38 710 25 l 500 390 l 257 390 l 257 32 q 248 9 257 18 q 224 0 239 0 l 153 0 m 257 508 l 486 508 q 642 552 590 508 q 693 682 693 596 q 642 811 693 767 q 486 856 592 856 l 257 856 l 257 508 z "},"S":{"ha":864,"x_min":58,"x_max":803,"o":"m 433 -14 q 231 24 313 -14 q 105 120 149 61 q 58 244 61 179 q 67 265 58 256 q 89 274 76 274 l 160 274 q 185 265 176 274 q 196 246 193 257 q 231 180 204 213 q 306 126 257 147 q 433 104 356 104 q 609 147 553 104 q 665 260 665 189 q 635 338 665 308 q 544 392 606 368 q 386 443 483 415 q 218 507 285 472 q 119 593 151 542 q 86 724 86 644 q 126 858 86 799 q 243 951 167 917 q 426 986 319 986 q 577 963 513 986 q 685 902 642 940 q 750 820 728 864 q 774 735 772 776 q 767 716 774 725 q 744 707 760 707 l 671 707 q 651 713 661 707 q 635 733 640 718 q 571 829 626 790 q 426 868 515 868 q 280 833 336 868 q 224 725 224 799 q 250 647 224 678 q 333 592 276 615 q 482 542 390 568 q 664 477 593 511 q 769 392 735 443 q 803 263 803 342 q 757 113 803 175 q 628 19 711 51 q 433 -14 546 -14 z "},"T":{"ha":804,"x_min":35,"x_max":769,"o":"m 365 0 q 342 9 351 0 q 333 32 333 18 l 333 849 l 67 849 q 44 858 53 849 q 35 881 35 867 l 35 939 q 44 963 35 954 q 67 972 53 972 l 736 972 q 760 963 751 972 q 769 939 769 954 l 769 881 q 760 858 769 867 q 736 849 751 849 l 471 849 l 471 32 q 462 9 471 18 q 438 0 453 0 l 365 0 z "},"U":{"ha":974,"x_min":113,"x_max":863,"o":"m 488 -14 q 287 28 371 -14 q 158 155 203 69 q 113 375 113 240 l 113 939 q 121 963 113 954 q 144 972 129 972 l 215 972 q 240 963 231 972 q 249 939 249 954 l 249 372 q 313 171 249 236 q 488 106 376 106 q 662 171 597 106 q 726 372 726 236 l 726 939 q 735 963 726 954 q 758 972 744 972 l 831 972 q 853 963 844 972 q 863 939 863 954 l 863 375 q 817 155 863 240 q 689 28 772 69 q 488 -14 606 -14 z "},"V":{"ha":910,"x_min":46,"x_max":864,"o":"m 410 0 q 377 10 389 0 q 358 36 365 19 l 49 929 q 46 944 46 938 q 54 964 46 956 q 74 972 63 972 l 146 972 q 172 963 163 972 q 183 947 181 954 l 454 160 l 726 947 q 738 963 729 954 q 763 972 746 972 l 835 972 q 855 964 846 972 q 864 944 864 956 q 861 929 864 938 l 550 36 q 533 10 544 19 q 500 0 521 0 l 410 0 z "},"W":{"ha":1113,"x_min":61,"x_max":1051,"o":"m 285 0 q 256 10 267 0 q 242 38 246 19 l 63 929 q 61 939 61 935 q 61 944 61 943 q 69 964 61 956 q 89 972 78 972 l 161 972 q 194 949 190 972 l 336 232 l 486 724 q 501 747 490 736 q 531 757 511 757 l 582 757 q 613 747 603 757 q 625 724 622 736 l 776 232 l 917 949 q 951 972 921 972 l 1024 972 q 1043 964 1035 972 q 1051 944 1051 956 q 1051 939 1051 943 q 1050 929 1050 935 l 871 38 q 856 10 867 19 q 828 0 846 0 l 774 0 q 743 10 754 0 q 728 35 732 19 l 556 564 l 385 35 q 369 10 379 19 q 339 0 358 0 l 285 0 z "},"X":{"ha":879,"x_min":33,"x_max":847,"o":"m 63 0 q 42 8 51 0 q 33 28 33 17 q 35 38 33 33 q 39 46 38 43 l 357 494 l 54 926 q 50 944 50 935 q 58 964 50 956 q 78 972 67 972 l 161 972 q 183 966 175 972 q 199 949 192 960 l 443 601 l 686 949 q 701 966 692 960 q 722 972 710 972 l 801 972 q 821 964 813 972 q 829 944 829 956 q 824 926 829 935 l 525 493 l 842 46 q 846 38 844 43 q 847 28 847 33 q 839 8 847 17 q 818 0 831 0 l 733 0 q 712 7 721 0 q 696 24 703 14 l 438 383 l 181 24 q 165 7 174 14 q 144 0 157 0 l 63 0 z "},"Y":{"ha":899,"x_min":42,"x_max":857,"o":"m 413 0 q 390 9 399 0 q 381 32 381 18 l 381 360 l 46 926 q 43 935 44 931 q 42 944 42 939 q 50 964 42 956 q 69 972 58 972 l 142 972 q 164 966 154 972 q 178 949 174 960 l 449 499 l 719 949 q 735 966 726 960 q 757 972 744 972 l 828 972 q 849 964 840 972 q 857 944 857 956 q 856 935 857 939 q 851 926 854 931 l 518 360 l 518 32 q 509 9 518 18 q 485 0 500 0 l 413 0 z "},"Z":{"ha":833,"x_min":57,"x_max":778,"o":"m 89 0 q 65 10 74 0 q 57 33 57 19 l 57 93 q 65 126 57 114 q 78 144 74 139 l 594 851 l 101 851 q 78 860 88 851 q 69 883 69 869 l 69 939 q 78 963 69 954 q 101 972 88 972 l 731 972 q 755 963 746 972 q 764 939 764 954 l 764 879 q 758 851 764 863 q 746 831 753 840 l 233 121 l 744 121 q 769 112 760 121 q 778 88 778 103 l 778 32 q 769 9 778 18 q 744 0 760 0 l 89 0 z "},"a":{"ha":767,"x_min":51,"x_max":669,"o":"m 304 -14 q 178 14 235 -14 q 86 89 121 42 q 51 196 51 136 q 129 349 51 292 q 332 424 207 406 l 539 453 l 539 493 q 501 597 539 560 q 376 635 463 635 q 276 610 315 635 q 222 546 238 585 q 193 525 214 525 l 131 525 q 108 534 115 525 q 100 556 100 543 q 116 607 100 576 q 165 667 132 638 q 251 716 199 696 q 378 736 303 736 q 518 715 461 736 q 608 657 575 693 q 655 575 640 621 q 669 482 669 529 l 669 32 q 660 9 669 18 q 638 0 651 0 l 574 0 q 550 9 558 0 q 542 32 542 18 l 542 92 q 493 42 524 67 q 417 2 463 18 q 304 -14 371 -14 m 333 90 q 438 115 390 90 q 512 190 485 139 q 539 319 539 242 l 539 358 l 378 335 q 229 288 279 321 q 179 206 179 256 q 202 141 179 167 q 260 103 225 115 q 333 90 296 90 z "},"b":{"ha":826,"x_min":104,"x_max":758,"o":"m 460 -14 q 321 16 376 -14 q 232 90 265 46 l 232 32 q 223 9 232 18 q 200 0 214 0 l 136 0 q 113 9 122 0 q 104 32 104 18 l 104 954 q 113 977 104 968 q 136 986 122 986 l 204 986 q 226 977 218 986 q 235 954 235 968 l 235 635 q 324 707 269 678 q 460 736 379 736 q 592 709 538 736 q 683 635 647 682 q 736 528 718 588 q 757 403 754 468 q 758 361 758 381 q 757 319 758 342 q 736 193 754 253 q 683 87 718 133 q 592 13 647 40 q 460 -14 538 -14 m 431 99 q 544 130 503 99 q 603 212 585 161 q 624 321 621 263 q 624 401 625 361 q 603 510 621 460 q 544 592 585 561 q 431 624 503 624 q 322 593 365 624 q 258 515 279 563 q 235 419 236 468 q 233 366 233 397 q 235 313 233 335 q 258 212 238 261 q 320 131 278 163 q 431 99 363 99 z "},"c":{"ha":767,"x_min":71,"x_max":706,"o":"m 394 -14 q 224 24 296 -14 q 114 134 153 63 q 72 306 75 206 q 71 361 71 326 q 72 417 71 396 q 114 588 75 517 q 224 698 153 660 q 394 736 296 736 q 533 714 475 736 q 628 657 590 692 q 684 582 665 622 q 704 506 703 542 q 696 483 706 492 q 672 475 686 475 l 606 475 q 585 481 592 475 q 571 503 578 488 q 503 599 546 571 q 396 626 460 626 q 260 575 313 626 q 204 410 208 524 q 204 313 203 360 q 260 147 208 197 q 396 96 313 96 q 503 124 460 96 q 571 219 546 151 q 585 242 578 235 q 606 249 592 249 l 672 249 q 696 240 686 249 q 704 217 706 231 q 692 157 703 188 q 656 95 681 126 q 596 40 632 64 q 510 1 560 15 q 394 -14 460 -14 z "},"d":{"ha":826,"x_min":69,"x_max":722,"o":"m 367 -14 q 235 13 290 -14 q 144 87 179 40 q 91 193 108 133 q 71 319 74 253 q 69 361 69 342 q 71 403 69 381 q 91 528 74 468 q 144 635 108 588 q 235 709 179 682 q 367 736 290 736 q 503 707 449 736 q 592 635 557 678 l 592 954 q 601 977 592 968 q 624 986 610 986 l 690 986 q 713 977 704 986 q 722 954 722 968 l 722 32 q 713 9 722 18 q 690 0 704 0 l 628 0 q 604 9 613 0 q 596 32 596 18 l 596 90 q 506 16 561 46 q 367 -14 450 -14 m 396 99 q 507 131 465 99 q 569 212 549 163 q 592 313 590 261 q 593 366 593 335 q 592 419 593 397 q 569 515 590 468 q 505 593 547 563 q 396 624 463 624 q 283 592 325 624 q 224 510 242 561 q 203 401 206 460 q 203 321 201 361 q 224 212 206 263 q 283 130 242 161 q 396 99 325 99 z "},"e":{"ha":778,"x_min":68,"x_max":714,"o":"m 392 -14 q 163 74 247 -14 q 69 315 78 163 q 68 362 68 333 q 69 408 68 390 q 115 581 75 507 q 226 696 156 656 q 390 736 296 736 q 567 692 496 736 q 676 565 639 647 q 714 374 714 483 l 714 350 q 705 326 714 335 q 682 318 696 318 l 201 318 q 201 313 201 317 q 201 306 201 308 q 226 199 204 249 q 291 119 249 150 q 390 89 333 89 q 474 104 440 89 q 528 138 507 119 q 556 168 549 157 q 575 188 568 185 q 597 192 582 192 l 665 192 q 687 184 678 192 q 694 163 696 176 q 672 112 693 142 q 613 53 651 82 q 519 5 575 24 q 392 -14 463 -14 m 201 414 l 582 414 l 582 418 q 559 529 582 481 q 493 606 536 578 q 390 635 450 635 q 288 606 331 635 q 224 529 246 578 q 201 418 201 481 l 201 414 z "},"f":{"ha":535,"x_min":25,"x_max":529,"o":"m 207 0 q 184 9 193 0 q 175 32 175 18 l 175 611 l 57 611 q 34 620 43 611 q 25 643 25 629 l 25 690 q 34 713 25 704 q 57 722 43 722 l 175 722 l 175 792 q 199 916 175 863 q 274 999 222 969 q 414 1028 326 1028 l 497 1028 q 520 1019 511 1028 q 529 996 529 1010 l 529 949 q 520 926 529 935 q 497 917 511 917 l 417 917 q 328 883 351 917 q 304 785 304 849 l 304 722 l 483 722 q 506 713 497 722 q 515 690 515 704 l 515 643 q 506 620 515 629 q 483 611 497 611 l 304 611 l 304 32 q 295 9 304 18 q 272 0 286 0 l 207 0 z "},"g":{"ha":829,"x_min":69,"x_max":725,"o":"m 399 -306 q 244 -281 304 -306 q 149 -220 183 -256 q 101 -149 115 -185 q 85 -93 86 -114 q 94 -69 83 -79 q 117 -60 104 -60 l 183 -60 q 204 -65 196 -60 q 218 -89 213 -71 q 243 -135 226 -110 q 294 -180 260 -161 q 392 -199 329 -199 q 501 -181 457 -199 q 569 -119 546 -162 q 592 0 592 -76 l 592 94 q 504 23 558 51 q 368 -6 450 -6 q 235 22 290 -6 q 144 95 179 49 q 91 201 108 142 q 71 326 74 261 q 71 403 69 365 q 91 528 74 468 q 144 635 108 588 q 235 709 179 682 q 368 736 290 736 q 506 706 451 736 q 596 629 561 675 l 596 689 q 605 713 596 703 q 628 722 614 722 l 692 722 q 715 713 706 722 q 725 689 725 703 l 725 15 q 694 -150 725 -78 q 591 -264 663 -222 q 399 -306 519 -306 m 396 106 q 508 138 465 106 q 570 218 550 169 q 592 317 590 267 q 593 365 593 336 q 592 413 593 393 q 570 511 590 463 q 508 592 550 560 q 396 624 465 624 q 285 592 326 624 q 225 510 243 561 q 204 401 207 460 q 204 328 203 365 q 225 219 207 269 q 285 137 243 168 q 396 106 326 106 z "},"h":{"ha":846,"x_min":104,"x_max":749,"o":"m 136 0 q 113 9 122 0 q 104 32 104 18 l 104 954 q 113 977 104 968 q 136 986 122 986 l 206 986 q 229 977 221 986 q 238 954 238 968 l 238 631 q 329 707 275 678 q 467 736 383 736 q 620 697 557 736 q 716 587 683 657 q 749 424 749 517 l 749 32 q 740 9 749 18 q 717 0 732 0 l 647 0 q 624 9 633 0 q 615 32 615 18 l 615 417 q 568 569 615 514 q 429 624 521 624 q 290 569 343 624 q 238 417 238 514 l 238 32 q 229 9 238 18 q 206 0 221 0 l 136 0 z "},"i":{"ha":336,"x_min":92,"x_max":244,"o":"m 135 0 q 112 9 121 0 q 103 32 103 18 l 103 690 q 112 713 103 704 q 135 722 121 722 l 201 722 q 224 713 215 722 q 233 690 233 704 l 233 32 q 224 9 233 18 q 201 0 215 0 l 135 0 m 124 857 q 101 866 110 857 q 92 889 92 875 l 92 964 q 101 988 92 978 q 124 997 110 997 l 211 997 q 235 988 225 997 q 244 964 244 978 l 244 889 q 235 866 244 875 q 211 857 225 857 l 124 857 z "},"j":{"ha":353,"x_min":-47,"x_max":260,"o":"m -15 -264 q -38 -255 -29 -264 q -47 -232 -47 -246 l -47 -185 q -38 -162 -47 -171 q -15 -153 -29 -153 l 4 -153 q 78 -134 54 -153 q 109 -84 101 -115 q 117 -15 117 -53 l 117 690 q 126 713 117 704 q 149 722 135 722 l 217 722 q 240 713 231 722 q 249 690 249 704 l 249 -17 q 226 -146 249 -90 q 151 -233 203 -201 q 11 -264 100 -264 l -15 -264 m 138 857 q 115 866 124 857 q 106 889 106 875 l 106 964 q 115 988 106 978 q 138 997 124 997 l 226 997 q 250 988 240 997 q 260 964 260 978 l 260 889 q 250 866 260 875 q 226 857 240 857 l 138 857 z "},"k":{"ha":717,"x_min":104,"x_max":700,"o":"m 136 0 q 113 9 122 0 q 104 32 104 18 l 104 954 q 113 977 104 968 q 136 986 122 986 l 201 986 q 224 977 215 986 q 233 954 233 968 l 233 471 l 507 699 q 533 717 524 713 q 563 722 542 722 l 636 722 q 657 714 649 722 q 665 693 665 706 q 662 681 665 688 q 649 667 658 674 l 328 400 l 683 54 q 700 29 700 40 q 692 8 700 17 q 671 0 683 0 l 599 0 q 568 5 578 0 q 543 24 558 10 l 233 319 l 233 32 q 224 9 233 18 q 201 0 215 0 l 136 0 z "},"l":{"ha":338,"x_min":104,"x_max":233,"o":"m 136 0 q 113 9 122 0 q 104 32 104 18 l 104 954 q 113 977 104 968 q 136 986 122 986 l 201 986 q 225 977 217 986 q 233 954 233 968 l 233 32 q 225 9 233 18 q 201 0 217 0 l 136 0 z "},"m":{"ha":1235,"x_min":103,"x_max":1139,"o":"m 135 0 q 112 9 121 0 q 103 32 103 18 l 103 690 q 112 713 103 704 q 135 722 121 722 l 197 722 q 220 713 211 722 q 229 690 229 704 l 229 642 q 310 710 261 685 q 426 736 358 736 q 649 608 583 738 q 742 701 681 667 q 881 736 803 736 q 1012 703 953 736 q 1105 602 1071 669 q 1139 433 1139 535 l 1139 32 q 1130 9 1139 18 q 1107 0 1121 0 l 1042 0 q 1019 9 1028 0 q 1010 32 1010 18 l 1010 421 q 988 543 1010 499 q 928 606 965 588 q 846 624 890 624 q 772 606 810 624 q 710 543 735 588 q 686 421 686 499 l 686 32 q 677 9 686 18 q 654 0 668 0 l 589 0 q 566 9 575 0 q 557 32 557 18 l 557 421 q 533 543 557 499 q 472 606 510 588 q 393 624 435 624 q 319 606 357 624 q 258 543 282 588 q 233 422 233 499 l 233 32 q 224 9 233 18 q 201 0 215 0 l 135 0 z "},"n":{"ha":842,"x_min":103,"x_max":746,"o":"m 135 0 q 112 9 121 0 q 103 32 103 18 l 103 690 q 112 713 103 704 q 135 722 121 722 l 200 722 q 223 713 214 722 q 232 690 232 704 l 232 629 q 323 706 268 676 q 464 736 378 736 q 617 697 554 736 q 713 587 681 657 q 746 424 746 517 l 746 32 q 737 9 746 18 q 714 0 728 0 l 644 0 q 622 9 631 0 q 613 32 613 18 l 613 417 q 565 569 613 514 q 426 624 518 624 q 288 569 340 624 q 236 417 236 514 l 236 32 q 227 9 236 18 q 204 0 218 0 l 135 0 z "},"o":{"ha":797,"x_min":71,"x_max":726,"o":"m 399 -14 q 222 26 293 -14 q 114 138 151 67 q 72 301 76 210 q 71 362 71 325 q 72 421 71 399 q 115 585 76 514 q 224 696 153 656 q 399 736 294 736 q 574 696 503 736 q 683 585 644 656 q 725 421 721 514 q 726 362 726 399 q 725 301 726 325 q 683 138 721 210 q 575 26 646 67 q 399 -14 504 -14 m 399 93 q 536 148 485 93 q 592 308 588 203 q 593 361 593 329 q 592 414 593 393 q 536 574 588 519 q 399 629 485 629 q 260 574 313 629 q 206 414 208 519 q 204 361 204 393 q 206 308 204 329 q 260 148 208 203 q 399 93 313 93 z "},"p":{"ha":828,"x_min":104,"x_max":758,"o":"m 136 -264 q 113 -255 122 -264 q 104 -232 104 -246 l 104 690 q 113 713 104 704 q 136 722 122 722 l 200 722 q 223 713 214 722 q 232 690 232 704 l 232 629 q 321 706 265 675 q 460 736 376 736 q 592 710 538 736 q 683 638 647 683 q 736 533 718 592 q 757 408 754 475 q 758 361 758 386 q 757 314 758 336 q 736 190 754 249 q 683 85 718 131 q 592 13 647 40 q 460 -14 538 -14 q 324 16 379 -14 q 235 90 269 46 l 235 -232 q 226 -255 235 -246 q 204 -264 218 -264 l 136 -264 m 431 99 q 544 130 503 99 q 603 212 585 161 q 624 321 621 263 q 624 401 625 361 q 603 510 621 460 q 544 592 585 561 q 431 624 503 624 q 320 592 363 624 q 258 510 278 560 q 235 410 238 461 q 233 357 233 388 q 235 303 233 326 q 258 207 236 254 q 322 129 279 160 q 431 99 365 99 z "},"q":{"ha":828,"x_min":71,"x_max":724,"o":"m 625 -264 q 601 -255 610 -264 q 593 -232 593 -246 l 593 90 q 503 16 558 46 q 368 -14 449 -14 q 236 13 292 -14 q 145 85 181 40 q 92 190 110 131 q 72 314 75 249 q 71 361 71 336 q 72 408 71 386 q 92 533 75 475 q 145 638 110 592 q 236 710 181 683 q 368 736 292 736 q 507 706 451 736 q 596 629 563 675 l 596 690 q 605 713 596 704 q 628 722 614 722 l 692 722 q 715 713 706 722 q 724 690 724 704 l 724 -232 q 715 -255 724 -246 q 692 -264 706 -264 l 625 -264 m 397 99 q 506 129 464 99 q 570 207 549 160 q 593 303 592 254 q 594 357 594 326 q 593 410 594 388 q 571 510 592 461 q 508 592 550 560 q 397 624 465 624 q 285 592 326 624 q 225 510 243 561 q 204 401 207 460 q 204 321 203 361 q 225 212 207 263 q 285 130 243 161 q 397 99 326 99 z "},"r":{"ha":528,"x_min":103,"x_max":513,"o":"m 135 0 q 112 9 121 0 q 103 32 103 18 l 103 689 q 112 713 103 703 q 135 722 121 722 l 199 722 q 222 713 213 722 q 232 689 232 703 l 232 628 q 308 699 260 675 q 426 722 357 722 l 481 722 q 503 713 494 722 q 513 690 513 704 l 513 633 q 503 611 513 619 q 481 603 494 603 l 397 603 q 279 559 322 603 q 236 440 236 515 l 236 32 q 226 9 236 18 q 203 0 217 0 l 135 0 z "},"s":{"ha":708,"x_min":57,"x_max":650,"o":"m 353 -14 q 219 6 275 -14 q 129 53 164 25 q 77 108 94 81 q 58 153 60 136 q 68 176 57 168 q 90 185 79 185 l 153 185 q 165 183 160 185 q 178 171 169 181 q 218 132 196 151 q 273 100 240 113 q 354 88 306 88 q 471 115 425 88 q 517 194 517 142 q 498 250 517 229 q 431 288 479 271 q 300 322 383 304 q 168 370 217 342 q 99 438 119 399 q 78 528 78 478 q 108 627 78 579 q 198 706 139 675 q 346 736 257 736 q 469 718 418 736 q 554 673 521 700 q 604 619 588 646 q 622 575 621 593 q 614 552 624 561 q 592 543 604 543 l 533 543 q 517 547 524 543 q 506 557 511 551 q 473 593 492 575 q 424 623 454 611 q 346 635 394 635 q 242 606 276 635 q 207 532 207 576 q 222 485 207 506 q 281 447 238 464 q 408 411 324 431 q 553 363 500 393 q 628 292 606 332 q 650 199 650 251 q 617 92 650 140 q 517 15 583 43 q 353 -14 450 -14 z "},"t":{"ha":543,"x_min":25,"x_max":513,"o":"m 385 0 q 258 30 307 0 q 188 115 210 60 q 165 244 165 169 l 165 611 l 57 611 q 34 620 43 611 q 25 643 25 629 l 25 690 q 34 713 25 704 q 57 722 43 722 l 165 722 l 165 954 q 174 977 165 968 q 197 986 183 986 l 263 986 q 285 977 276 986 q 294 954 294 968 l 294 722 l 467 722 q 490 713 482 722 q 499 690 499 704 l 499 643 q 490 620 499 629 q 467 611 482 611 l 294 611 l 294 254 q 317 151 294 189 q 396 114 339 114 l 481 114 q 503 105 494 114 q 513 82 513 96 l 513 32 q 503 9 513 18 q 481 0 494 0 l 385 0 z "},"u":{"ha":836,"x_min":96,"x_max":732,"o":"m 372 -14 q 222 26 283 -14 q 128 136 160 65 q 96 299 96 207 l 96 690 q 105 713 96 704 q 128 722 114 722 l 197 722 q 220 713 211 722 q 229 690 229 704 l 229 306 q 410 99 229 99 q 548 153 496 99 q 600 306 600 208 l 600 690 q 609 713 600 704 q 632 722 618 722 l 701 722 q 724 713 715 722 q 732 690 732 704 l 732 32 q 724 9 732 18 q 701 0 715 0 l 636 0 q 613 9 622 0 q 604 32 604 18 l 604 93 q 513 15 567 44 q 372 -14 460 -14 z "},"v":{"ha":769,"x_min":43,"x_max":726,"o":"m 354 0 q 322 10 333 0 q 303 35 310 19 l 46 679 q 43 693 43 686 q 51 714 43 706 q 72 722 60 722 l 139 722 q 163 714 154 722 q 174 699 171 706 l 385 151 l 596 699 q 606 714 599 706 q 629 722 614 722 l 697 722 q 717 714 708 722 q 726 693 726 706 q 724 679 726 686 l 465 35 q 448 10 460 19 q 414 0 436 0 l 354 0 z "},"w":{"ha":1114,"x_min":50,"x_max":1063,"o":"m 294 0 q 267 9 276 0 q 250 35 257 18 l 53 679 q 50 693 50 686 q 59 714 50 706 q 79 722 68 722 l 140 722 q 164 714 156 722 q 175 699 172 706 l 329 175 l 494 693 q 506 713 497 703 q 533 722 515 722 l 581 722 q 608 713 599 722 q 619 693 618 703 l 785 175 l 939 699 q 949 714 940 706 q 972 722 957 722 l 1035 722 q 1054 714 1046 722 q 1063 693 1063 706 q 1060 679 1063 686 l 864 35 q 849 9 858 18 q 818 0 839 0 l 764 0 q 734 9 746 0 q 718 35 722 18 l 557 532 l 396 35 q 379 9 390 18 q 349 0 368 0 l 294 0 z "},"x":{"ha":749,"x_min":40,"x_max":707,"o":"m 69 0 q 49 8 58 0 q 40 29 40 17 q 42 40 40 33 q 50 54 44 46 l 292 369 l 65 668 q 58 682 60 676 q 56 693 56 688 q 64 714 56 706 q 85 722 72 722 l 156 722 q 179 715 171 722 q 192 700 188 707 l 376 460 l 561 699 q 574 714 567 706 q 597 722 582 722 l 665 722 q 686 714 678 722 q 694 693 694 706 q 692 682 694 688 q 685 668 690 676 l 456 367 l 697 54 q 705 40 703 46 q 707 29 707 35 q 699 8 707 17 q 678 0 690 0 l 604 0 q 582 7 590 0 q 568 21 574 14 l 374 275 l 176 21 q 163 8 171 15 q 140 0 156 0 l 69 0 z "},"y":{"ha":767,"x_min":43,"x_max":731,"o":"m 229 -264 q 210 -256 218 -264 q 201 -236 201 -247 q 203 -225 201 -231 q 208 -211 204 -219 l 315 43 l 50 669 q 43 693 43 686 q 51 714 43 706 q 72 722 60 722 l 140 722 q 163 715 156 722 q 174 699 169 708 l 385 193 l 601 699 q 613 715 606 708 q 636 722 621 722 l 701 722 q 722 714 714 722 q 731 694 731 706 q 724 669 731 688 l 329 -240 q 317 -257 325 -250 q 294 -264 310 -264 l 229 -264 z "},"z":{"ha":707,"x_min":57,"x_max":656,"o":"m 89 0 q 66 9 75 0 q 57 32 57 18 l 57 81 q 63 104 57 93 q 76 125 69 115 l 460 613 l 101 613 q 78 621 88 613 q 69 644 69 629 l 69 690 q 78 713 69 704 q 101 722 88 722 l 596 722 q 619 713 610 722 q 628 690 628 704 l 628 639 q 622 617 628 626 q 608 596 615 607 l 229 110 l 624 110 q 647 101 639 110 q 656 78 656 93 l 656 32 q 647 9 656 18 q 624 0 639 0 l 89 0 z "},"!":{"ha":340,"x_min":93,"x_max":246,"o":"m 138 231 q 115 240 124 231 q 106 263 106 249 l 106 940 q 115 963 106 954 q 138 972 124 972 l 203 972 q 226 963 217 972 q 235 940 235 954 l 235 263 q 226 240 235 249 q 203 231 217 231 l 138 231 m 125 0 q 102 9 111 0 q 93 32 93 18 l 93 119 q 102 144 93 135 q 125 153 111 153 l 214 153 q 237 144 228 153 q 246 119 246 135 l 246 32 q 237 9 246 18 q 214 0 228 0 l 125 0 z "},"¡":{"ha":329,"x_min":89,"x_max":242,"o":"m 197 489 q 220 480 211 489 q 229 457 229 471 l 229 -219 q 220 -243 229 -235 q 197 -251 211 -251 l 133 -251 q 110 -243 118 -251 q 101 -219 101 -235 l 101 457 q 110 480 101 471 q 133 489 118 489 l 197 489 m 210 721 q 233 712 224 721 q 242 689 242 703 l 242 600 q 233 576 242 586 q 210 567 224 567 l 121 567 q 98 576 107 567 q 89 600 89 586 l 89 689 q 98 712 89 703 q 121 721 107 721 l 210 721 z "},"?":{"ha":738,"x_min":46,"x_max":690,"o":"m 338 228 q 317 235 325 228 q 308 257 308 243 q 308 285 308 271 q 308 313 308 299 q 335 418 311 372 q 392 501 358 464 q 461 573 426 539 q 520 642 496 607 q 550 715 544 676 q 531 799 556 765 q 463 851 506 833 q 374 869 419 869 q 248 831 300 869 q 179 703 196 793 q 165 679 175 686 q 143 672 156 672 l 76 672 q 55 681 64 672 q 46 703 46 689 q 71 811 47 760 q 138 901 94 863 q 242 963 182 940 q 378 986 303 986 q 523 963 463 986 q 620 902 583 940 q 674 818 657 864 q 688 726 690 772 q 660 627 683 671 q 603 547 636 583 q 535 474 569 510 q 478 401 501 439 q 450 318 454 363 q 448 288 449 303 q 447 260 447 274 q 436 236 444 244 q 413 228 428 228 l 338 228 m 326 0 q 303 9 313 0 q 294 32 294 18 l 294 117 q 303 140 294 131 q 326 149 313 149 l 417 149 q 441 140 432 149 q 450 117 450 131 l 450 32 q 441 9 450 18 q 417 0 432 0 l 326 0 z "},"¿":{"ha":729,"x_min":43,"x_max":688,"o":"m 396 494 q 418 486 410 494 q 426 465 426 478 q 426 437 426 451 q 425 408 426 422 q 399 304 424 350 q 341 220 375 258 q 273 149 307 182 q 214 81 239 115 q 185 7 189 47 q 203 -77 179 -42 q 271 -131 228 -112 q 360 -149 314 -149 q 486 -110 435 -149 q 554 18 538 -71 q 569 43 558 36 q 592 50 579 50 l 657 50 q 679 42 671 50 q 688 19 688 33 q 663 -90 686 -39 q 595 -179 639 -140 q 491 -241 551 -218 q 356 -264 431 -264 q 210 -241 271 -264 q 113 -181 150 -218 q 60 -97 76 -143 q 46 -4 43 -50 q 74 95 50 51 q 131 176 97 139 q 199 248 165 213 q 256 321 232 283 q 283 404 281 358 q 285 433 285 419 q 288 463 286 447 q 299 486 290 478 q 321 494 307 494 l 396 494 m 407 722 q 430 713 421 722 q 439 690 439 704 l 439 606 q 430 582 439 592 q 407 572 421 572 l 317 572 q 293 582 303 572 q 283 606 283 592 l 283 690 q 293 713 283 704 q 317 722 303 722 l 407 722 z "},",":{"ha":346,"x_min":69,"x_max":257,"o":"m 93 -104 q 76 -96 82 -104 q 71 -75 69 -87 l 103 124 q 115 152 106 140 q 142 164 124 164 l 235 164 q 251 157 244 164 q 257 140 257 150 q 253 118 257 129 l 179 -72 q 165 -95 174 -86 q 139 -104 156 -104 l 93 -104 z "},".":{"ha":350,"x_min":93,"x_max":258,"o":"m 125 0 q 102 9 111 0 q 93 32 93 18 l 93 132 q 102 155 93 146 q 125 164 111 164 l 225 164 q 249 155 239 164 q 258 132 258 146 l 258 32 q 249 9 258 18 q 225 0 239 0 l 125 0 z "},":":{"ha":356,"x_min":96,"x_max":260,"o":"m 128 486 q 105 495 114 486 q 96 518 96 504 l 96 615 q 105 638 96 629 q 128 647 114 647 l 228 647 q 251 638 242 647 q 260 615 260 629 l 260 518 q 251 495 260 504 q 228 486 242 486 l 128 486 m 128 0 q 105 9 114 0 q 96 32 96 18 l 96 129 q 105 152 96 143 q 128 161 114 161 l 228 161 q 251 152 242 161 q 260 129 260 143 l 260 32 q 251 9 260 18 q 228 0 242 0 l 128 0 z "},";":{"ha":376,"x_min":88,"x_max":278,"o":"m 110 -104 q 93 -96 99 -104 q 89 -75 88 -87 l 119 124 q 131 152 122 140 q 158 164 140 164 l 251 164 q 267 157 261 164 q 274 140 274 150 q 269 118 274 129 l 196 -72 q 182 -95 190 -86 q 156 -104 174 -104 l 110 -104 m 144 486 q 122 495 131 486 q 113 518 113 504 l 113 615 q 122 638 113 629 q 144 647 131 647 l 244 647 q 268 638 258 647 q 278 615 278 629 l 278 518 q 268 495 278 504 q 244 486 258 486 l 144 486 z "},"…":{"ha":857,"x_min":93,"x_max":765,"o":"m 125 0 q 102 9 111 0 q 93 32 93 18 l 93 126 q 102 150 93 140 q 125 160 111 160 l 219 160 q 243 150 233 160 q 253 126 253 140 l 253 32 q 243 9 253 18 q 219 0 233 0 l 125 0 m 382 0 q 358 9 367 0 q 350 32 350 18 l 350 126 q 358 150 350 140 q 382 160 367 160 l 475 160 q 499 150 490 160 q 508 126 508 140 l 508 32 q 499 9 508 18 q 475 0 490 0 l 382 0 m 638 0 q 615 9 624 0 q 606 32 606 18 l 606 126 q 615 150 606 140 q 638 160 624 160 l 732 160 q 756 150 746 160 q 765 126 765 140 l 765 32 q 756 9 765 18 q 732 0 746 0 l 638 0 z "},"·":{"ha":458,"x_min":81,"x_max":379,"o":"m 229 281 q 155 301 189 281 q 101 355 121 321 q 81 429 81 389 q 101 505 81 471 q 155 559 121 539 q 229 579 189 579 q 304 559 271 579 q 358 505 338 539 q 379 429 379 471 q 358 355 379 389 q 304 301 338 321 q 229 281 271 281 z "},"-":{"ha":672,"x_min":96,"x_max":576,"o":"m 128 358 q 105 367 114 358 q 96 390 96 376 l 96 443 q 105 466 96 457 q 128 475 114 475 l 544 475 q 568 466 560 475 q 576 443 576 457 l 576 390 q 568 367 576 376 q 544 358 560 358 l 128 358 z "},"'":{"ha":303,"x_min":76,"x_max":226,"o":"m 129 679 q 109 688 115 679 q 101 710 103 697 l 78 954 q 84 978 76 969 q 106 986 92 986 l 196 986 q 218 978 210 986 q 225 954 226 969 l 201 710 q 194 688 200 697 q 172 679 188 679 l 129 679 z "},"\"":{"ha":519,"x_min":76,"x_max":443,"o":"m 346 679 q 326 688 332 679 q 318 710 319 697 l 294 954 q 301 978 293 969 q 322 986 308 986 l 413 986 q 435 978 426 986 q 442 954 443 969 l 418 710 q 410 688 417 697 q 389 679 403 679 l 346 679 m 129 679 q 109 688 115 679 q 101 710 103 697 l 78 954 q 84 978 76 969 q 106 986 92 986 l 196 986 q 218 978 210 986 q 225 954 226 969 l 201 710 q 194 688 200 697 q 172 679 188 679 l 129 679 z "},"‘":{"ha":326,"x_min":71,"x_max":258,"o":"m 93 718 q 77 725 83 718 q 71 742 71 732 q 75 764 71 753 l 149 954 q 164 977 156 968 q 189 986 172 986 l 235 986 q 252 978 246 986 q 256 956 258 969 l 225 758 q 214 730 224 742 q 186 718 204 718 l 93 718 z "},"’":{"ha":317,"x_min":78,"x_max":265,"o":"m 101 718 q 84 726 90 718 q 79 747 78 735 l 111 946 q 123 974 114 963 q 150 986 132 986 l 243 986 q 259 978 253 986 q 265 963 265 971 q 260 940 265 951 l 188 750 q 173 727 182 736 q 147 718 164 718 l 101 718 z "},"‚":{"ha":346,"x_min":69,"x_max":257,"o":"m 93 -104 q 75 -96 81 -104 q 71 -74 69 -87 l 103 124 q 114 152 106 140 q 142 164 122 164 l 233 164 q 251 157 244 164 q 257 140 257 150 q 251 118 257 129 l 179 -72 q 165 -95 174 -86 q 138 -104 156 -104 l 93 -104 z "},"“":{"ha":549,"x_min":71,"x_max":481,"o":"m 315 718 q 299 725 306 718 q 293 742 293 732 q 297 764 293 753 l 371 954 q 386 977 378 968 q 411 986 394 986 l 457 986 q 474 978 468 986 q 478 956 481 969 l 447 758 q 436 730 446 742 q 408 718 426 718 l 315 718 m 93 718 q 77 725 83 718 q 71 742 71 732 q 75 764 71 753 l 149 954 q 164 977 156 968 q 189 986 172 986 l 235 986 q 252 978 246 986 q 256 956 258 969 l 225 758 q 214 730 224 742 q 186 718 204 718 l 93 718 z "},"”":{"ha":539,"x_min":78,"x_max":488,"o":"m 324 718 q 306 726 311 718 q 301 747 300 735 l 333 946 q 344 974 336 963 q 372 986 353 986 l 464 986 q 481 978 475 986 q 488 963 488 971 q 482 940 488 951 l 410 750 q 395 727 404 736 q 368 718 386 718 l 324 718 m 101 718 q 84 726 90 718 q 79 747 78 735 l 111 946 q 123 974 114 963 q 150 986 132 986 l 243 986 q 259 978 253 986 q 265 963 265 971 q 260 940 265 951 l 188 750 q 173 727 182 736 q 147 718 164 718 l 101 718 z "},"„":{"ha":568,"x_min":69,"x_max":479,"o":"m 315 -104 q 297 -96 303 -104 q 293 -75 292 -87 l 324 124 q 335 152 326 140 q 364 164 344 164 l 456 164 q 473 157 467 164 q 479 140 479 150 q 474 118 479 129 l 400 -72 q 386 -95 394 -86 q 360 -104 378 -104 l 315 -104 m 93 -104 q 75 -96 81 -104 q 71 -74 69 -87 l 103 124 q 114 152 106 140 q 142 164 122 164 l 233 164 q 251 157 244 164 q 257 140 257 150 q 251 118 257 129 l 179 -72 q 165 -95 174 -86 q 138 -104 156 -104 l 93 -104 z "},"(":{"ha":471,"x_min":79,"x_max":436,"o":"m 404 -221 q 251 -183 314 -221 q 151 -65 189 -144 q 97 137 114 14 q 79 429 79 260 q 97 722 79 599 q 151 924 114 846 q 251 1040 189 1003 q 404 1078 314 1078 q 427 1068 418 1078 q 436 1046 436 1058 l 436 997 q 427 975 436 985 q 408 965 418 965 q 310 935 350 964 q 247 844 271 907 q 212 680 222 782 q 201 429 201 578 q 212 178 201 281 q 247 14 222 76 q 310 -78 271 -49 q 408 -108 350 -107 q 427 -117 418 -108 q 436 -140 436 -126 l 436 -189 q 427 -211 436 -201 q 404 -221 418 -221 z "},")":{"ha":471,"x_min":33,"x_max":390,"o":"m 65 -221 q 43 -211 53 -221 q 33 -189 33 -201 l 33 -140 q 42 -117 33 -126 q 63 -108 51 -108 q 160 -78 121 -107 q 224 14 200 -49 q 258 178 247 76 q 269 429 269 281 q 258 680 269 578 q 224 844 247 782 q 160 935 200 907 q 63 965 121 964 q 42 975 51 965 q 33 997 33 985 l 33 1046 q 43 1068 33 1058 q 65 1078 53 1078 q 218 1040 156 1078 q 319 924 281 1003 q 374 722 357 846 q 390 429 390 599 q 374 137 390 260 q 319 -65 357 14 q 218 -183 281 -144 q 65 -221 156 -221 z "},"[":{"ha":453,"x_min":101,"x_max":414,"o":"m 133 -221 q 110 -212 119 -221 q 101 -189 101 -203 l 101 1046 q 110 1069 101 1060 q 133 1078 119 1078 l 382 1078 q 406 1069 397 1078 q 414 1046 414 1060 l 414 997 q 406 974 414 982 q 382 965 397 965 l 225 965 l 225 -103 l 382 -103 q 406 -112 397 -103 q 414 -135 414 -121 l 414 -189 q 406 -212 414 -203 q 382 -221 397 -221 l 133 -221 z "},"]":{"ha":453,"x_min":38,"x_max":351,"o":"m 69 -221 q 47 -212 56 -221 q 38 -189 38 -203 l 38 -135 q 47 -112 38 -121 q 69 -103 56 -103 l 228 -103 l 228 965 l 69 965 q 47 974 56 965 q 38 997 38 982 l 38 1046 q 47 1069 38 1060 q 69 1078 56 1078 l 319 1078 q 342 1069 333 1078 q 351 1046 351 1060 l 351 -189 q 342 -212 351 -203 q 319 -221 333 -221 l 69 -221 z "},"{":{"ha":511,"x_min":40,"x_max":475,"o":"m 438 -221 q 302 -194 356 -221 q 218 -116 249 -168 q 175 10 188 -64 q 163 182 163 85 q 143 294 163 254 q 85 358 124 333 l 75 363 q 40 415 40 385 l 40 443 q 75 496 40 474 l 86 501 q 144 567 125 528 q 163 676 163 606 q 175 848 163 774 q 218 974 188 922 q 302 1051 249 1025 q 438 1078 356 1078 l 444 1078 q 467 1069 458 1078 q 475 1047 475 1061 l 475 996 q 467 974 475 982 q 446 965 458 965 l 439 965 q 340 931 372 964 q 297 831 307 899 q 286 650 286 763 q 260 513 286 567 q 182 429 233 458 q 240 380 217 411 q 274 306 263 349 q 286 208 286 263 q 297 28 286 99 q 340 -74 307 -42 q 439 -108 372 -106 l 446 -108 q 467 -117 458 -108 q 475 -139 475 -125 l 475 -190 q 467 -212 475 -204 q 444 -221 458 -221 l 438 -221 z "},"}":{"ha":511,"x_min":36,"x_max":471,"o":"m 74 1078 q 209 1051 156 1078 q 293 974 263 1025 q 337 847 324 922 q 350 675 350 772 q 369 564 350 603 q 426 500 388 525 l 438 494 q 471 442 471 472 l 471 414 q 438 363 471 383 l 425 356 q 368 292 386 331 q 350 181 350 253 q 337 9 350 83 q 293 -116 324 -65 q 209 -194 263 -167 q 75 -221 156 -221 l 67 -221 q 44 -212 53 -221 q 36 -190 36 -204 l 36 -139 q 44 -117 36 -125 q 67 -108 53 -108 l 72 -108 q 173 -74 140 -106 q 216 28 206 -42 q 226 207 226 97 q 252 346 226 292 q 329 428 278 400 q 273 479 296 449 q 238 552 250 510 q 226 649 226 594 q 216 830 226 761 q 174 931 206 899 q 74 965 142 964 l 67 965 q 44 974 53 965 q 36 996 36 982 l 36 1047 q 44 1069 36 1061 q 67 1078 53 1078 l 74 1078 z "},"&":{"ha":964,"x_min":78,"x_max":931,"o":"m 399 -14 q 231 21 304 -14 q 118 117 158 56 q 78 260 78 179 q 105 372 78 324 q 176 457 132 419 q 274 525 221 494 q 181 647 208 594 q 154 757 154 700 q 186 871 154 819 q 276 954 218 922 q 414 986 335 986 q 549 956 492 986 q 638 874 606 925 q 669 758 669 822 q 640 651 669 697 q 563 569 611 606 q 458 501 515 533 l 694 269 q 737 360 717 308 q 769 481 757 411 q 799 508 772 508 l 860 508 q 881 500 874 508 q 889 479 889 492 q 880 414 888 449 q 858 340 872 379 q 823 263 843 301 q 776 189 803 225 l 918 47 q 931 26 931 36 q 924 7 931 14 q 903 0 917 0 l 825 0 q 802 4 811 0 q 788 14 793 8 l 696 104 q 568 19 642 51 q 399 -14 494 -14 m 399 97 q 510 120 454 97 q 613 190 565 143 l 353 443 q 249 367 293 410 q 206 263 206 325 q 233 173 206 210 q 304 117 260 136 q 399 97 349 97 m 382 582 q 465 632 426 607 q 526 688 503 657 q 549 757 549 718 q 510 846 549 813 q 414 879 471 879 q 319 847 360 879 q 279 756 279 814 q 288 708 279 732 q 319 654 296 683 q 382 582 342 625 z "},"Á":{"ha":931,"x_min":28,"x_max":903,"o":"m 56 0 q 36 8 44 0 q 28 28 28 17 q 29 43 28 35 l 374 942 q 389 964 379 956 q 418 972 399 972 l 513 972 q 542 964 532 972 q 557 942 551 956 l 900 43 q 903 28 903 35 q 894 8 903 17 q 875 0 886 0 l 804 0 q 780 8 788 0 q 769 24 772 17 l 693 221 l 238 221 l 161 24 q 151 8 160 17 q 126 0 143 0 l 56 0 m 278 340 l 653 340 l 465 833 l 278 340 m 426 1042 q 404 1064 404 1042 q 411 1082 404 1075 l 515 1207 q 538 1228 528 1222 q 567 1233 547 1233 l 669 1233 q 696 1206 696 1233 q 689 1189 696 1196 l 528 1057 q 507 1044 517 1047 q 482 1042 497 1042 l 426 1042 z "},"Ă":{"ha":931,"x_min":28,"x_max":903,"o":"m 56 0 q 36 8 44 0 q 28 28 28 17 q 29 43 28 35 l 374 942 q 389 964 379 956 q 418 972 399 972 l 513 972 q 542 964 532 972 q 557 942 551 956 l 900 43 q 903 28 903 35 q 894 8 903 17 q 875 0 886 0 l 804 0 q 780 8 788 0 q 769 24 772 17 l 693 221 l 238 221 l 161 24 q 151 8 160 17 q 126 0 143 0 l 56 0 m 278 340 l 653 340 l 465 833 l 278 340 m 465 1029 q 360 1053 399 1029 q 306 1117 322 1078 q 289 1200 289 1157 q 296 1219 289 1211 q 315 1226 303 1226 l 358 1226 q 378 1219 371 1226 q 385 1200 385 1211 q 401 1140 385 1168 q 465 1113 417 1113 q 529 1140 513 1113 q 546 1201 546 1168 q 553 1219 546 1211 q 572 1226 560 1226 l 615 1226 q 635 1219 628 1226 q 642 1200 642 1211 q 625 1117 642 1157 q 571 1053 608 1078 q 465 1029 533 1029 z "},"Â":{"ha":931,"x_min":28,"x_max":903,"o":"m 56 0 q 36 8 44 0 q 28 28 28 17 q 29 43 28 35 l 374 942 q 389 964 379 956 q 418 972 399 972 l 513 972 q 542 964 532 972 q 557 942 551 956 l 900 43 q 903 28 903 35 q 894 8 903 17 q 875 0 886 0 l 804 0 q 780 8 788 0 q 769 24 772 17 l 693 221 l 238 221 l 161 24 q 151 8 160 17 q 126 0 143 0 l 56 0 m 278 340 l 653 340 l 465 833 l 278 340 m 275 1042 q 254 1058 254 1042 q 269 1085 254 1069 l 397 1213 q 422 1231 413 1228 q 443 1233 432 1233 l 488 1233 q 510 1231 500 1233 q 533 1213 519 1228 l 661 1085 q 676 1058 676 1069 q 656 1042 676 1042 l 618 1042 q 598 1044 608 1042 q 579 1051 588 1047 l 465 1131 l 351 1051 q 333 1044 344 1047 q 313 1042 322 1042 l 275 1042 z "},"Ä":{"ha":931,"x_min":28,"x_max":903,"o":"m 56 0 q 36 8 44 0 q 28 28 28 17 q 29 43 28 35 l 374 942 q 389 964 379 956 q 418 972 399 972 l 513 972 q 542 964 532 972 q 557 942 551 956 l 900 43 q 903 28 903 35 q 894 8 903 17 q 875 0 886 0 l 804 0 q 780 8 788 0 q 769 24 772 17 l 693 221 l 238 221 l 161 24 q 151 8 160 17 q 126 0 143 0 l 56 0 m 278 340 l 653 340 l 465 833 l 278 340 m 565 1042 q 542 1050 550 1042 q 533 1072 533 1058 l 533 1147 q 542 1170 533 1161 q 565 1179 550 1179 l 640 1179 q 663 1170 654 1179 q 672 1147 672 1161 l 672 1072 q 663 1050 672 1058 q 640 1042 654 1042 l 565 1042 m 288 1042 q 265 1050 274 1042 q 257 1072 257 1058 l 257 1147 q 265 1170 257 1161 q 288 1179 274 1179 l 364 1179 q 387 1170 378 1179 q 396 1147 396 1161 l 396 1072 q 387 1050 396 1058 q 364 1042 378 1042 l 288 1042 z "},"À":{"ha":931,"x_min":28,"x_max":903,"o":"m 56 0 q 36 8 44 0 q 28 28 28 17 q 29 43 28 35 l 374 942 q 389 964 379 956 q 418 972 399 972 l 513 972 q 542 964 532 972 q 557 942 551 956 l 900 43 q 903 28 903 35 q 894 8 903 17 q 875 0 886 0 l 804 0 q 780 8 788 0 q 769 24 772 17 l 693 221 l 238 221 l 161 24 q 151 8 160 17 q 126 0 143 0 l 56 0 m 278 340 l 653 340 l 465 833 l 278 340 m 458 1042 q 433 1044 443 1042 q 413 1057 424 1047 l 251 1189 q 244 1206 244 1196 q 271 1233 244 1233 l 374 1233 q 403 1228 393 1233 q 425 1207 414 1222 l 529 1082 q 536 1064 536 1075 q 514 1042 536 1042 l 458 1042 z "},"Ā":{"ha":931,"x_min":28,"x_max":903,"o":"m 56 0 q 36 8 44 0 q 28 28 28 17 q 29 43 28 35 l 374 942 q 389 964 379 956 q 418 972 399 972 l 513 972 q 542 964 532 972 q 557 942 551 956 l 900 43 q 903 28 903 35 q 894 8 903 17 q 875 0 886 0 l 804 0 q 780 8 788 0 q 769 24 772 17 l 693 221 l 238 221 l 161 24 q 151 8 160 17 q 126 0 143 0 l 56 0 m 278 340 l 653 340 l 465 833 l 278 340 m 303 1042 q 281 1050 289 1042 q 272 1072 272 1058 l 272 1125 q 281 1147 272 1139 q 303 1156 289 1156 l 626 1156 q 649 1147 640 1156 q 657 1125 657 1139 l 657 1072 q 649 1050 657 1058 q 626 1042 640 1042 l 303 1042 z "},"Ą":{"ha":931,"x_min":28,"x_max":903,"o":"m 831 -306 q 726 -281 769 -306 q 659 -210 682 -256 q 636 -106 636 -165 q 669 7 636 -37 q 758 63 703 51 q 751 69 754 65 q 747 78 749 74 l 693 221 l 238 221 l 161 24 q 151 8 160 17 q 126 0 143 0 l 56 0 q 36 8 44 0 q 28 28 28 17 q 29 43 28 35 l 374 942 q 389 964 379 956 q 418 972 399 972 l 513 972 q 542 964 532 972 q 557 942 551 956 l 900 43 q 903 28 903 35 q 894 8 903 17 q 875 0 886 0 l 833 0 q 763 -29 790 0 q 736 -106 736 -58 q 763 -181 736 -153 q 836 -210 790 -210 l 856 -210 q 878 -219 869 -210 q 888 -242 888 -228 l 888 -274 q 878 -297 888 -287 q 856 -306 869 -306 l 831 -306 m 278 340 l 653 340 l 465 833 l 278 340 z "},"Å":{"ha":931,"x_min":28,"x_max":903,"o":"m 56 0 q 36 8 44 0 q 28 28 28 17 q 29 43 28 35 l 374 942 q 389 964 379 956 q 418 972 399 972 l 513 972 q 542 964 532 972 q 557 942 551 956 l 900 43 q 903 28 903 35 q 894 8 903 17 q 875 0 886 0 l 804 0 q 780 8 788 0 q 769 24 772 17 l 693 221 l 238 221 l 161 24 q 151 8 160 17 q 126 0 143 0 l 56 0 m 278 340 l 653 340 l 465 833 l 278 340 m 465 1028 q 383 1058 418 1028 q 349 1138 349 1089 q 383 1216 349 1185 q 465 1247 417 1247 q 548 1216 514 1247 q 582 1138 582 1185 q 548 1058 582 1089 q 465 1028 514 1028 m 465 1096 q 495 1108 483 1096 q 507 1138 507 1119 q 495 1167 507 1156 q 465 1179 483 1179 q 435 1167 447 1179 q 424 1138 424 1156 q 435 1108 424 1119 q 465 1096 447 1096 z "},"Ã":{"ha":931,"x_min":28,"x_max":903,"o":"m 56 0 q 36 8 44 0 q 28 28 28 17 q 29 43 28 35 l 374 942 q 389 964 379 956 q 418 972 399 972 l 513 972 q 542 964 532 972 q 557 942 551 956 l 900 43 q 903 28 903 35 q 894 8 903 17 q 875 0 886 0 l 804 0 q 780 8 788 0 q 769 24 772 17 l 693 221 l 238 221 l 161 24 q 151 8 160 17 q 126 0 143 0 l 56 0 m 278 340 l 653 340 l 465 833 l 278 340 m 538 1035 q 481 1047 504 1035 q 438 1070 457 1058 q 399 1082 419 1082 q 374 1072 382 1082 q 360 1052 367 1063 q 339 1042 354 1042 l 294 1042 q 278 1049 285 1042 q 271 1064 271 1056 q 278 1108 271 1085 q 302 1150 286 1131 q 340 1181 318 1169 q 390 1193 363 1193 q 449 1181 425 1193 q 492 1158 472 1169 q 532 1146 511 1146 q 556 1156 549 1146 q 569 1177 563 1167 q 590 1188 575 1188 l 635 1188 q 653 1181 647 1188 q 658 1164 658 1174 q 650 1122 658 1144 q 626 1079 642 1099 q 588 1047 610 1060 q 538 1035 565 1035 z "},"Æ":{"ha":1300,"x_min":7,"x_max":1228,"o":"m 35 0 q 15 8 24 0 q 7 28 7 17 q 11 46 7 36 q 24 78 17 60 q 49 132 32 97 q 96 226 65 167 q 176 380 126 286 q 302 612 226 474 q 482 942 378 750 q 501 965 490 957 q 524 972 511 972 l 1185 972 q 1208 963 1200 972 q 1217 939 1217 954 l 1217 886 q 1208 863 1217 871 q 1185 854 1200 854 l 719 854 l 719 550 l 1154 550 q 1178 541 1169 550 q 1186 517 1186 532 l 1186 465 q 1178 442 1186 451 q 1154 433 1169 433 l 719 433 l 719 118 l 1196 118 q 1219 110 1211 118 q 1228 86 1228 101 l 1228 32 q 1219 9 1228 18 q 1196 0 1211 0 l 618 0 q 595 9 604 0 q 586 32 586 18 l 586 221 l 251 221 q 192 113 214 153 q 161 55 171 74 q 148 31 151 36 q 144 24 144 25 q 131 7 139 14 q 110 0 122 0 l 35 0 m 304 340 l 586 340 l 586 846 l 576 846 l 304 340 z "},"Ǽ":{"ha":1300,"x_min":7,"x_max":1228,"o":"m 35 0 q 15 8 24 0 q 7 28 7 17 q 11 46 7 36 q 24 78 17 60 q 49 132 32 97 q 96 226 65 167 q 176 380 126 286 q 302 612 226 474 q 482 942 378 750 q 501 965 490 957 q 524 972 511 972 l 1185 972 q 1208 963 1200 972 q 1217 939 1217 954 l 1217 886 q 1208 863 1217 871 q 1185 854 1200 854 l 719 854 l 719 550 l 1154 550 q 1178 541 1169 550 q 1186 517 1186 532 l 1186 465 q 1178 442 1186 451 q 1154 433 1169 433 l 719 433 l 719 118 l 1196 118 q 1219 110 1211 118 q 1228 86 1228 101 l 1228 32 q 1219 9 1228 18 q 1196 0 1211 0 l 618 0 q 595 9 604 0 q 586 32 586 18 l 586 221 l 251 221 q 192 113 214 153 q 161 55 171 74 q 148 31 151 36 q 144 24 144 25 q 131 7 139 14 q 110 0 122 0 l 35 0 m 304 340 l 586 340 l 586 846 l 576 846 l 304 340 m 611 1042 q 589 1064 589 1042 q 596 1082 589 1075 l 700 1207 q 722 1228 713 1222 q 751 1233 732 1233 l 854 1233 q 881 1206 881 1233 q 874 1189 881 1196 l 713 1057 q 692 1044 701 1047 q 667 1042 682 1042 l 611 1042 z "},"Ć":{"ha":925,"x_min":83,"x_max":861,"o":"m 471 -14 q 259 33 343 -14 q 132 165 175 81 q 85 363 89 250 q 83 485 83 419 q 85 610 83 550 q 132 807 89 722 q 259 939 175 892 q 471 986 343 986 q 639 960 567 986 q 759 889 711 933 q 832 790 807 844 q 860 676 857 735 q 852 656 861 664 q 831 647 843 647 l 754 647 q 733 654 742 647 q 719 679 724 661 q 631 828 696 788 q 471 868 567 868 q 293 805 358 868 q 224 603 228 742 q 224 369 219 489 q 293 167 228 231 q 471 104 358 104 q 631 144 567 104 q 719 293 696 185 q 733 318 724 311 q 754 325 742 325 l 831 325 q 852 317 843 325 q 860 297 861 310 q 832 183 857 239 q 759 83 807 128 q 639 13 711 39 q 471 -14 567 -14 m 425 1042 q 403 1064 403 1042 q 410 1082 403 1075 l 514 1207 q 536 1228 526 1222 q 565 1233 546 1233 l 668 1233 q 694 1206 694 1233 q 688 1189 694 1196 l 526 1057 q 506 1044 515 1047 q 481 1042 496 1042 l 425 1042 z "},"Č":{"ha":925,"x_min":83,"x_max":861,"o":"m 471 -14 q 259 33 343 -14 q 132 165 175 81 q 85 363 89 250 q 83 485 83 419 q 85 610 83 550 q 132 807 89 722 q 259 939 175 892 q 471 986 343 986 q 639 960 567 986 q 759 889 711 933 q 832 790 807 844 q 860 676 857 735 q 852 656 861 664 q 831 647 843 647 l 754 647 q 733 654 742 647 q 719 679 724 661 q 631 828 696 788 q 471 868 567 868 q 293 805 358 868 q 224 603 228 742 q 224 369 219 489 q 293 167 228 231 q 471 104 358 104 q 631 144 567 104 q 719 293 696 185 q 733 318 724 311 q 754 325 742 325 l 831 325 q 852 317 843 325 q 860 297 861 310 q 832 183 857 239 q 759 83 807 128 q 639 13 711 39 q 471 -14 567 -14 m 442 1042 q 421 1045 431 1042 q 396 1063 411 1049 l 268 1190 q 253 1217 253 1206 q 274 1233 253 1233 l 311 1233 q 332 1231 321 1233 q 350 1224 343 1228 l 464 1144 l 578 1224 q 597 1231 586 1228 q 617 1233 607 1233 l 654 1233 q 675 1217 675 1233 q 660 1190 675 1206 l 532 1063 q 508 1045 518 1049 q 486 1042 499 1042 l 442 1042 z "},"Ç":{"ha":925,"x_min":83,"x_max":861,"o":"m 465 -306 q 397 -292 428 -304 q 354 -262 367 -279 q 353 -235 342 -246 l 374 -215 q 396 -210 386 -204 q 421 -226 406 -217 q 465 -236 436 -236 q 505 -222 489 -236 q 521 -185 521 -208 q 505 -149 521 -162 q 465 -136 489 -136 q 431 -142 444 -136 q 406 -149 417 -147 q 383 -140 394 -151 l 360 -115 q 356 -96 353 -107 q 365 -74 360 -85 l 393 -8 q 224 55 292 6 q 123 183 157 104 q 85 363 89 261 q 83 485 83 419 q 85 610 83 550 q 132 807 89 722 q 259 939 175 892 q 471 986 343 986 q 639 960 567 986 q 759 889 711 933 q 832 790 807 844 q 860 676 857 735 q 852 656 861 664 q 831 647 843 647 l 754 647 q 733 654 742 647 q 719 679 724 661 q 631 828 696 788 q 471 868 567 868 q 293 805 358 868 q 224 603 228 742 q 224 369 219 489 q 293 167 228 231 q 471 104 358 104 q 631 144 567 104 q 719 293 696 185 q 733 318 724 311 q 754 325 742 325 l 831 325 q 852 317 843 325 q 860 297 861 310 q 832 183 857 239 q 759 83 807 128 q 639 13 711 39 q 471 -14 567 -14 l 440 -78 q 463 -69 449 -72 q 490 -67 478 -67 q 567 -99 538 -67 q 597 -183 597 -132 q 564 -270 597 -233 q 465 -306 531 -307 z "},"Ĉ":{"ha":925,"x_min":83,"x_max":861,"o":"m 471 -14 q 259 33 343 -14 q 132 165 175 81 q 85 363 89 250 q 83 485 83 419 q 85 610 83 550 q 132 807 89 722 q 259 939 175 892 q 471 986 343 986 q 639 960 567 986 q 759 889 711 933 q 832 790 807 844 q 860 676 857 735 q 852 656 861 664 q 831 647 843 647 l 754 647 q 733 654 742 647 q 719 679 724 661 q 631 828 696 788 q 471 868 567 868 q 293 805 358 868 q 224 603 228 742 q 224 369 219 489 q 293 167 228 231 q 471 104 358 104 q 631 144 567 104 q 719 293 696 185 q 733 318 724 311 q 754 325 742 325 l 831 325 q 852 317 843 325 q 860 297 861 310 q 832 183 857 239 q 759 83 807 128 q 639 13 711 39 q 471 -14 567 -14 m 274 1042 q 253 1058 253 1042 q 268 1085 253 1069 l 396 1213 q 421 1231 411 1228 q 442 1233 431 1233 l 486 1233 q 508 1231 499 1233 q 532 1213 518 1228 l 660 1085 q 675 1058 675 1069 q 654 1042 675 1042 l 617 1042 q 597 1044 607 1042 q 578 1051 586 1047 l 464 1131 l 350 1051 q 332 1044 343 1047 q 311 1042 321 1042 l 274 1042 z "},"Ċ":{"ha":925,"x_min":83,"x_max":861,"o":"m 471 -14 q 259 33 343 -14 q 132 165 175 81 q 85 363 89 250 q 83 485 83 419 q 85 610 83 550 q 132 807 89 722 q 259 939 175 892 q 471 986 343 986 q 639 960 567 986 q 759 889 711 933 q 832 790 807 844 q 860 676 857 735 q 852 656 861 664 q 831 647 843 647 l 754 647 q 733 654 742 647 q 719 679 724 661 q 631 828 696 788 q 471 868 567 868 q 293 805 358 868 q 224 603 228 742 q 224 369 219 489 q 293 167 228 231 q 471 104 358 104 q 631 144 567 104 q 719 293 696 185 q 733 318 724 311 q 754 325 742 325 l 831 325 q 852 317 843 325 q 860 297 861 310 q 832 183 857 239 q 759 83 807 128 q 639 13 711 39 q 471 -14 567 -14 m 417 1042 q 394 1050 403 1042 q 386 1072 386 1058 l 386 1163 q 394 1185 386 1176 q 417 1194 403 1194 l 507 1194 q 530 1185 521 1194 q 539 1163 539 1176 l 539 1072 q 530 1050 539 1058 q 507 1042 521 1042 l 417 1042 z "},"Ð":{"ha":971,"x_min":21,"x_max":883,"o":"m 165 0 q 142 9 151 0 q 133 32 133 18 l 133 435 l 53 435 q 30 444 39 435 q 21 467 21 453 l 21 511 q 30 534 21 525 q 53 543 39 543 l 133 543 l 133 939 q 142 963 133 954 q 165 972 151 972 l 481 972 q 713 929 625 972 q 840 802 800 886 q 882 596 881 718 q 883 488 883 536 q 882 378 883 439 q 840 166 879 250 q 714 41 800 82 q 486 0 628 0 l 165 0 m 269 118 l 481 118 q 633 144 576 118 q 715 229 689 171 q 743 383 742 288 q 744 456 744 424 q 744 519 744 488 q 743 590 744 550 q 680 790 740 725 q 475 854 619 854 l 269 854 l 269 543 l 454 543 q 476 534 468 543 q 485 511 485 525 l 485 467 q 476 444 485 453 q 454 435 468 435 l 269 435 l 269 118 z "},"Ď":{"ha":957,"x_min":121,"x_max":869,"o":"m 153 0 q 129 9 138 0 q 121 32 121 18 l 121 939 q 129 963 121 954 q 153 972 138 972 l 468 972 q 699 929 611 972 q 826 802 786 886 q 868 596 867 718 q 869 486 869 533 q 868 378 869 439 q 826 166 865 250 q 701 41 786 82 q 475 0 615 0 l 153 0 m 257 118 l 468 118 q 621 144 564 118 q 703 229 678 171 q 731 383 729 288 q 733 456 733 425 q 733 519 733 488 q 731 590 733 550 q 667 790 728 725 q 461 854 606 854 l 257 854 l 257 118 m 446 1042 q 425 1045 435 1042 q 400 1063 415 1049 l 272 1190 q 257 1217 257 1206 q 278 1233 257 1233 l 315 1233 q 336 1231 325 1233 q 354 1224 347 1228 l 468 1144 l 582 1224 q 601 1231 590 1228 q 621 1233 611 1233 l 658 1233 q 679 1217 679 1233 q 664 1190 679 1206 l 536 1063 q 513 1045 522 1049 q 490 1042 503 1042 l 446 1042 z "},"Đ":{"ha":969,"x_min":21,"x_max":883,"o":"m 165 0 q 142 9 151 0 q 133 32 133 18 l 133 435 l 53 435 q 30 444 39 435 q 21 467 21 453 l 21 511 q 30 534 21 525 q 53 543 39 543 l 133 543 l 133 939 q 142 963 133 954 q 165 972 151 972 l 481 972 q 712 929 625 972 q 839 802 799 886 q 882 596 879 718 q 883 486 883 533 q 882 378 883 439 q 838 166 878 250 q 713 41 799 82 q 486 0 628 0 l 165 0 m 269 118 l 481 118 q 633 144 576 118 q 717 229 690 171 q 744 383 743 288 q 746 456 746 425 q 746 519 746 488 q 744 590 746 550 q 681 790 742 725 q 475 854 619 854 l 269 854 l 269 543 l 454 543 q 476 534 468 543 q 485 511 485 525 l 485 467 q 476 444 485 453 q 454 435 468 435 l 269 435 l 269 118 z "},"É":{"ha":842,"x_min":121,"x_max":769,"o":"m 153 0 q 129 9 138 0 q 121 32 121 18 l 121 939 q 129 963 121 954 q 153 972 138 972 l 726 972 q 750 963 742 972 q 758 939 758 954 l 758 886 q 750 863 758 871 q 726 854 742 854 l 254 854 l 254 550 l 696 550 q 719 541 711 550 q 728 517 728 532 l 728 465 q 719 442 728 451 q 696 433 711 433 l 254 433 l 254 118 l 738 118 q 761 110 753 118 q 769 86 769 101 l 769 32 q 761 9 769 18 q 738 0 753 0 l 153 0 m 383 1042 q 361 1064 361 1042 q 368 1082 361 1075 l 472 1207 q 494 1228 485 1222 q 524 1233 504 1233 l 626 1233 q 653 1206 653 1233 q 646 1189 653 1196 l 485 1057 q 464 1044 474 1047 q 439 1042 454 1042 l 383 1042 z "},"Ĕ":{"ha":842,"x_min":121,"x_max":769,"o":"m 153 0 q 129 9 138 0 q 121 32 121 18 l 121 939 q 129 963 121 954 q 153 972 138 972 l 726 972 q 750 963 742 972 q 758 939 758 954 l 758 886 q 750 863 758 871 q 726 854 742 854 l 254 854 l 254 550 l 696 550 q 719 541 711 550 q 728 517 728 532 l 728 465 q 719 442 728 451 q 696 433 711 433 l 254 433 l 254 118 l 738 118 q 761 110 753 118 q 769 86 769 101 l 769 32 q 761 9 769 18 q 738 0 753 0 l 153 0 m 421 1029 q 316 1053 354 1029 q 261 1117 278 1078 q 244 1200 244 1157 q 251 1219 244 1211 q 271 1226 258 1226 l 314 1226 q 333 1219 326 1226 q 340 1200 340 1211 q 356 1140 340 1168 q 421 1113 372 1113 q 485 1140 468 1113 q 501 1201 501 1168 q 508 1219 501 1211 q 528 1226 515 1226 l 571 1226 q 590 1219 583 1226 q 597 1200 597 1211 q 581 1117 597 1157 q 526 1053 564 1078 q 421 1029 489 1029 z "},"Ě":{"ha":842,"x_min":121,"x_max":769,"o":"m 153 0 q 129 9 138 0 q 121 32 121 18 l 121 939 q 129 963 121 954 q 153 972 138 972 l 726 972 q 750 963 742 972 q 758 939 758 954 l 758 886 q 750 863 758 871 q 726 854 742 854 l 254 854 l 254 550 l 696 550 q 719 541 711 550 q 728 517 728 532 l 728 465 q 719 442 728 451 q 696 433 711 433 l 254 433 l 254 118 l 738 118 q 761 110 753 118 q 769 86 769 101 l 769 32 q 761 9 769 18 q 738 0 753 0 l 153 0 m 399 1042 q 378 1045 388 1042 q 353 1063 368 1049 l 225 1190 q 210 1217 210 1206 q 231 1233 210 1233 l 268 1233 q 289 1231 278 1233 q 307 1224 300 1228 l 421 1144 l 535 1224 q 553 1231 543 1228 q 574 1233 564 1233 l 611 1233 q 632 1217 632 1233 q 617 1190 632 1206 l 489 1063 q 465 1045 475 1049 q 443 1042 456 1042 l 399 1042 z "},"Ê":{"ha":842,"x_min":121,"x_max":769,"o":"m 153 0 q 129 9 138 0 q 121 32 121 18 l 121 939 q 129 963 121 954 q 153 972 138 972 l 726 972 q 750 963 742 972 q 758 939 758 954 l 758 886 q 750 863 758 871 q 726 854 742 854 l 254 854 l 254 550 l 696 550 q 719 541 711 550 q 728 517 728 532 l 728 465 q 719 442 728 451 q 696 433 711 433 l 254 433 l 254 118 l 738 118 q 761 110 753 118 q 769 86 769 101 l 769 32 q 761 9 769 18 q 738 0 753 0 l 153 0 m 231 1042 q 210 1058 210 1042 q 225 1085 210 1069 l 353 1213 q 378 1231 368 1228 q 399 1233 388 1233 l 443 1233 q 465 1231 456 1233 q 489 1213 475 1228 l 617 1085 q 632 1058 632 1069 q 611 1042 632 1042 l 574 1042 q 553 1044 564 1042 q 535 1051 543 1047 l 421 1131 l 307 1051 q 289 1044 300 1047 q 268 1042 278 1042 l 231 1042 z "},"Ë":{"ha":842,"x_min":121,"x_max":769,"o":"m 153 0 q 129 9 138 0 q 121 32 121 18 l 121 939 q 129 963 121 954 q 153 972 138 972 l 726 972 q 750 963 742 972 q 758 939 758 954 l 758 886 q 750 863 758 871 q 726 854 742 854 l 254 854 l 254 550 l 696 550 q 719 541 711 550 q 728 517 728 532 l 728 465 q 719 442 728 451 q 696 433 711 433 l 254 433 l 254 118 l 738 118 q 761 110 753 118 q 769 86 769 101 l 769 32 q 761 9 769 18 q 738 0 753 0 l 153 0 m 522 1042 q 499 1050 507 1042 q 490 1072 490 1058 l 490 1147 q 499 1170 490 1161 q 522 1179 507 1179 l 597 1179 q 620 1170 611 1179 q 629 1147 629 1161 l 629 1072 q 620 1050 629 1058 q 597 1042 611 1042 l 522 1042 m 244 1042 q 222 1050 231 1042 q 214 1072 214 1058 l 214 1147 q 222 1170 214 1161 q 244 1179 231 1179 l 321 1179 q 344 1170 335 1179 q 353 1147 353 1161 l 353 1072 q 344 1050 353 1058 q 321 1042 335 1042 l 244 1042 z "},"Ė":{"ha":842,"x_min":121,"x_max":769,"o":"m 153 0 q 129 9 138 0 q 121 32 121 18 l 121 939 q 129 963 121 954 q 153 972 138 972 l 726 972 q 750 963 742 972 q 758 939 758 954 l 758 886 q 750 863 758 871 q 726 854 742 854 l 254 854 l 254 550 l 696 550 q 719 541 711 550 q 728 517 728 532 l 728 465 q 719 442 728 451 q 696 433 711 433 l 254 433 l 254 118 l 738 118 q 761 110 753 118 q 769 86 769 101 l 769 32 q 761 9 769 18 q 738 0 753 0 l 153 0 m 375 1042 q 353 1050 361 1042 q 344 1072 344 1058 l 344 1163 q 353 1185 344 1176 q 375 1194 361 1194 l 465 1194 q 488 1185 479 1194 q 497 1163 497 1176 l 497 1072 q 488 1050 497 1058 q 465 1042 479 1042 l 375 1042 z "},"È":{"ha":842,"x_min":121,"x_max":769,"o":"m 153 0 q 129 9 138 0 q 121 32 121 18 l 121 939 q 129 963 121 954 q 153 972 138 972 l 726 972 q 750 963 742 972 q 758 939 758 954 l 758 886 q 750 863 758 871 q 726 854 742 854 l 254 854 l 254 550 l 696 550 q 719 541 711 550 q 728 517 728 532 l 728 465 q 719 442 728 451 q 696 433 711 433 l 254 433 l 254 118 l 738 118 q 761 110 753 118 q 769 86 769 101 l 769 32 q 761 9 769 18 q 738 0 753 0 l 153 0 m 414 1042 q 389 1044 399 1042 q 368 1057 379 1047 l 207 1189 q 200 1206 200 1196 q 226 1233 200 1233 l 329 1233 q 359 1228 349 1233 q 381 1207 369 1222 l 485 1082 q 492 1064 492 1075 q 469 1042 492 1042 l 414 1042 z "},"Ē":{"ha":842,"x_min":121,"x_max":769,"o":"m 153 0 q 129 9 138 0 q 121 32 121 18 l 121 939 q 129 963 121 954 q 153 972 138 972 l 726 972 q 750 963 742 972 q 758 939 758 954 l 758 886 q 750 863 758 871 q 726 854 742 854 l 254 854 l 254 550 l 696 550 q 719 541 711 550 q 728 517 728 532 l 728 465 q 719 442 728 451 q 696 433 711 433 l 254 433 l 254 118 l 738 118 q 761 110 753 118 q 769 86 769 101 l 769 32 q 761 9 769 18 q 738 0 753 0 l 153 0 m 258 1042 q 236 1050 244 1042 q 228 1072 228 1058 l 228 1125 q 236 1147 228 1139 q 258 1156 244 1156 l 582 1156 q 604 1147 596 1156 q 613 1125 613 1139 l 613 1072 q 604 1050 613 1058 q 582 1042 596 1042 l 258 1042 z "},"Ę":{"ha":842,"x_min":121,"x_max":769,"o":"m 713 -306 q 609 -281 653 -306 q 542 -210 565 -256 q 519 -106 519 -165 q 526 -48 519 -75 q 544 0 532 -21 l 153 0 q 129 9 138 0 q 121 32 121 18 l 121 939 q 129 963 121 954 q 153 972 138 972 l 726 972 q 750 963 742 972 q 758 939 758 954 l 758 886 q 750 863 758 871 q 726 854 742 854 l 254 854 l 254 550 l 696 550 q 719 541 711 550 q 728 517 728 532 l 728 465 q 719 442 728 451 q 696 433 711 433 l 254 433 l 254 118 l 738 118 q 761 110 753 118 q 769 86 769 101 l 769 32 q 761 9 769 18 q 738 0 753 0 l 711 0 q 644 -31 669 -3 q 619 -106 619 -60 q 647 -181 619 -153 q 718 -210 674 -210 l 739 -210 q 761 -219 753 -210 q 769 -242 769 -228 l 769 -274 q 761 -297 769 -287 q 739 -306 753 -306 l 713 -306 z "},"Ğ":{"ha":946,"x_min":83,"x_max":868,"o":"m 475 -14 q 266 32 351 -14 q 135 161 181 78 q 85 357 90 244 q 83 487 83 418 q 85 618 83 556 q 135 813 90 731 q 267 941 181 896 q 475 986 353 986 q 644 958 572 986 q 763 888 717 931 q 833 800 810 846 q 857 719 856 754 q 850 699 858 707 q 828 692 842 692 l 746 692 q 726 697 732 692 q 714 717 719 703 q 673 788 701 753 q 597 845 644 822 q 475 868 549 868 q 297 808 364 868 q 224 611 229 749 q 224 364 219 488 q 297 165 229 225 q 475 104 365 104 q 606 132 549 104 q 697 216 664 160 q 731 360 731 272 l 731 418 l 522 418 q 499 427 508 418 q 490 451 490 436 l 490 496 q 499 520 490 511 q 522 529 508 529 l 836 529 q 860 520 851 529 q 868 496 868 511 l 868 363 q 822 164 868 249 q 686 33 775 79 q 475 -14 597 -14 m 481 1029 q 376 1053 414 1029 q 321 1117 338 1078 q 304 1200 304 1157 q 311 1219 304 1211 q 331 1226 318 1226 l 374 1226 q 393 1219 386 1226 q 400 1200 400 1211 q 416 1140 400 1168 q 481 1113 432 1113 q 544 1140 528 1113 q 561 1201 561 1168 q 568 1219 561 1211 q 588 1226 575 1226 l 631 1226 q 650 1219 643 1226 q 657 1200 657 1211 q 640 1117 657 1157 q 586 1053 624 1078 q 481 1029 549 1029 z "},"Ĝ":{"ha":946,"x_min":83,"x_max":868,"o":"m 475 -14 q 266 32 351 -14 q 135 161 181 78 q 85 357 90 244 q 83 487 83 418 q 85 618 83 556 q 135 813 90 731 q 267 941 181 896 q 475 986 353 986 q 644 958 572 986 q 763 888 717 931 q 833 800 810 846 q 857 719 856 754 q 850 699 858 707 q 828 692 842 692 l 746 692 q 726 697 732 692 q 714 717 719 703 q 673 788 701 753 q 597 845 644 822 q 475 868 549 868 q 297 808 364 868 q 224 611 229 749 q 224 364 219 488 q 297 165 229 225 q 475 104 365 104 q 606 132 549 104 q 697 216 664 160 q 731 360 731 272 l 731 418 l 522 418 q 499 427 508 418 q 490 451 490 436 l 490 496 q 499 520 490 511 q 522 529 508 529 l 836 529 q 860 520 851 529 q 868 496 868 511 l 868 363 q 822 164 868 249 q 686 33 775 79 q 475 -14 597 -14 m 290 1042 q 269 1058 269 1042 q 285 1085 269 1069 l 413 1213 q 438 1231 428 1228 q 458 1233 447 1233 l 503 1233 q 525 1231 515 1233 q 549 1213 535 1228 l 676 1085 q 692 1058 692 1069 q 671 1042 692 1042 l 633 1042 q 613 1044 624 1042 q 594 1051 603 1047 l 481 1131 l 367 1051 q 349 1044 360 1047 q 328 1042 338 1042 l 290 1042 z "},"Ģ":{"ha":946,"x_min":83,"x_max":868,"o":"m 475 -14 q 266 32 351 -14 q 135 161 181 78 q 85 357 90 244 q 83 487 83 418 q 85 618 83 556 q 135 813 90 731 q 267 941 181 896 q 475 986 353 986 q 644 958 572 986 q 763 888 717 931 q 833 800 810 846 q 857 719 856 754 q 850 699 858 707 q 828 692 842 692 l 746 692 q 726 697 732 692 q 714 717 719 703 q 673 788 701 753 q 597 845 644 822 q 475 868 549 868 q 297 808 364 868 q 224 611 229 749 q 224 364 219 488 q 297 165 229 225 q 475 104 365 104 q 606 132 549 104 q 697 216 664 160 q 731 360 731 272 l 731 418 l 522 418 q 499 427 508 418 q 490 451 490 436 l 490 496 q 499 520 490 511 q 522 529 508 529 l 836 529 q 860 520 851 529 q 868 496 868 511 l 868 363 q 822 164 868 249 q 686 33 775 79 q 475 -14 597 -14 m 404 -301 q 386 -293 392 -301 q 382 -272 381 -285 l 407 -110 q 419 -81 410 -93 q 446 -69 428 -69 l 536 -69 q 552 -77 546 -69 q 558 -93 558 -85 q 554 -115 558 -104 l 494 -269 q 481 -292 489 -283 q 454 -301 472 -301 l 404 -301 z "},"Ġ":{"ha":946,"x_min":83,"x_max":868,"o":"m 475 -14 q 266 32 351 -14 q 135 161 181 78 q 85 357 90 244 q 83 487 83 418 q 85 618 83 556 q 135 813 90 731 q 267 941 181 896 q 475 986 353 986 q 644 958 572 986 q 763 888 717 931 q 833 800 810 846 q 857 719 856 754 q 850 699 858 707 q 828 692 842 692 l 746 692 q 726 697 732 692 q 714 717 719 703 q 673 788 701 753 q 597 845 644 822 q 475 868 549 868 q 297 808 364 868 q 224 611 229 749 q 224 364 219 488 q 297 165 229 225 q 475 104 365 104 q 606 132 549 104 q 697 216 664 160 q 731 360 731 272 l 731 418 l 522 418 q 499 427 508 418 q 490 451 490 436 l 490 496 q 499 520 490 511 q 522 529 508 529 l 836 529 q 860 520 851 529 q 868 496 868 511 l 868 363 q 822 164 868 249 q 686 33 775 79 q 475 -14 597 -14 m 435 1042 q 413 1050 421 1042 q 404 1072 404 1058 l 404 1163 q 413 1185 404 1176 q 435 1194 421 1194 l 525 1194 q 548 1185 539 1194 q 557 1163 557 1176 l 557 1072 q 548 1050 557 1058 q 525 1042 539 1042 l 435 1042 z "},"Ħ":{"ha":992,"x_min":40,"x_max":963,"o":"m 71 715 q 49 724 57 715 q 40 746 40 732 l 40 781 q 49 803 40 794 q 71 813 57 813 l 931 813 q 953 803 944 813 q 963 781 963 794 l 963 746 q 953 724 963 732 q 931 715 944 715 l 71 715 m 153 0 q 129 9 138 0 q 121 32 121 18 l 121 939 q 129 963 121 954 q 153 972 138 972 l 224 972 q 248 963 239 972 q 257 939 257 954 l 257 556 l 735 556 l 735 939 q 744 963 735 954 q 767 972 753 972 l 838 972 q 862 963 853 972 q 871 939 871 954 l 871 32 q 862 9 871 18 q 838 0 853 0 l 767 0 q 744 9 753 0 q 735 32 735 18 l 735 431 l 257 431 l 257 32 q 248 9 257 18 q 224 0 239 0 l 153 0 z "},"Ĥ":{"ha":992,"x_min":121,"x_max":871,"o":"m 153 0 q 129 9 138 0 q 121 32 121 18 l 121 939 q 129 963 121 954 q 153 972 138 972 l 224 972 q 248 963 239 972 q 257 939 257 954 l 257 556 l 735 556 l 735 939 q 744 963 735 954 q 767 972 753 972 l 838 972 q 862 963 853 972 q 871 939 871 954 l 871 32 q 862 9 871 18 q 838 0 853 0 l 767 0 q 744 9 753 0 q 735 32 735 18 l 735 431 l 257 431 l 257 32 q 248 9 257 18 q 224 0 239 0 l 153 0 m 306 1042 q 285 1058 285 1042 q 300 1085 285 1069 l 428 1213 q 453 1231 443 1228 q 474 1233 463 1233 l 518 1233 q 540 1231 531 1233 q 564 1213 550 1228 l 692 1085 q 707 1058 707 1069 q 686 1042 707 1042 l 649 1042 q 628 1044 639 1042 q 610 1051 618 1047 l 496 1131 l 382 1051 q 364 1044 375 1047 q 343 1042 353 1042 l 306 1042 z "},"Ĳ":{"ha":875,"x_min":121,"x_max":763,"o":"m 401 -14 q 378 -5 388 -14 q 369 18 369 4 l 369 76 q 378 101 369 92 q 401 110 388 110 q 568 180 513 110 q 624 367 624 250 l 624 940 q 633 963 624 954 q 656 972 642 972 l 729 972 q 753 963 744 972 q 763 939 763 954 l 763 356 q 720 156 763 239 q 598 30 678 74 q 401 -14 518 -14 m 153 0 q 129 9 138 0 q 121 32 121 18 l 121 940 q 129 963 121 954 q 153 972 138 972 l 226 972 q 250 963 242 972 q 258 940 258 954 l 258 32 q 250 9 258 18 q 226 0 242 0 l 153 0 z "},"Í":{"ha":379,"x_min":121,"x_max":421,"o":"m 153 0 q 129 9 138 0 q 121 32 121 18 l 121 940 q 129 963 121 954 q 153 972 138 972 l 226 972 q 250 963 242 972 q 258 940 258 954 l 258 32 q 250 9 258 18 q 226 0 242 0 l 153 0 m 151 1042 q 129 1064 129 1042 q 136 1082 129 1075 l 240 1207 q 263 1228 253 1222 q 292 1233 272 1233 l 394 1233 q 421 1206 421 1233 q 414 1189 421 1196 l 253 1057 q 232 1044 242 1047 q 207 1042 222 1042 l 151 1042 z "},"Ĭ":{"ha":379,"x_min":14,"x_max":367,"o":"m 153 0 q 129 9 138 0 q 121 32 121 18 l 121 940 q 129 963 121 954 q 153 972 138 972 l 226 972 q 250 963 242 972 q 258 940 258 954 l 258 32 q 250 9 258 18 q 226 0 242 0 l 153 0 m 190 1029 q 85 1053 124 1029 q 31 1117 47 1078 q 14 1200 14 1157 q 21 1219 14 1211 q 40 1226 28 1226 l 83 1226 q 103 1219 96 1226 q 110 1200 110 1211 q 126 1140 110 1168 q 190 1113 142 1113 q 254 1140 238 1113 q 271 1201 271 1168 q 278 1219 271 1211 q 297 1226 285 1226 l 340 1226 q 360 1219 353 1226 q 367 1200 367 1211 q 350 1117 367 1157 q 296 1053 333 1078 q 190 1029 258 1029 z "},"Î":{"ha":379,"x_min":-21,"x_max":400,"o":"m 153 0 q 129 9 138 0 q 121 32 121 18 l 121 940 q 129 963 121 954 q 153 972 138 972 l 226 972 q 250 963 242 972 q 258 940 258 954 l 258 32 q 250 9 258 18 q 226 0 242 0 l 153 0 m 0 1042 q -21 1058 -21 1042 q -6 1085 -21 1069 l 122 1213 q 147 1231 138 1228 q 168 1233 157 1233 l 213 1233 q 235 1231 225 1233 q 258 1213 244 1228 l 386 1085 q 401 1058 401 1069 q 381 1042 401 1042 l 343 1042 q 323 1044 333 1042 q 304 1051 313 1047 l 190 1131 l 76 1051 q 58 1044 69 1047 q 38 1042 47 1042 l 0 1042 z "},"Ï":{"ha":379,"x_min":-17,"x_max":397,"o":"m 153 0 q 129 9 138 0 q 121 32 121 18 l 121 940 q 129 963 121 954 q 153 972 138 972 l 226 972 q 250 963 242 972 q 258 940 258 954 l 258 32 q 250 9 258 18 q 226 0 242 0 l 153 0 m 290 1042 q 267 1050 275 1042 q 258 1072 258 1058 l 258 1147 q 267 1170 258 1161 q 290 1179 275 1179 l 365 1179 q 388 1170 379 1179 q 397 1147 397 1161 l 397 1072 q 388 1050 397 1058 q 365 1042 379 1042 l 290 1042 m 13 1042 q -10 1050 -1 1042 q -18 1072 -18 1058 l -18 1147 q -10 1170 -18 1161 q 13 1179 -1 1179 l 89 1179 q 112 1170 103 1179 q 121 1147 121 1161 l 121 1072 q 112 1050 121 1058 q 89 1042 103 1042 l 13 1042 z "},"İ":{"ha":379,"x_min":114,"x_max":265,"o":"m 153 0 q 129 9 138 0 q 121 32 121 18 l 121 940 q 129 963 121 954 q 153 972 138 972 l 226 972 q 250 963 242 972 q 258 940 258 954 l 258 32 q 250 9 258 18 q 226 0 242 0 l 153 0 m 143 1042 q 121 1050 129 1042 q 113 1072 113 1058 l 113 1163 q 121 1185 113 1176 q 143 1194 129 1194 l 233 1194 q 256 1185 247 1194 q 265 1163 265 1176 l 265 1072 q 256 1050 265 1058 q 233 1042 247 1042 l 143 1042 z "},"Ì":{"ha":379,"x_min":-31,"x_max":261,"o":"m 153 0 q 129 9 138 0 q 121 32 121 18 l 121 940 q 129 963 121 954 q 153 972 138 972 l 226 972 q 250 963 242 972 q 258 940 258 954 l 258 32 q 250 9 258 18 q 226 0 242 0 l 153 0 m 183 1042 q 158 1044 168 1042 q 138 1057 149 1047 l -24 1189 q -31 1206 -31 1196 q -4 1233 -31 1233 l 99 1233 q 128 1228 118 1233 q 150 1207 139 1222 l 254 1082 q 261 1064 261 1075 q 239 1042 261 1042 l 183 1042 z "},"Ī":{"ha":379,"x_min":-3,"x_max":382,"o":"m 153 0 q 129 9 138 0 q 121 32 121 18 l 121 940 q 129 963 121 954 q 153 972 138 972 l 226 972 q 250 963 242 972 q 258 940 258 954 l 258 32 q 250 9 258 18 q 226 0 242 0 l 153 0 m 28 1042 q 6 1050 14 1042 q -3 1072 -3 1058 l -3 1125 q 6 1147 -3 1139 q 28 1156 14 1156 l 351 1156 q 374 1147 365 1156 q 382 1125 382 1139 l 382 1072 q 374 1050 382 1058 q 351 1042 365 1042 l 28 1042 z "},"Į":{"ha":400,"x_min":28,"x_max":279,"o":"m 222 -306 q 117 -281 161 -306 q 51 -210 74 -256 q 28 -106 28 -165 q 62 8 28 -36 q 154 63 96 51 l 147 72 q 142 81 144 75 q 140 90 140 86 l 140 940 q 149 963 140 954 q 172 972 158 972 l 247 972 q 270 963 261 972 q 279 940 279 954 l 279 32 q 270 9 279 18 q 247 0 261 0 l 228 0 q 156 -29 183 0 q 129 -106 129 -58 q 156 -181 129 -153 q 228 -210 183 -210 l 247 -210 q 270 -219 261 -210 q 279 -242 279 -228 l 279 -274 q 270 -297 279 -289 q 247 -306 261 -306 l 222 -306 z "},"Ĩ":{"ha":379,"x_min":-4,"x_max":383,"o":"m 153 0 q 129 9 138 0 q 121 32 121 18 l 121 940 q 129 963 121 954 q 153 972 138 972 l 226 972 q 250 963 242 972 q 258 940 258 954 l 258 32 q 250 9 258 18 q 226 0 242 0 l 153 0 m 263 1035 q 206 1047 229 1035 q 163 1070 182 1058 q 124 1082 144 1082 q 99 1072 107 1082 q 85 1052 92 1063 q 64 1042 79 1042 l 19 1042 q 3 1049 10 1042 q -4 1064 -4 1056 q 3 1108 -4 1085 q 27 1150 11 1131 q 65 1181 43 1169 q 115 1193 88 1193 q 174 1181 150 1193 q 217 1158 197 1169 q 257 1146 236 1146 q 281 1156 274 1146 q 294 1177 288 1167 q 315 1188 300 1188 l 360 1188 q 378 1181 372 1188 q 383 1164 383 1174 q 375 1122 383 1144 q 351 1079 367 1099 q 313 1047 335 1060 q 263 1035 290 1035 z "},"Ĵ":{"ha":881,"x_min":53,"x_max":768,"o":"m 410 -14 q 276 4 339 -14 q 163 58 213 22 q 85 150 114 94 q 53 281 56 206 q 61 302 53 293 q 83 311 69 311 l 158 311 q 183 302 174 311 q 194 279 192 293 q 231 178 200 217 q 308 122 261 140 q 413 104 356 104 q 574 174 518 104 q 629 358 629 243 l 629 851 l 136 851 q 113 860 122 851 q 104 883 104 869 l 104 940 q 113 963 104 954 q 136 972 122 972 l 735 972 q 759 963 750 972 q 768 939 768 954 l 768 356 q 725 160 768 243 q 603 31 682 76 q 410 -14 524 -14 m 249 1042 q 228 1058 228 1042 q 243 1085 228 1069 l 371 1213 q 396 1231 386 1228 q 417 1233 406 1233 l 461 1233 q 483 1231 474 1233 q 507 1213 493 1228 l 635 1085 q 650 1058 650 1069 q 629 1042 650 1042 l 592 1042 q 572 1044 582 1042 q 553 1051 561 1047 l 439 1131 l 325 1051 q 307 1044 318 1047 q 286 1042 296 1042 l 249 1042 z "},"Ķ":{"ha":835,"x_min":121,"x_max":813,"o":"m 153 0 q 129 9 138 0 q 121 32 121 18 l 121 939 q 129 963 121 954 q 153 972 138 972 l 222 972 q 247 963 238 972 q 256 939 256 954 l 256 594 l 626 950 q 645 964 632 956 q 681 972 658 972 l 756 972 q 775 964 767 972 q 783 944 783 956 q 778 926 783 933 l 349 507 l 806 47 q 813 28 813 39 q 804 8 813 17 q 785 0 796 0 l 707 0 q 671 9 683 0 q 653 24 658 18 l 256 414 l 256 32 q 247 9 256 18 q 222 0 238 0 l 153 0 m 351 -301 q 333 -293 339 -301 q 329 -272 328 -285 l 354 -110 q 366 -81 357 -93 q 393 -69 375 -69 l 483 -69 q 499 -77 493 -69 q 506 -93 506 -85 q 501 -115 506 -104 l 442 -269 q 428 -292 436 -283 q 401 -301 419 -301 l 351 -301 z "},"Ĺ":{"ha":782,"x_min":121,"x_max":753,"o":"m 153 0 q 129 9 138 0 q 121 32 121 18 l 121 940 q 129 963 121 954 q 153 972 138 972 l 226 972 q 249 963 240 972 q 258 940 258 954 l 258 121 l 719 121 q 744 112 735 121 q 753 88 753 103 l 753 32 q 744 9 753 18 q 719 0 735 0 l 153 0 m 147 1042 q 125 1064 125 1042 q 132 1082 125 1075 l 236 1207 q 258 1228 249 1222 q 288 1233 268 1233 l 390 1233 q 417 1206 417 1233 q 410 1189 417 1196 l 249 1057 q 228 1044 238 1047 q 203 1042 218 1042 l 147 1042 z "},"Ľ":{"ha":782,"x_min":121,"x_max":753,"o":"m 153 0 q 129 9 138 0 q 121 32 121 18 l 121 940 q 129 963 121 954 q 153 972 138 972 l 226 972 q 249 963 240 972 q 258 940 258 954 l 258 121 l 719 121 q 744 112 735 121 q 753 88 753 103 l 753 32 q 744 9 753 18 q 719 0 735 0 l 153 0 m 411 754 q 393 763 399 754 q 389 783 388 771 l 414 946 q 426 974 417 963 q 453 986 435 986 l 543 986 q 559 978 553 986 q 565 963 565 971 q 561 940 565 951 l 501 786 q 488 763 496 772 q 461 754 479 754 l 411 754 z "},"Ļ":{"ha":782,"x_min":121,"x_max":753,"o":"m 153 0 q 129 9 138 0 q 121 32 121 18 l 121 940 q 129 963 121 954 q 153 972 138 972 l 226 972 q 249 963 240 972 q 258 940 258 954 l 258 121 l 719 121 q 744 112 735 121 q 753 88 753 103 l 753 32 q 744 9 753 18 q 719 0 735 0 l 153 0 m 343 -301 q 325 -293 331 -301 q 321 -272 319 -285 l 346 -110 q 358 -81 349 -93 q 385 -69 367 -69 l 475 -69 q 491 -77 485 -69 q 497 -93 497 -85 q 493 -115 497 -104 l 433 -269 q 419 -292 428 -283 q 393 -301 411 -301 l 343 -301 z "},"Ŀ":{"ha":782,"x_min":121,"x_max":753,"o":"m 153 0 q 129 9 138 0 q 121 32 121 18 l 121 940 q 129 963 121 954 q 153 972 138 972 l 226 972 q 249 963 240 972 q 258 940 258 954 l 258 121 l 719 121 q 744 112 735 121 q 753 88 753 103 l 753 32 q 744 9 753 18 q 719 0 735 0 l 153 0 m 440 435 q 418 443 426 435 q 410 465 410 451 l 410 554 q 418 577 410 568 q 440 586 426 586 l 529 586 q 552 577 543 586 q 561 554 561 568 l 561 465 q 552 443 561 451 q 529 435 543 435 l 440 435 z "},"Ł":{"ha":793,"x_min":17,"x_max":764,"o":"m 164 0 q 140 9 149 0 q 132 32 132 18 l 132 388 l 61 361 q 44 357 51 357 q 24 364 32 357 q 17 383 17 371 l 17 433 q 24 456 17 449 q 47 469 31 464 l 132 501 l 132 940 q 140 963 132 954 q 164 972 149 972 l 238 972 q 260 963 251 972 q 269 940 269 954 l 269 556 l 471 633 q 488 638 482 638 q 507 631 499 638 q 515 613 515 625 l 515 563 q 508 540 515 547 q 485 526 501 533 l 269 443 l 269 121 l 732 121 q 755 112 746 121 q 764 89 764 103 l 764 32 q 755 9 764 18 q 732 0 746 0 l 164 0 z "},"Ń":{"ha":965,"x_min":121,"x_max":844,"o":"m 153 0 q 129 9 138 0 q 121 32 121 18 l 121 939 q 129 963 121 954 q 153 972 138 972 l 217 972 q 242 965 233 972 q 251 953 250 957 l 713 244 l 713 939 q 721 963 713 954 q 744 972 729 972 l 811 972 q 835 963 826 972 q 844 939 844 954 l 844 33 q 835 10 844 19 q 813 0 826 0 l 746 0 q 723 8 731 0 q 713 19 715 17 l 253 721 l 253 32 q 244 9 253 18 q 219 0 235 0 l 153 0 m 444 1042 q 422 1064 422 1042 q 429 1082 422 1075 l 533 1207 q 556 1228 546 1222 q 585 1233 565 1233 l 688 1233 q 714 1206 714 1233 q 707 1189 714 1196 l 546 1057 q 525 1044 535 1047 q 500 1042 515 1042 l 444 1042 z "},"Ň":{"ha":965,"x_min":121,"x_max":844,"o":"m 153 0 q 129 9 138 0 q 121 32 121 18 l 121 939 q 129 963 121 954 q 153 972 138 972 l 217 972 q 242 965 233 972 q 251 953 250 957 l 713 244 l 713 939 q 721 963 713 954 q 744 972 729 972 l 811 972 q 835 963 826 972 q 844 939 844 954 l 844 33 q 835 10 844 19 q 813 0 826 0 l 746 0 q 723 8 731 0 q 713 19 715 17 l 253 721 l 253 32 q 244 9 253 18 q 219 0 235 0 l 153 0 m 460 1042 q 439 1045 449 1042 q 414 1063 429 1049 l 286 1190 q 271 1217 271 1206 q 292 1233 271 1233 l 329 1233 q 350 1231 339 1233 q 368 1224 361 1228 l 482 1144 l 596 1224 q 615 1231 604 1228 q 635 1233 625 1233 l 672 1233 q 693 1217 693 1233 q 678 1190 693 1206 l 550 1063 q 526 1045 536 1049 q 504 1042 517 1042 l 460 1042 z "},"Ņ":{"ha":965,"x_min":121,"x_max":844,"o":"m 153 0 q 129 9 138 0 q 121 32 121 18 l 121 939 q 129 963 121 954 q 153 972 138 972 l 217 972 q 242 965 233 972 q 251 953 250 957 l 713 244 l 713 939 q 721 963 713 954 q 744 972 729 972 l 811 972 q 835 963 826 972 q 844 939 844 954 l 844 33 q 835 10 844 19 q 813 0 826 0 l 746 0 q 723 8 731 0 q 713 19 715 17 l 253 721 l 253 32 q 244 9 253 18 q 219 0 235 0 l 153 0 m 401 -301 q 383 -293 389 -301 q 379 -272 378 -285 l 404 -110 q 416 -81 407 -93 q 443 -69 425 -69 l 533 -69 q 549 -77 543 -69 q 556 -93 556 -85 q 551 -115 556 -104 l 492 -269 q 478 -292 486 -283 q 451 -301 469 -301 l 401 -301 z "},"Ŋ":{"ha":965,"x_min":121,"x_max":844,"o":"m 581 -312 q 558 -303 567 -312 q 549 -281 549 -294 l 549 -224 q 558 -201 549 -210 q 581 -192 567 -192 l 596 -192 q 669 -174 644 -192 q 703 -124 694 -156 q 713 -56 713 -93 l 713 19 l 253 721 l 253 32 q 244 9 253 18 q 219 0 235 0 l 153 0 q 129 9 138 0 q 121 32 121 18 l 121 939 q 129 963 121 954 q 153 972 138 972 l 217 972 q 242 965 233 972 q 251 953 250 957 l 713 244 l 713 939 q 721 963 713 954 q 744 972 729 972 l 811 972 q 835 963 826 972 q 844 939 844 954 l 844 -57 q 820 -190 844 -133 q 740 -280 796 -247 q 589 -312 683 -312 l 581 -312 z "},"Ñ":{"ha":965,"x_min":121,"x_max":844,"o":"m 153 0 q 129 9 138 0 q 121 32 121 18 l 121 939 q 129 963 121 954 q 153 972 138 972 l 217 972 q 242 965 233 972 q 251 953 250 957 l 713 244 l 713 939 q 721 963 713 954 q 744 972 729 972 l 811 972 q 835 963 826 972 q 844 939 844 954 l 844 33 q 835 10 844 19 q 813 0 826 0 l 746 0 q 723 8 731 0 q 713 19 715 17 l 253 721 l 253 32 q 244 9 253 18 q 219 0 235 0 l 153 0 m 554 1035 q 497 1047 521 1035 q 455 1070 474 1058 q 415 1082 436 1082 q 391 1072 399 1082 q 377 1052 383 1063 q 356 1042 371 1042 l 311 1042 q 294 1049 301 1042 q 288 1064 288 1056 q 295 1108 288 1085 q 319 1150 303 1131 q 357 1181 335 1169 q 407 1193 379 1193 q 465 1181 442 1193 q 508 1158 489 1169 q 549 1146 528 1146 q 572 1156 565 1146 q 585 1177 579 1167 q 607 1188 592 1188 l 651 1188 q 669 1181 664 1188 q 675 1164 675 1174 q 667 1122 675 1144 q 642 1079 658 1099 q 604 1047 626 1060 q 554 1035 582 1035 z "},"Ó":{"ha":940,"x_min":83,"x_max":858,"o":"m 471 -14 q 267 27 351 -14 q 136 153 182 68 q 85 368 90 239 q 83 485 83 429 q 85 603 83 542 q 138 816 90 731 q 272 944 186 901 q 471 986 357 986 q 669 944 583 986 q 803 816 754 901 q 856 603 851 731 q 858 485 858 542 q 856 368 858 429 q 805 153 851 239 q 674 27 758 68 q 471 -14 589 -14 m 471 104 q 644 168 576 104 q 717 375 711 232 q 719 487 719 438 q 717 597 719 536 q 681 753 714 693 q 594 840 649 813 q 471 868 540 868 q 347 840 401 868 q 260 753 293 813 q 224 597 228 693 q 222 487 222 536 q 224 375 222 438 q 297 168 229 232 q 471 104 365 104 m 432 1042 q 410 1064 410 1042 q 417 1082 410 1075 l 521 1207 q 543 1228 533 1222 q 572 1233 553 1233 l 675 1233 q 701 1206 701 1233 q 694 1189 701 1196 l 533 1057 q 513 1044 522 1047 q 488 1042 503 1042 l 432 1042 z "},"Ŏ":{"ha":940,"x_min":83,"x_max":858,"o":"m 471 -14 q 267 27 351 -14 q 136 153 182 68 q 85 368 90 239 q 83 485 83 429 q 85 603 83 542 q 138 816 90 731 q 272 944 186 901 q 471 986 357 986 q 669 944 583 986 q 803 816 754 901 q 856 603 851 731 q 858 485 858 542 q 856 368 858 429 q 805 153 851 239 q 674 27 758 68 q 471 -14 589 -14 m 471 104 q 644 168 576 104 q 717 375 711 232 q 719 487 719 438 q 717 597 719 536 q 681 753 714 693 q 594 840 649 813 q 471 868 540 868 q 347 840 401 868 q 260 753 293 813 q 224 597 228 693 q 222 487 222 536 q 224 375 222 438 q 297 168 229 232 q 471 104 365 104 m 471 1029 q 366 1053 404 1029 q 311 1117 328 1078 q 294 1200 294 1157 q 301 1219 294 1211 q 321 1226 308 1226 l 364 1226 q 383 1219 376 1226 q 390 1200 390 1211 q 406 1140 390 1168 q 471 1113 422 1113 q 535 1140 518 1113 q 551 1201 551 1168 q 558 1219 551 1211 q 578 1226 565 1226 l 621 1226 q 640 1219 633 1226 q 647 1200 647 1211 q 631 1117 647 1157 q 576 1053 614 1078 q 471 1029 539 1029 z "},"Ô":{"ha":940,"x_min":83,"x_max":858,"o":"m 471 -14 q 267 27 351 -14 q 136 153 182 68 q 85 368 90 239 q 83 485 83 429 q 85 603 83 542 q 138 816 90 731 q 272 944 186 901 q 471 986 357 986 q 669 944 583 986 q 803 816 754 901 q 856 603 851 731 q 858 485 858 542 q 856 368 858 429 q 805 153 851 239 q 674 27 758 68 q 471 -14 589 -14 m 471 104 q 644 168 576 104 q 717 375 711 232 q 719 487 719 438 q 717 597 719 536 q 681 753 714 693 q 594 840 649 813 q 471 868 540 868 q 347 840 401 868 q 260 753 293 813 q 224 597 228 693 q 222 487 222 536 q 224 375 222 438 q 297 168 229 232 q 471 104 365 104 m 281 1042 q 260 1058 260 1042 q 275 1085 260 1069 l 403 1213 q 428 1231 418 1228 q 449 1233 438 1233 l 493 1233 q 515 1231 506 1233 q 539 1213 525 1228 l 667 1085 q 682 1058 682 1069 q 661 1042 682 1042 l 624 1042 q 603 1044 614 1042 q 585 1051 593 1047 l 471 1131 l 357 1051 q 339 1044 350 1047 q 318 1042 328 1042 l 281 1042 z "},"Ö":{"ha":940,"x_min":83,"x_max":858,"o":"m 471 -14 q 267 27 351 -14 q 136 153 182 68 q 85 368 90 239 q 83 485 83 429 q 85 603 83 542 q 138 816 90 731 q 272 944 186 901 q 471 986 357 986 q 669 944 583 986 q 803 816 754 901 q 856 603 851 731 q 858 485 858 542 q 856 368 858 429 q 805 153 851 239 q 674 27 758 68 q 471 -14 589 -14 m 471 104 q 644 168 576 104 q 717 375 711 232 q 719 487 719 438 q 717 597 719 536 q 681 753 714 693 q 594 840 649 813 q 471 868 540 868 q 347 840 401 868 q 260 753 293 813 q 224 597 228 693 q 222 487 222 536 q 224 375 222 438 q 297 168 229 232 q 471 104 365 104 m 571 1042 q 547 1050 556 1042 q 539 1072 539 1058 l 539 1147 q 547 1170 539 1161 q 571 1179 556 1179 l 646 1179 q 669 1170 660 1179 q 678 1147 678 1161 l 678 1072 q 669 1050 678 1058 q 646 1042 660 1042 l 571 1042 m 293 1042 q 271 1050 279 1042 q 263 1072 263 1058 l 263 1147 q 271 1170 263 1161 q 293 1179 279 1179 l 369 1179 q 392 1170 383 1179 q 401 1147 401 1161 l 401 1072 q 392 1050 401 1058 q 369 1042 383 1042 l 293 1042 z "},"Ò":{"ha":940,"x_min":83,"x_max":858,"o":"m 471 -14 q 267 27 351 -14 q 136 153 182 68 q 85 368 90 239 q 83 485 83 429 q 85 603 83 542 q 138 816 90 731 q 272 944 186 901 q 471 986 357 986 q 669 944 583 986 q 803 816 754 901 q 856 603 851 731 q 858 485 858 542 q 856 368 858 429 q 805 153 851 239 q 674 27 758 68 q 471 -14 589 -14 m 471 104 q 644 168 576 104 q 717 375 711 232 q 719 487 719 438 q 717 597 719 536 q 681 753 714 693 q 594 840 649 813 q 471 868 540 868 q 347 840 401 868 q 260 753 293 813 q 224 597 228 693 q 222 487 222 536 q 224 375 222 438 q 297 168 229 232 q 471 104 365 104 m 464 1042 q 439 1044 449 1042 q 418 1057 429 1047 l 257 1189 q 250 1206 250 1196 q 276 1233 250 1233 l 379 1233 q 409 1228 399 1233 q 431 1207 419 1222 l 535 1082 q 542 1064 542 1075 q 519 1042 542 1042 l 464 1042 z "},"Ő":{"ha":940,"x_min":83,"x_max":858,"o":"m 471 -14 q 267 27 351 -14 q 136 153 182 68 q 85 368 90 239 q 83 485 83 429 q 85 603 83 542 q 138 816 90 731 q 272 944 186 901 q 471 986 357 986 q 669 944 583 986 q 803 816 754 901 q 856 603 851 731 q 858 485 858 542 q 856 368 858 429 q 805 153 851 239 q 674 27 758 68 q 471 -14 589 -14 m 471 104 q 644 168 576 104 q 717 375 711 232 q 719 487 719 438 q 717 597 719 536 q 681 753 714 693 q 594 840 649 813 q 471 868 540 868 q 347 840 401 868 q 260 753 293 813 q 224 597 228 693 q 222 487 222 536 q 224 375 222 438 q 297 168 229 232 q 471 104 365 104 m 557 1042 q 535 1064 535 1042 q 538 1075 535 1069 q 542 1085 540 1081 l 597 1207 q 649 1233 610 1233 l 735 1233 q 763 1207 763 1233 q 754 1189 763 1197 l 644 1061 q 601 1042 628 1042 l 557 1042 m 326 1042 q 304 1064 304 1042 q 307 1075 304 1069 q 311 1085 310 1081 l 367 1207 q 418 1233 379 1233 l 504 1233 q 532 1207 532 1233 q 524 1189 532 1197 l 414 1061 q 371 1042 397 1042 l 326 1042 z "},"Ō":{"ha":940,"x_min":83,"x_max":858,"o":"m 471 -14 q 267 27 351 -14 q 136 153 182 68 q 85 368 90 239 q 83 485 83 429 q 85 603 83 542 q 138 816 90 731 q 272 944 186 901 q 471 986 357 986 q 669 944 583 986 q 803 816 754 901 q 856 603 851 731 q 858 485 858 542 q 856 368 858 429 q 805 153 851 239 q 674 27 758 68 q 471 -14 589 -14 m 471 104 q 644 168 576 104 q 717 375 711 232 q 719 487 719 438 q 717 597 719 536 q 681 753 714 693 q 594 840 649 813 q 471 868 540 868 q 347 840 401 868 q 260 753 293 813 q 224 597 228 693 q 222 487 222 536 q 224 375 222 438 q 297 168 229 232 q 471 104 365 104 m 307 1042 q 285 1050 293 1042 q 276 1072 276 1058 l 276 1125 q 285 1147 276 1139 q 307 1156 293 1156 l 631 1156 q 653 1147 644 1156 q 661 1125 661 1139 l 661 1072 q 653 1050 661 1058 q 631 1042 644 1042 l 307 1042 z "},"Ø":{"ha":972,"x_min":15,"x_max":957,"o":"m 489 -14 q 233 60 329 -14 q 113 290 136 135 l 60 271 q 43 267 50 267 q 23 274 31 267 q 15 293 15 281 l 15 343 q 22 366 15 358 q 46 379 29 374 l 101 401 q 101 501 100 453 q 103 603 101 550 q 156 816 108 731 q 290 944 204 901 q 489 986 375 986 q 733 914 635 986 q 860 696 832 842 l 913 717 q 929 721 924 721 q 949 714 942 721 q 957 694 957 707 l 957 646 q 950 622 957 629 q 926 608 943 615 l 874 589 q 876 478 876 531 q 874 368 876 425 q 823 153 869 239 q 692 27 776 68 q 489 -14 607 -14 m 489 104 q 662 168 594 104 q 735 375 729 232 q 737 458 736 421 q 736 535 738 494 l 243 343 q 322 161 256 218 q 489 104 389 104 m 240 456 l 729 646 q 649 815 714 763 q 489 868 583 868 q 365 840 419 868 q 278 753 311 813 q 242 597 246 693 q 240 524 240 557 q 240 456 239 490 z "},"Ǿ":{"ha":972,"x_min":15,"x_max":957,"o":"m 489 -14 q 233 60 329 -14 q 113 290 136 135 l 60 271 q 43 267 50 267 q 23 274 31 267 q 15 293 15 281 l 15 343 q 22 366 15 358 q 46 379 29 374 l 101 401 q 101 501 100 453 q 103 603 101 550 q 156 816 108 731 q 290 944 204 901 q 489 986 375 986 q 733 914 635 986 q 860 696 832 842 l 913 717 q 929 721 924 721 q 949 714 942 721 q 957 694 957 707 l 957 646 q 950 622 957 629 q 926 608 943 615 l 874 589 q 876 478 876 531 q 874 368 876 425 q 823 153 869 239 q 692 27 776 68 q 489 -14 607 -14 m 489 104 q 662 168 594 104 q 735 375 729 232 q 737 458 736 421 q 736 535 738 494 l 243 343 q 322 161 256 218 q 489 104 389 104 m 240 456 l 729 646 q 649 815 714 763 q 489 868 583 868 q 365 840 419 868 q 278 753 311 813 q 242 597 246 693 q 240 524 240 557 q 240 456 239 490 m 449 1042 q 426 1064 426 1042 q 433 1082 426 1075 l 538 1207 q 560 1228 550 1222 q 589 1233 569 1233 l 692 1233 q 718 1206 718 1233 q 711 1189 718 1196 l 550 1057 q 529 1044 539 1047 q 504 1042 519 1042 l 449 1042 z "},"Õ":{"ha":940,"x_min":83,"x_max":858,"o":"m 471 -14 q 267 27 351 -14 q 136 153 182 68 q 85 368 90 239 q 83 485 83 429 q 85 603 83 542 q 138 816 90 731 q 272 944 186 901 q 471 986 357 986 q 669 944 583 986 q 803 816 754 901 q 856 603 851 731 q 858 485 858 542 q 856 368 858 429 q 805 153 851 239 q 674 27 758 68 q 471 -14 589 -14 m 471 104 q 644 168 576 104 q 717 375 711 232 q 719 487 719 438 q 717 597 719 536 q 681 753 714 693 q 594 840 649 813 q 471 868 540 868 q 347 840 401 868 q 260 753 293 813 q 224 597 228 693 q 222 487 222 536 q 224 375 222 438 q 297 168 229 232 q 471 104 365 104 m 542 1035 q 485 1047 508 1035 q 442 1070 461 1058 q 403 1082 424 1082 q 378 1072 386 1082 q 365 1052 371 1063 q 343 1042 358 1042 l 299 1042 q 282 1049 289 1042 q 275 1064 275 1056 q 283 1108 275 1085 q 306 1150 290 1131 q 344 1181 322 1169 q 394 1193 367 1193 q 453 1181 429 1193 q 496 1158 476 1169 q 536 1146 515 1146 q 560 1156 553 1146 q 573 1177 567 1167 q 594 1188 579 1188 l 639 1188 q 657 1181 651 1188 q 663 1164 663 1174 q 654 1122 663 1144 q 630 1079 646 1099 q 592 1047 614 1060 q 542 1035 569 1035 z "},"Œ":{"ha":1276,"x_min":86,"x_max":1206,"o":"m 482 0 q 255 41 340 0 q 131 166 169 82 q 88 378 92 250 q 86 486 86 439 q 88 596 86 533 q 131 802 92 718 q 258 929 171 886 q 489 972 344 972 l 1161 972 q 1185 963 1176 972 q 1194 939 1194 954 l 1194 886 q 1185 863 1194 871 q 1161 854 1176 854 l 740 854 l 740 550 l 1131 550 q 1155 541 1146 550 q 1164 517 1164 532 l 1164 465 q 1155 442 1164 451 q 1131 433 1146 433 l 740 433 l 740 118 l 1172 118 q 1197 110 1188 118 q 1206 86 1206 101 l 1206 32 q 1197 9 1206 18 q 1172 0 1188 0 l 482 0 m 489 118 l 607 118 l 607 854 l 496 854 q 290 790 351 854 q 225 590 228 725 q 224 519 225 550 q 224 456 224 488 q 225 383 225 425 q 254 229 228 288 q 338 144 281 171 q 489 118 394 118 z "},"Þ":{"ha":899,"x_min":121,"x_max":843,"o":"m 153 0 q 129 9 138 0 q 121 32 121 18 l 121 940 q 129 963 121 954 q 153 972 138 972 l 228 972 q 251 963 242 972 q 260 940 260 954 l 260 785 l 504 785 q 683 751 607 785 q 801 652 760 718 q 843 488 843 586 q 801 324 843 389 q 683 226 760 258 q 504 193 607 193 l 260 193 l 260 32 q 251 9 260 18 q 226 0 242 0 l 153 0 m 258 308 l 499 308 q 653 354 601 308 q 704 489 704 400 q 654 622 704 574 q 499 669 604 669 l 258 669 l 258 308 z "},"Ŕ":{"ha":910,"x_min":121,"x_max":851,"o":"m 153 0 q 129 9 138 0 q 121 32 121 18 l 121 939 q 129 963 121 954 q 153 972 138 972 l 492 972 q 740 899 649 972 q 832 681 832 825 q 778 506 832 574 q 633 413 725 439 l 847 43 q 851 28 851 35 q 842 8 851 17 q 822 0 833 0 l 756 0 q 721 13 732 0 q 701 38 710 25 l 500 390 l 257 390 l 257 32 q 248 9 257 18 q 224 0 239 0 l 153 0 m 257 508 l 486 508 q 642 552 590 508 q 693 682 693 596 q 642 811 693 767 q 486 856 592 856 l 257 856 l 257 508 m 389 1042 q 367 1064 367 1042 q 374 1082 367 1075 l 478 1207 q 500 1228 490 1222 q 529 1233 510 1233 l 632 1233 q 658 1206 658 1233 q 651 1189 658 1196 l 490 1057 q 469 1044 479 1047 q 444 1042 460 1042 l 389 1042 z "},"Ř":{"ha":910,"x_min":121,"x_max":851,"o":"m 153 0 q 129 9 138 0 q 121 32 121 18 l 121 939 q 129 963 121 954 q 153 972 138 972 l 492 972 q 740 899 649 972 q 832 681 832 825 q 778 506 832 574 q 633 413 725 439 l 847 43 q 851 28 851 35 q 842 8 851 17 q 822 0 833 0 l 756 0 q 721 13 732 0 q 701 38 710 25 l 500 390 l 257 390 l 257 32 q 248 9 257 18 q 224 0 239 0 l 153 0 m 257 508 l 486 508 q 642 552 590 508 q 693 682 693 596 q 642 811 693 767 q 486 856 592 856 l 257 856 l 257 508 m 406 1042 q 385 1045 394 1042 q 360 1063 375 1049 l 232 1190 q 217 1217 217 1206 q 238 1233 217 1233 l 275 1233 q 296 1231 285 1233 q 314 1224 307 1228 l 428 1144 l 542 1224 q 560 1231 550 1228 q 581 1233 571 1233 l 618 1233 q 639 1217 639 1233 q 624 1190 639 1206 l 496 1063 q 472 1045 482 1049 q 450 1042 463 1042 l 406 1042 z "},"Ŗ":{"ha":910,"x_min":121,"x_max":851,"o":"m 153 0 q 129 9 138 0 q 121 32 121 18 l 121 939 q 129 963 121 954 q 153 972 138 972 l 492 972 q 740 899 649 972 q 832 681 832 825 q 778 506 832 574 q 633 413 725 439 l 847 43 q 851 28 851 35 q 842 8 851 17 q 822 0 833 0 l 756 0 q 721 13 732 0 q 701 38 710 25 l 500 390 l 257 390 l 257 32 q 248 9 257 18 q 224 0 239 0 l 153 0 m 257 508 l 486 508 q 642 552 590 508 q 693 682 693 596 q 642 811 693 767 q 486 856 592 856 l 257 856 l 257 508 m 376 -301 q 358 -293 364 -301 q 354 -272 353 -285 l 379 -110 q 391 -81 382 -93 q 418 -69 400 -69 l 508 -69 q 524 -77 518 -69 q 531 -93 531 -85 q 526 -115 531 -104 l 467 -269 q 453 -292 461 -283 q 426 -301 444 -301 l 376 -301 z "},"Ś":{"ha":864,"x_min":58,"x_max":803,"o":"m 433 -14 q 231 24 313 -14 q 105 120 149 61 q 58 244 61 179 q 67 265 58 256 q 89 274 76 274 l 160 274 q 185 265 176 274 q 196 246 193 257 q 231 180 204 213 q 306 126 257 147 q 433 104 356 104 q 609 147 553 104 q 665 260 665 189 q 635 338 665 308 q 544 392 606 368 q 386 443 483 415 q 218 507 285 472 q 119 593 151 542 q 86 724 86 644 q 126 858 86 799 q 243 951 167 917 q 426 986 319 986 q 577 963 513 986 q 685 902 642 940 q 750 820 728 864 q 774 735 772 776 q 767 716 774 725 q 744 707 760 707 l 671 707 q 651 713 661 707 q 635 733 640 718 q 571 829 626 790 q 426 868 515 868 q 280 833 336 868 q 224 725 224 799 q 250 647 224 678 q 333 592 276 615 q 482 542 390 568 q 664 477 593 511 q 769 392 735 443 q 803 263 803 342 q 757 113 803 175 q 628 19 711 51 q 433 -14 546 -14 m 394 1042 q 372 1064 372 1042 q 379 1082 372 1075 l 483 1207 q 506 1228 496 1222 q 535 1233 515 1233 l 638 1233 q 664 1206 664 1233 q 657 1189 664 1196 l 496 1057 q 475 1044 485 1047 q 450 1042 465 1042 l 394 1042 z "},"Š":{"ha":864,"x_min":58,"x_max":803,"o":"m 433 -14 q 231 24 313 -14 q 105 120 149 61 q 58 244 61 179 q 67 265 58 256 q 89 274 76 274 l 160 274 q 185 265 176 274 q 196 246 193 257 q 231 180 204 213 q 306 126 257 147 q 433 104 356 104 q 609 147 553 104 q 665 260 665 189 q 635 338 665 308 q 544 392 606 368 q 386 443 483 415 q 218 507 285 472 q 119 593 151 542 q 86 724 86 644 q 126 858 86 799 q 243 951 167 917 q 426 986 319 986 q 577 963 513 986 q 685 902 642 940 q 750 820 728 864 q 774 735 772 776 q 767 716 774 725 q 744 707 760 707 l 671 707 q 651 713 661 707 q 635 733 640 718 q 571 829 626 790 q 426 868 515 868 q 280 833 336 868 q 224 725 224 799 q 250 647 224 678 q 333 592 276 615 q 482 542 390 568 q 664 477 593 511 q 769 392 735 443 q 803 263 803 342 q 757 113 803 175 q 628 19 711 51 q 433 -14 546 -14 m 411 1042 q 390 1045 400 1042 q 365 1063 381 1049 l 238 1190 q 222 1217 222 1206 q 243 1233 222 1233 l 281 1233 q 301 1231 290 1233 q 319 1224 313 1228 l 433 1144 l 547 1224 q 566 1231 556 1228 q 586 1233 576 1233 l 624 1233 q 644 1217 644 1233 q 629 1190 644 1206 l 501 1063 q 478 1045 488 1049 q 456 1042 468 1042 l 411 1042 z "},"Ş":{"ha":864,"x_min":58,"x_max":803,"o":"m 429 -306 q 361 -292 392 -304 q 318 -262 331 -279 q 317 -235 306 -246 l 339 -215 q 360 -210 351 -204 q 385 -226 369 -217 q 429 -236 400 -236 q 469 -222 453 -236 q 485 -185 485 -208 q 469 -149 485 -162 q 429 -136 453 -136 q 395 -142 410 -136 q 369 -149 381 -147 q 347 -140 358 -151 l 324 -115 q 320 -96 317 -107 q 329 -74 324 -85 l 357 -8 q 195 41 261 3 q 94 133 129 79 q 58 244 60 186 q 67 265 58 256 q 89 274 76 274 l 160 274 q 185 265 176 274 q 196 246 193 257 q 231 180 204 213 q 306 126 257 147 q 433 104 356 104 q 609 147 553 104 q 665 260 665 189 q 635 338 665 308 q 544 392 606 368 q 386 443 483 415 q 218 507 285 472 q 119 593 151 542 q 86 724 86 644 q 126 858 86 799 q 243 951 167 917 q 426 986 319 986 q 577 963 513 986 q 685 902 642 940 q 750 820 728 864 q 774 735 772 776 q 767 716 774 725 q 744 707 760 707 l 671 707 q 651 713 661 707 q 635 733 640 718 q 571 829 626 790 q 426 868 515 868 q 280 833 336 868 q 224 725 224 799 q 250 647 224 678 q 333 592 276 615 q 482 542 390 568 q 664 477 593 511 q 769 392 735 443 q 803 263 803 342 q 758 113 803 175 q 630 19 713 51 q 435 -14 547 -14 l 404 -78 q 427 -69 413 -72 q 454 -67 442 -67 q 531 -99 501 -67 q 561 -183 561 -132 q 528 -270 561 -233 q 429 -306 494 -307 z "},"Ŝ":{"ha":864,"x_min":58,"x_max":803,"o":"m 433 -14 q 231 24 313 -14 q 105 120 149 61 q 58 244 61 179 q 67 265 58 256 q 89 274 76 274 l 160 274 q 185 265 176 274 q 196 246 193 257 q 231 180 204 213 q 306 126 257 147 q 433 104 356 104 q 609 147 553 104 q 665 260 665 189 q 635 338 665 308 q 544 392 606 368 q 386 443 483 415 q 218 507 285 472 q 119 593 151 542 q 86 724 86 644 q 126 858 86 799 q 243 951 167 917 q 426 986 319 986 q 577 963 513 986 q 685 902 642 940 q 750 820 728 864 q 774 735 772 776 q 767 716 774 725 q 744 707 760 707 l 671 707 q 651 713 661 707 q 635 733 640 718 q 571 829 626 790 q 426 868 515 868 q 280 833 336 868 q 224 725 224 799 q 250 647 224 678 q 333 592 276 615 q 482 542 390 568 q 664 477 593 511 q 769 392 735 443 q 803 263 803 342 q 757 113 803 175 q 628 19 711 51 q 433 -14 546 -14 m 243 1042 q 222 1058 222 1042 q 238 1085 222 1069 l 365 1213 q 390 1231 381 1228 q 411 1233 400 1233 l 456 1233 q 478 1231 468 1233 q 501 1213 488 1228 l 629 1085 q 644 1058 644 1069 q 624 1042 644 1042 l 586 1042 q 566 1044 576 1042 q 547 1051 556 1047 l 433 1131 l 319 1051 q 301 1044 313 1047 q 281 1042 290 1042 l 243 1042 z "},"Ș":{"ha":864,"x_min":58,"x_max":803,"o":"m 433 -14 q 231 24 313 -14 q 105 120 149 61 q 58 244 61 179 q 67 265 58 256 q 89 274 76 274 l 160 274 q 185 265 176 274 q 196 246 193 257 q 231 180 204 213 q 306 126 257 147 q 433 104 356 104 q 609 147 553 104 q 665 260 665 189 q 635 338 665 308 q 544 392 606 368 q 386 443 483 415 q 218 507 285 472 q 119 593 151 542 q 86 724 86 644 q 126 858 86 799 q 243 951 167 917 q 426 986 319 986 q 577 963 513 986 q 685 902 642 940 q 750 820 728 864 q 774 735 772 776 q 767 716 774 725 q 744 707 760 707 l 671 707 q 651 713 661 707 q 635 733 640 718 q 571 829 626 790 q 426 868 515 868 q 280 833 336 868 q 224 725 224 799 q 250 647 224 678 q 333 592 276 615 q 482 542 390 568 q 664 477 593 511 q 769 392 735 443 q 803 263 803 342 q 757 113 803 175 q 628 19 711 51 q 433 -14 546 -14 m 349 -301 q 331 -293 336 -301 q 326 -272 325 -285 l 351 -110 q 363 -81 354 -93 q 390 -69 372 -69 l 481 -69 q 497 -77 490 -69 q 503 -93 503 -85 q 499 -115 503 -104 l 439 -269 q 425 -292 433 -283 q 399 -301 417 -301 l 349 -301 z "},"Ŧ":{"ha":818,"x_min":42,"x_max":776,"o":"m 372 0 q 349 9 358 0 q 340 32 340 18 l 340 463 l 183 463 q 160 472 169 463 q 151 494 151 481 l 151 529 q 160 553 151 544 q 183 563 169 563 l 340 563 l 340 849 l 74 849 q 51 858 60 849 q 42 881 42 867 l 42 939 q 51 963 42 954 q 74 972 60 972 l 743 972 q 767 963 758 972 q 776 939 776 954 l 776 881 q 767 858 776 867 q 743 849 758 849 l 478 849 l 478 563 l 633 563 q 657 553 649 563 q 665 529 665 544 l 665 494 q 657 472 665 481 q 633 463 649 463 l 478 463 l 478 32 q 469 9 478 18 q 444 0 460 0 l 372 0 z "},"Ť":{"ha":804,"x_min":35,"x_max":769,"o":"m 365 0 q 342 9 351 0 q 333 32 333 18 l 333 849 l 67 849 q 44 858 53 849 q 35 881 35 867 l 35 939 q 44 963 35 954 q 67 972 53 972 l 736 972 q 760 963 751 972 q 769 939 769 954 l 769 881 q 760 858 769 867 q 736 849 751 849 l 471 849 l 471 32 q 462 9 471 18 q 438 0 453 0 l 365 0 m 381 1042 q 360 1045 369 1042 q 335 1063 350 1049 l 207 1190 q 192 1217 192 1206 q 213 1233 192 1233 l 250 1233 q 271 1231 260 1233 q 289 1224 282 1228 l 403 1144 l 517 1224 q 535 1231 525 1228 q 556 1233 546 1233 l 593 1233 q 614 1217 614 1233 q 599 1190 614 1206 l 471 1063 q 447 1045 457 1049 q 425 1042 438 1042 l 381 1042 z "},"Ț":{"ha":804,"x_min":35,"x_max":769,"o":"m 365 0 q 342 9 351 0 q 333 32 333 18 l 333 849 l 67 849 q 44 858 53 849 q 35 881 35 867 l 35 939 q 44 963 35 954 q 67 972 53 972 l 736 972 q 760 963 751 972 q 769 939 769 954 l 769 881 q 760 858 769 867 q 736 849 751 849 l 471 849 l 471 32 q 462 9 471 18 q 438 0 453 0 l 365 0 m 317 -301 q 299 -293 304 -301 q 294 -272 293 -285 l 319 -110 q 331 -81 322 -93 q 358 -69 340 -69 l 449 -69 q 465 -77 458 -69 q 471 -93 471 -85 q 467 -115 471 -104 l 407 -269 q 393 -292 401 -283 q 367 -301 385 -301 l 317 -301 z "},"Ú":{"ha":974,"x_min":113,"x_max":863,"o":"m 488 -14 q 287 28 371 -14 q 158 155 203 69 q 113 375 113 240 l 113 939 q 121 963 113 954 q 144 972 129 972 l 215 972 q 240 963 231 972 q 249 939 249 954 l 249 372 q 313 171 249 236 q 488 106 376 106 q 662 171 597 106 q 726 372 726 236 l 726 939 q 735 963 726 954 q 758 972 744 972 l 831 972 q 853 963 844 972 q 863 939 863 954 l 863 375 q 817 155 863 240 q 689 28 772 69 q 488 -14 606 -14 m 449 1042 q 426 1064 426 1042 q 433 1082 426 1075 l 538 1207 q 560 1228 550 1222 q 589 1233 569 1233 l 692 1233 q 718 1206 718 1233 q 711 1189 718 1196 l 550 1057 q 529 1044 539 1047 q 504 1042 519 1042 l 449 1042 z "},"Ŭ":{"ha":974,"x_min":113,"x_max":863,"o":"m 488 -14 q 287 28 371 -14 q 158 155 203 69 q 113 375 113 240 l 113 939 q 121 963 113 954 q 144 972 129 972 l 215 972 q 240 963 231 972 q 249 939 249 954 l 249 372 q 313 171 249 236 q 488 106 376 106 q 662 171 597 106 q 726 372 726 236 l 726 939 q 735 963 726 954 q 758 972 744 972 l 831 972 q 853 963 844 972 q 863 939 863 954 l 863 375 q 817 155 863 240 q 689 28 772 69 q 488 -14 606 -14 m 488 1029 q 383 1053 421 1029 q 328 1117 344 1078 q 311 1200 311 1157 q 318 1219 311 1211 q 338 1226 325 1226 l 381 1226 q 400 1219 393 1226 q 407 1200 407 1211 q 423 1140 407 1168 q 488 1113 439 1113 q 551 1140 535 1113 q 568 1201 568 1168 q 575 1219 568 1211 q 594 1226 582 1226 l 638 1226 q 657 1219 650 1226 q 664 1200 664 1211 q 647 1117 664 1157 q 593 1053 631 1078 q 488 1029 556 1029 z "},"Û":{"ha":974,"x_min":113,"x_max":863,"o":"m 488 -14 q 287 28 371 -14 q 158 155 203 69 q 113 375 113 240 l 113 939 q 121 963 113 954 q 144 972 129 972 l 215 972 q 240 963 231 972 q 249 939 249 954 l 249 372 q 313 171 249 236 q 488 106 376 106 q 662 171 597 106 q 726 372 726 236 l 726 939 q 735 963 726 954 q 758 972 744 972 l 831 972 q 853 963 844 972 q 863 939 863 954 l 863 375 q 817 155 863 240 q 689 28 772 69 q 488 -14 606 -14 m 297 1042 q 276 1058 276 1042 q 292 1085 276 1069 l 419 1213 q 444 1231 435 1228 q 465 1233 454 1233 l 510 1233 q 532 1231 522 1233 q 556 1213 542 1228 l 683 1085 q 699 1058 699 1069 q 678 1042 699 1042 l 640 1042 q 620 1044 631 1042 q 601 1051 610 1047 l 488 1131 l 374 1051 q 356 1044 367 1047 q 335 1042 344 1042 l 297 1042 z "},"Ü":{"ha":974,"x_min":113,"x_max":863,"o":"m 488 -14 q 287 28 371 -14 q 158 155 203 69 q 113 375 113 240 l 113 939 q 121 963 113 954 q 144 972 129 972 l 215 972 q 240 963 231 972 q 249 939 249 954 l 249 372 q 313 171 249 236 q 488 106 376 106 q 662 171 597 106 q 726 372 726 236 l 726 939 q 735 963 726 954 q 758 972 744 972 l 831 972 q 853 963 844 972 q 863 939 863 954 l 863 375 q 817 155 863 240 q 689 28 772 69 q 488 -14 606 -14 m 589 1042 q 565 1050 574 1042 q 557 1072 557 1058 l 557 1147 q 565 1170 557 1161 q 589 1179 574 1179 l 664 1179 q 687 1170 678 1179 q 696 1147 696 1161 l 696 1072 q 687 1050 696 1058 q 664 1042 678 1042 l 589 1042 m 311 1042 q 289 1050 297 1042 q 281 1072 281 1058 l 281 1147 q 289 1170 281 1161 q 311 1179 297 1179 l 388 1179 q 410 1170 401 1179 q 419 1147 419 1161 l 419 1072 q 410 1050 419 1058 q 388 1042 401 1042 l 311 1042 z "},"Ù":{"ha":974,"x_min":113,"x_max":863,"o":"m 488 -14 q 287 28 371 -14 q 158 155 203 69 q 113 375 113 240 l 113 939 q 121 963 113 954 q 144 972 129 972 l 215 972 q 240 963 231 972 q 249 939 249 954 l 249 372 q 313 171 249 236 q 488 106 376 106 q 662 171 597 106 q 726 372 726 236 l 726 939 q 735 963 726 954 q 758 972 744 972 l 831 972 q 853 963 844 972 q 863 939 863 954 l 863 375 q 817 155 863 240 q 689 28 772 69 q 488 -14 606 -14 m 481 1042 q 456 1044 465 1042 q 435 1057 446 1047 l 274 1189 q 267 1206 267 1196 q 293 1233 267 1233 l 396 1233 q 426 1228 415 1233 q 447 1207 436 1222 l 551 1082 q 558 1064 558 1075 q 536 1042 558 1042 l 481 1042 z "},"Ű":{"ha":974,"x_min":113,"x_max":863,"o":"m 488 -14 q 287 28 371 -14 q 158 155 203 69 q 113 375 113 240 l 113 939 q 121 963 113 954 q 144 972 129 972 l 215 972 q 240 963 231 972 q 249 939 249 954 l 249 372 q 313 171 249 236 q 488 106 376 106 q 662 171 597 106 q 726 372 726 236 l 726 939 q 735 963 726 954 q 758 972 744 972 l 831 972 q 853 963 844 972 q 863 939 863 954 l 863 375 q 817 155 863 240 q 689 28 772 69 q 488 -14 606 -14 m 575 1042 q 553 1064 553 1042 q 556 1075 553 1069 q 560 1085 558 1081 l 615 1207 q 667 1233 628 1233 l 753 1233 q 781 1207 781 1233 q 772 1189 781 1197 l 663 1061 q 619 1042 646 1042 l 575 1042 m 344 1042 q 322 1064 322 1042 q 325 1075 322 1069 q 329 1085 328 1081 l 385 1207 q 436 1233 397 1233 l 522 1233 q 550 1207 550 1233 q 542 1189 550 1197 l 432 1061 q 389 1042 415 1042 l 344 1042 z "},"Ū":{"ha":974,"x_min":113,"x_max":863,"o":"m 488 -14 q 287 28 371 -14 q 158 155 203 69 q 113 375 113 240 l 113 939 q 121 963 113 954 q 144 972 129 972 l 215 972 q 240 963 231 972 q 249 939 249 954 l 249 372 q 313 171 249 236 q 488 106 376 106 q 662 171 597 106 q 726 372 726 236 l 726 939 q 735 963 726 954 q 758 972 744 972 l 831 972 q 853 963 844 972 q 863 939 863 954 l 863 375 q 817 155 863 240 q 689 28 772 69 q 488 -14 606 -14 m 325 1042 q 303 1050 311 1042 q 294 1072 294 1058 l 294 1125 q 303 1147 294 1139 q 325 1156 311 1156 l 649 1156 q 671 1147 663 1156 q 679 1125 679 1139 l 679 1072 q 671 1050 679 1058 q 649 1042 663 1042 l 325 1042 z "},"Ų":{"ha":974,"x_min":113,"x_max":863,"o":"m 581 -306 q 476 -281 519 -306 q 410 -210 432 -256 q 388 -106 388 -165 q 392 -49 388 -72 q 404 -7 396 -25 q 190 104 267 11 q 113 375 113 197 l 113 939 q 121 963 113 954 q 144 972 129 972 l 215 972 q 240 963 231 972 q 249 939 249 954 l 249 372 q 313 171 249 236 q 488 106 376 106 q 662 171 597 106 q 726 372 726 236 l 726 939 q 735 963 726 954 q 758 972 744 972 l 831 972 q 853 963 844 972 q 863 939 863 954 l 863 375 q 828 181 863 260 q 732 55 794 101 q 582 -7 669 8 q 513 -37 539 -15 q 488 -106 488 -58 q 515 -181 488 -153 q 586 -210 542 -210 l 606 -210 q 628 -219 619 -210 q 638 -242 638 -228 l 638 -274 q 628 -297 638 -287 q 606 -306 619 -306 l 581 -306 z "},"Ů":{"ha":974,"x_min":113,"x_max":863,"o":"m 488 -14 q 287 28 371 -14 q 158 155 203 69 q 113 375 113 240 l 113 939 q 121 963 113 954 q 144 972 129 972 l 215 972 q 240 963 231 972 q 249 939 249 954 l 249 372 q 313 171 249 236 q 488 106 376 106 q 662 171 597 106 q 726 372 726 236 l 726 939 q 735 963 726 954 q 758 972 744 972 l 831 972 q 853 963 844 972 q 863 939 863 954 l 863 375 q 817 155 863 240 q 689 28 772 69 q 488 -14 606 -14 m 488 1028 q 406 1058 440 1028 q 371 1138 371 1089 q 405 1216 371 1185 q 488 1247 439 1247 q 570 1216 536 1247 q 604 1138 604 1185 q 570 1058 604 1089 q 488 1028 536 1028 m 488 1096 q 517 1108 506 1096 q 529 1138 529 1119 q 517 1167 529 1156 q 488 1179 506 1179 q 458 1167 469 1179 q 446 1138 446 1156 q 458 1108 446 1119 q 488 1096 469 1096 z "},"Ũ":{"ha":974,"x_min":113,"x_max":863,"o":"m 488 -14 q 287 28 371 -14 q 158 155 203 69 q 113 375 113 240 l 113 939 q 121 963 113 954 q 144 972 129 972 l 215 972 q 240 963 231 972 q 249 939 249 954 l 249 372 q 313 171 249 236 q 488 106 376 106 q 662 171 597 106 q 726 372 726 236 l 726 939 q 735 963 726 954 q 758 972 744 972 l 831 972 q 853 963 844 972 q 863 939 863 954 l 863 375 q 817 155 863 240 q 689 28 772 69 q 488 -14 606 -14 m 560 1035 q 503 1047 526 1035 q 460 1070 479 1058 q 421 1082 442 1082 q 397 1072 404 1082 q 383 1052 389 1063 q 361 1042 376 1042 l 317 1042 q 300 1049 307 1042 q 293 1064 293 1056 q 301 1108 293 1085 q 324 1150 308 1131 q 363 1181 340 1169 q 413 1193 385 1193 q 471 1181 447 1193 q 514 1158 494 1169 q 554 1146 533 1146 q 578 1156 571 1146 q 591 1177 585 1167 q 613 1188 597 1188 l 657 1188 q 675 1181 669 1188 q 681 1164 681 1174 q 672 1122 681 1144 q 648 1079 664 1099 q 610 1047 632 1060 q 560 1035 588 1035 z "},"Ẃ":{"ha":1113,"x_min":61,"x_max":1051,"o":"m 285 0 q 256 10 267 0 q 242 38 246 19 l 63 929 q 61 939 61 935 q 61 944 61 943 q 69 964 61 956 q 89 972 78 972 l 161 972 q 194 949 190 972 l 336 232 l 486 724 q 501 747 490 736 q 531 757 511 757 l 582 757 q 613 747 603 757 q 625 724 622 736 l 776 232 l 917 949 q 951 972 921 972 l 1024 972 q 1043 964 1035 972 q 1051 944 1051 956 q 1051 939 1051 943 q 1050 929 1050 935 l 871 38 q 856 10 867 19 q 828 0 846 0 l 774 0 q 743 10 754 0 q 728 35 732 19 l 556 564 l 385 35 q 369 10 379 19 q 339 0 358 0 l 285 0 m 518 1042 q 496 1064 496 1042 q 503 1082 496 1075 l 607 1207 q 629 1228 619 1222 q 658 1233 639 1233 l 761 1233 q 788 1206 788 1233 q 781 1189 788 1196 l 619 1057 q 599 1044 608 1047 q 574 1042 589 1042 l 518 1042 z "},"Ŵ":{"ha":1113,"x_min":61,"x_max":1051,"o":"m 285 0 q 256 10 267 0 q 242 38 246 19 l 63 929 q 61 939 61 935 q 61 944 61 943 q 69 964 61 956 q 89 972 78 972 l 161 972 q 194 949 190 972 l 336 232 l 486 724 q 501 747 490 736 q 531 757 511 757 l 582 757 q 613 747 603 757 q 625 724 622 736 l 776 232 l 917 949 q 951 972 921 972 l 1024 972 q 1043 964 1035 972 q 1051 944 1051 956 q 1051 939 1051 943 q 1050 929 1050 935 l 871 38 q 856 10 867 19 q 828 0 846 0 l 774 0 q 743 10 754 0 q 728 35 732 19 l 556 564 l 385 35 q 369 10 379 19 q 339 0 358 0 l 285 0 m 365 1042 q 344 1058 344 1042 q 360 1085 344 1069 l 488 1213 q 513 1231 503 1228 q 533 1233 522 1233 l 578 1233 q 600 1231 590 1233 q 624 1213 610 1228 l 751 1085 q 767 1058 767 1069 q 746 1042 767 1042 l 708 1042 q 688 1044 699 1042 q 669 1051 678 1047 l 556 1131 l 442 1051 q 424 1044 435 1047 q 403 1042 413 1042 l 365 1042 z "},"Ẅ":{"ha":1113,"x_min":61,"x_max":1051,"o":"m 285 0 q 256 10 267 0 q 242 38 246 19 l 63 929 q 61 939 61 935 q 61 944 61 943 q 69 964 61 956 q 89 972 78 972 l 161 972 q 194 949 190 972 l 336 232 l 486 724 q 501 747 490 736 q 531 757 511 757 l 582 757 q 613 747 603 757 q 625 724 622 736 l 776 232 l 917 949 q 951 972 921 972 l 1024 972 q 1043 964 1035 972 q 1051 944 1051 956 q 1051 939 1051 943 q 1050 929 1050 935 l 871 38 q 856 10 867 19 q 828 0 846 0 l 774 0 q 743 10 754 0 q 728 35 732 19 l 556 564 l 385 35 q 369 10 379 19 q 339 0 358 0 l 285 0 m 657 1042 q 633 1050 642 1042 q 625 1072 625 1058 l 625 1147 q 633 1170 625 1161 q 657 1179 642 1179 l 732 1179 q 755 1170 746 1179 q 764 1147 764 1161 l 764 1072 q 755 1050 764 1058 q 732 1042 746 1042 l 657 1042 m 379 1042 q 357 1050 365 1042 q 349 1072 349 1058 l 349 1147 q 357 1170 349 1161 q 379 1179 365 1179 l 456 1179 q 478 1170 469 1179 q 488 1147 488 1161 l 488 1072 q 478 1050 488 1058 q 456 1042 469 1042 l 379 1042 z "},"Ẁ":{"ha":1113,"x_min":61,"x_max":1051,"o":"m 285 0 q 256 10 267 0 q 242 38 246 19 l 63 929 q 61 939 61 935 q 61 944 61 943 q 69 964 61 956 q 89 972 78 972 l 161 972 q 194 949 190 972 l 336 232 l 486 724 q 501 747 490 736 q 531 757 511 757 l 582 757 q 613 747 603 757 q 625 724 622 736 l 776 232 l 917 949 q 951 972 921 972 l 1024 972 q 1043 964 1035 972 q 1051 944 1051 956 q 1051 939 1051 943 q 1050 929 1050 935 l 871 38 q 856 10 867 19 q 828 0 846 0 l 774 0 q 743 10 754 0 q 728 35 732 19 l 556 564 l 385 35 q 369 10 379 19 q 339 0 358 0 l 285 0 m 549 1042 q 524 1044 533 1042 q 503 1057 514 1047 l 342 1189 q 335 1206 335 1196 q 361 1233 335 1233 l 464 1233 q 494 1228 483 1233 q 515 1207 504 1222 l 619 1082 q 626 1064 626 1075 q 604 1042 626 1042 l 549 1042 z "},"Ý":{"ha":899,"x_min":42,"x_max":857,"o":"m 413 0 q 390 9 399 0 q 381 32 381 18 l 381 360 l 46 926 q 43 935 44 931 q 42 944 42 939 q 50 964 42 956 q 69 972 58 972 l 142 972 q 164 966 154 972 q 178 949 174 960 l 449 499 l 719 949 q 735 966 726 960 q 757 972 744 972 l 828 972 q 849 964 840 972 q 857 944 857 956 q 856 935 857 939 q 851 926 854 931 l 518 360 l 518 32 q 509 9 518 18 q 485 0 500 0 l 413 0 m 411 1042 q 389 1064 389 1042 q 396 1082 389 1075 l 500 1207 q 522 1228 513 1222 q 551 1233 532 1233 l 654 1233 q 681 1206 681 1233 q 674 1189 681 1196 l 513 1057 q 492 1044 501 1047 q 467 1042 482 1042 l 411 1042 z "},"Ŷ":{"ha":899,"x_min":42,"x_max":857,"o":"m 413 0 q 390 9 399 0 q 381 32 381 18 l 381 360 l 46 926 q 43 935 44 931 q 42 944 42 939 q 50 964 42 956 q 69 972 58 972 l 142 972 q 164 966 154 972 q 178 949 174 960 l 449 499 l 719 949 q 735 966 726 960 q 757 972 744 972 l 828 972 q 849 964 840 972 q 857 944 857 956 q 856 935 857 939 q 851 926 854 931 l 518 360 l 518 32 q 509 9 518 18 q 485 0 500 0 l 413 0 m 258 1042 q 238 1058 238 1042 q 253 1085 238 1069 l 381 1213 q 406 1231 396 1228 q 426 1233 415 1233 l 471 1233 q 493 1231 483 1233 q 517 1213 503 1228 l 644 1085 q 660 1058 660 1069 q 639 1042 660 1042 l 601 1042 q 581 1044 592 1042 q 563 1051 571 1047 l 449 1131 l 335 1051 q 317 1044 328 1047 q 296 1042 306 1042 l 258 1042 z "},"Ÿ":{"ha":899,"x_min":42,"x_max":857,"o":"m 413 0 q 390 9 399 0 q 381 32 381 18 l 381 360 l 46 926 q 43 935 44 931 q 42 944 42 939 q 50 964 42 956 q 69 972 58 972 l 142 972 q 164 966 154 972 q 178 949 174 960 l 449 499 l 719 949 q 735 966 726 960 q 757 972 744 972 l 828 972 q 849 964 840 972 q 857 944 857 956 q 856 935 857 939 q 851 926 854 931 l 518 360 l 518 32 q 509 9 518 18 q 485 0 500 0 l 413 0 m 550 1042 q 526 1050 535 1042 q 518 1072 518 1058 l 518 1147 q 526 1170 518 1161 q 550 1179 535 1179 l 625 1179 q 648 1170 639 1179 q 657 1147 657 1161 l 657 1072 q 648 1050 657 1058 q 625 1042 639 1042 l 550 1042 m 272 1042 q 250 1050 258 1042 q 242 1072 242 1058 l 242 1147 q 250 1170 242 1161 q 272 1179 258 1179 l 349 1179 q 372 1170 363 1179 q 381 1147 381 1161 l 381 1072 q 372 1050 381 1058 q 349 1042 363 1042 l 272 1042 z "},"Ỳ":{"ha":899,"x_min":42,"x_max":857,"o":"m 413 0 q 390 9 399 0 q 381 32 381 18 l 381 360 l 46 926 q 43 935 44 931 q 42 944 42 939 q 50 964 42 956 q 69 972 58 972 l 142 972 q 164 966 154 972 q 178 949 174 960 l 449 499 l 719 949 q 735 966 726 960 q 757 972 744 972 l 828 972 q 849 964 840 972 q 857 944 857 956 q 856 935 857 939 q 851 926 854 931 l 518 360 l 518 32 q 509 9 518 18 q 485 0 500 0 l 413 0 m 442 1042 q 417 1044 426 1042 q 396 1057 407 1047 l 235 1189 q 228 1206 228 1196 q 254 1233 228 1233 l 357 1233 q 387 1228 376 1233 q 408 1207 397 1222 l 513 1082 q 519 1064 519 1075 q 497 1042 519 1042 l 442 1042 z "},"Ź":{"ha":833,"x_min":57,"x_max":778,"o":"m 89 0 q 65 10 74 0 q 57 33 57 19 l 57 93 q 65 126 57 114 q 78 144 74 139 l 594 851 l 101 851 q 78 860 88 851 q 69 883 69 869 l 69 939 q 78 963 69 954 q 101 972 88 972 l 731 972 q 755 963 746 972 q 764 939 764 954 l 764 879 q 758 851 764 863 q 746 831 753 840 l 233 121 l 744 121 q 769 112 760 121 q 778 88 778 103 l 778 32 q 769 9 778 18 q 744 0 760 0 l 89 0 m 365 1042 q 343 1064 343 1042 q 350 1082 343 1075 l 454 1207 q 476 1228 467 1222 q 506 1233 486 1233 l 608 1233 q 635 1206 635 1233 q 628 1189 635 1196 l 467 1057 q 446 1044 456 1047 q 421 1042 436 1042 l 365 1042 z "},"Ž":{"ha":833,"x_min":57,"x_max":778,"o":"m 89 0 q 65 10 74 0 q 57 33 57 19 l 57 93 q 65 126 57 114 q 78 144 74 139 l 594 851 l 101 851 q 78 860 88 851 q 69 883 69 869 l 69 939 q 78 963 69 954 q 101 972 88 972 l 731 972 q 755 963 746 972 q 764 939 764 954 l 764 879 q 758 851 764 863 q 746 831 753 840 l 233 121 l 744 121 q 769 112 760 121 q 778 88 778 103 l 778 32 q 769 9 778 18 q 744 0 760 0 l 89 0 m 382 1042 q 361 1045 371 1042 q 336 1063 351 1049 l 208 1190 q 193 1217 193 1206 q 214 1233 193 1233 l 251 1233 q 272 1231 261 1233 q 290 1224 283 1228 l 404 1144 l 518 1224 q 537 1231 526 1228 q 557 1233 547 1233 l 594 1233 q 615 1217 615 1233 q 600 1190 615 1206 l 472 1063 q 449 1045 458 1049 q 426 1042 439 1042 l 382 1042 z "},"Ż":{"ha":833,"x_min":57,"x_max":778,"o":"m 89 0 q 65 10 74 0 q 57 33 57 19 l 57 93 q 65 126 57 114 q 78 144 74 139 l 594 851 l 101 851 q 78 860 88 851 q 69 883 69 869 l 69 939 q 78 963 69 954 q 101 972 88 972 l 731 972 q 755 963 746 972 q 764 939 764 954 l 764 879 q 758 851 764 863 q 746 831 753 840 l 233 121 l 744 121 q 769 112 760 121 q 778 88 778 103 l 778 32 q 769 9 778 18 q 744 0 760 0 l 89 0 m 357 1042 q 335 1050 343 1042 q 326 1072 326 1058 l 326 1163 q 335 1185 326 1176 q 357 1194 343 1194 l 447 1194 q 470 1185 461 1194 q 479 1163 479 1176 l 479 1072 q 470 1050 479 1058 q 447 1042 461 1042 l 357 1042 z "},"á":{"ha":767,"x_min":51,"x_max":669,"o":"m 304 -14 q 178 14 235 -14 q 86 89 121 42 q 51 196 51 136 q 129 349 51 292 q 332 424 207 406 l 539 453 l 539 493 q 501 597 539 560 q 376 635 463 635 q 276 610 315 635 q 222 546 238 585 q 193 525 214 525 l 131 525 q 108 534 115 525 q 100 556 100 543 q 116 607 100 576 q 165 667 132 638 q 251 716 199 696 q 378 736 303 736 q 518 715 461 736 q 608 657 575 693 q 655 575 640 621 q 669 482 669 529 l 669 32 q 660 9 669 18 q 638 0 651 0 l 574 0 q 550 9 558 0 q 542 32 542 18 l 542 92 q 493 42 524 67 q 417 2 463 18 q 304 -14 371 -14 m 333 90 q 438 115 390 90 q 512 190 485 139 q 539 319 539 242 l 539 358 l 378 335 q 229 288 279 321 q 179 206 179 256 q 202 141 179 167 q 260 103 225 115 q 333 90 296 90 m 318 826 q 296 849 296 826 q 303 867 296 860 l 407 992 q 429 1013 419 1007 q 458 1018 439 1018 l 553 1018 q 579 990 579 1018 q 572 974 579 981 l 411 842 q 390 829 400 832 q 365 826 381 826 l 318 826 z "},"ă":{"ha":767,"x_min":51,"x_max":669,"o":"m 304 -14 q 178 14 235 -14 q 86 89 121 42 q 51 196 51 136 q 129 349 51 292 q 332 424 207 406 l 539 453 l 539 493 q 501 597 539 560 q 376 635 463 635 q 276 610 315 635 q 222 546 238 585 q 193 525 214 525 l 131 525 q 108 534 115 525 q 100 556 100 543 q 116 607 100 576 q 165 667 132 638 q 251 716 199 696 q 378 736 303 736 q 518 715 461 736 q 608 657 575 693 q 655 575 640 621 q 669 482 669 529 l 669 32 q 660 9 669 18 q 638 0 651 0 l 574 0 q 550 9 558 0 q 542 32 542 18 l 542 92 q 493 42 524 67 q 417 2 463 18 q 304 -14 371 -14 m 333 90 q 438 115 390 90 q 512 190 485 139 q 539 319 539 242 l 539 358 l 378 335 q 229 288 279 321 q 179 206 179 256 q 202 141 179 167 q 260 103 225 115 q 333 90 296 90 m 375 819 q 274 844 311 819 q 221 908 236 868 q 206 992 206 947 q 213 1010 206 1003 q 232 1018 219 1018 l 274 1018 q 293 1010 286 1018 q 300 992 300 1003 q 315 931 300 958 q 375 903 331 903 q 435 931 421 903 q 450 992 450 958 q 457 1010 450 1003 q 476 1018 464 1018 l 518 1018 q 538 1010 531 1018 q 544 992 544 1003 q 528 908 544 947 q 476 844 513 868 q 375 819 439 819 z "},"â":{"ha":767,"x_min":51,"x_max":669,"o":"m 304 -14 q 178 14 235 -14 q 86 89 121 42 q 51 196 51 136 q 129 349 51 292 q 332 424 207 406 l 539 453 l 539 493 q 501 597 539 560 q 376 635 463 635 q 276 610 315 635 q 222 546 238 585 q 193 525 214 525 l 131 525 q 108 534 115 525 q 100 556 100 543 q 116 607 100 576 q 165 667 132 638 q 251 716 199 696 q 378 736 303 736 q 518 715 461 736 q 608 657 575 693 q 655 575 640 621 q 669 482 669 529 l 669 32 q 660 9 669 18 q 638 0 651 0 l 574 0 q 550 9 558 0 q 542 32 542 18 l 542 92 q 493 42 524 67 q 417 2 463 18 q 304 -14 371 -14 m 333 90 q 438 115 390 90 q 512 190 485 139 q 539 319 539 242 l 539 358 l 378 335 q 229 288 279 321 q 179 206 179 256 q 202 141 179 167 q 260 103 225 115 q 333 90 296 90 m 185 826 q 164 843 164 826 q 179 869 164 854 l 307 997 q 331 1015 321 1013 q 353 1018 342 1018 l 394 1018 q 417 1015 407 1018 q 440 997 426 1013 l 568 869 q 583 843 583 854 q 563 826 583 826 l 526 826 q 506 829 517 826 q 488 836 494 832 l 374 915 l 260 836 q 242 829 253 832 q 221 826 231 826 l 185 826 z "},"ä":{"ha":767,"x_min":51,"x_max":669,"o":"m 304 -14 q 178 14 235 -14 q 86 89 121 42 q 51 196 51 136 q 129 349 51 292 q 332 424 207 406 l 539 453 l 539 493 q 501 597 539 560 q 376 635 463 635 q 276 610 315 635 q 222 546 238 585 q 193 525 214 525 l 131 525 q 108 534 115 525 q 100 556 100 543 q 116 607 100 576 q 165 667 132 638 q 251 716 199 696 q 378 736 303 736 q 518 715 461 736 q 608 657 575 693 q 655 575 640 621 q 669 482 669 529 l 669 32 q 660 9 669 18 q 638 0 651 0 l 574 0 q 550 9 558 0 q 542 32 542 18 l 542 92 q 493 42 524 67 q 417 2 463 18 q 304 -14 371 -14 m 333 90 q 438 115 390 90 q 512 190 485 139 q 539 319 539 242 l 539 358 l 378 335 q 229 288 279 321 q 179 206 179 256 q 202 141 179 167 q 260 103 225 115 q 333 90 296 90 m 460 863 q 436 871 444 863 q 428 893 428 879 l 428 968 q 436 991 428 982 q 460 1000 444 1000 l 535 1000 q 558 991 549 1000 q 567 968 567 982 l 567 893 q 558 871 567 879 q 535 863 549 863 l 460 863 m 224 863 q 201 871 210 863 q 193 893 193 879 l 193 968 q 201 991 193 982 q 224 1000 210 1000 l 300 1000 q 323 991 314 1000 q 332 968 332 982 l 332 893 q 323 871 332 879 q 300 863 314 863 l 224 863 z "},"à":{"ha":767,"x_min":51,"x_max":669,"o":"m 304 -14 q 178 14 235 -14 q 86 89 121 42 q 51 196 51 136 q 129 349 51 292 q 332 424 207 406 l 539 453 l 539 493 q 501 597 539 560 q 376 635 463 635 q 276 610 315 635 q 222 546 238 585 q 193 525 214 525 l 131 525 q 108 534 115 525 q 100 556 100 543 q 116 607 100 576 q 165 667 132 638 q 251 716 199 696 q 378 736 303 736 q 518 715 461 736 q 608 657 575 693 q 655 575 640 621 q 669 482 669 529 l 669 32 q 660 9 669 18 q 638 0 651 0 l 574 0 q 550 9 558 0 q 542 32 542 18 l 542 92 q 493 42 524 67 q 417 2 463 18 q 304 -14 371 -14 m 333 90 q 438 115 390 90 q 512 190 485 139 q 539 319 539 242 l 539 358 l 378 335 q 229 288 279 321 q 179 206 179 256 q 202 141 179 167 q 260 103 225 115 q 333 90 296 90 m 375 826 q 350 829 360 826 q 329 842 340 832 l 168 974 q 161 990 161 981 q 188 1018 161 1018 l 282 1018 q 311 1013 301 1018 q 333 992 321 1007 l 438 867 q 444 849 444 860 q 422 826 444 826 l 375 826 z "},"ā":{"ha":767,"x_min":51,"x_max":669,"o":"m 304 -14 q 178 14 235 -14 q 86 89 121 42 q 51 196 51 136 q 129 349 51 292 q 332 424 207 406 l 539 453 l 539 493 q 501 597 539 560 q 376 635 463 635 q 276 610 315 635 q 222 546 238 585 q 193 525 214 525 l 131 525 q 108 534 115 525 q 100 556 100 543 q 116 607 100 576 q 165 667 132 638 q 251 716 199 696 q 378 736 303 736 q 518 715 461 736 q 608 657 575 693 q 655 575 640 621 q 669 482 669 529 l 669 32 q 660 9 669 18 q 638 0 651 0 l 574 0 q 550 9 558 0 q 542 32 542 18 l 542 92 q 493 42 524 67 q 417 2 463 18 q 304 -14 371 -14 m 333 90 q 438 115 390 90 q 512 190 485 139 q 539 319 539 242 l 539 358 l 378 335 q 229 288 279 321 q 179 206 179 256 q 202 141 179 167 q 260 103 225 115 q 333 90 296 90 m 219 857 q 197 865 206 857 q 189 888 189 874 l 189 931 q 197 953 189 944 q 219 961 206 961 l 529 961 q 553 953 544 961 q 561 931 561 944 l 561 888 q 553 865 561 874 q 529 857 544 857 l 219 857 z "},"ą":{"ha":767,"x_min":51,"x_max":669,"o":"m 624 -306 q 536 -283 575 -306 q 475 -217 497 -260 q 453 -114 453 -174 q 467 -46 453 -76 q 504 7 482 -15 q 546 39 526 29 q 543 44 544 42 q 542 50 542 46 l 542 92 q 493 42 524 67 q 417 2 463 18 q 304 -14 371 -14 q 178 14 235 -14 q 86 89 121 42 q 51 196 51 136 q 129 349 51 292 q 332 424 207 406 l 539 453 l 539 493 q 501 597 539 560 q 376 635 463 635 q 299 621 331 635 q 249 588 268 607 q 218 549 229 568 q 206 531 213 536 q 190 525 200 525 l 131 525 q 109 534 118 525 q 100 556 100 543 q 116 607 100 576 q 165 667 132 638 q 251 716 199 696 q 378 736 303 736 q 518 715 461 736 q 608 657 575 693 q 655 575 640 621 q 669 482 669 529 l 669 32 q 664 15 669 22 q 647 1 658 7 l 640 0 q 574 -44 596 -17 q 553 -114 553 -71 q 573 -185 553 -161 q 629 -210 593 -210 l 638 -210 q 660 -219 651 -210 q 669 -242 669 -228 l 669 -274 q 660 -297 669 -287 q 638 -306 651 -306 l 624 -306 m 333 90 q 438 115 390 90 q 512 190 485 139 q 539 319 539 242 l 539 358 l 378 335 q 229 288 279 321 q 179 206 179 256 q 202 141 179 167 q 260 103 225 115 q 333 90 296 90 z "},"å":{"ha":767,"x_min":51,"x_max":669,"o":"m 304 -14 q 178 14 235 -14 q 86 89 121 42 q 51 196 51 136 q 129 349 51 292 q 332 424 207 406 l 539 453 l 539 493 q 501 597 539 560 q 376 635 463 635 q 276 610 315 635 q 222 546 238 585 q 193 525 214 525 l 131 525 q 108 534 115 525 q 100 556 100 543 q 116 607 100 576 q 165 667 132 638 q 251 716 199 696 q 378 736 303 736 q 518 715 461 736 q 608 657 575 693 q 655 575 640 621 q 669 482 669 529 l 669 32 q 660 9 669 18 q 638 0 651 0 l 574 0 q 550 9 558 0 q 542 32 542 18 l 542 92 q 493 42 524 67 q 417 2 463 18 q 304 -14 371 -14 m 333 90 q 438 115 390 90 q 512 190 485 139 q 539 319 539 242 l 539 358 l 378 335 q 229 288 279 321 q 179 206 179 256 q 202 141 179 167 q 260 103 225 115 q 333 90 296 90 m 374 819 q 292 850 326 819 q 257 929 257 881 q 291 1008 257 976 q 374 1039 325 1039 q 456 1008 422 1039 q 490 929 490 976 q 456 850 490 881 q 374 819 422 819 m 374 888 q 403 899 392 888 q 415 929 415 911 q 403 959 415 947 q 374 971 392 971 q 344 959 356 971 q 332 929 332 947 q 344 899 332 911 q 374 888 356 888 z "},"ã":{"ha":767,"x_min":51,"x_max":669,"o":"m 304 -14 q 178 14 235 -14 q 86 89 121 42 q 51 196 51 136 q 129 349 51 292 q 332 424 207 406 l 539 453 l 539 493 q 501 597 539 560 q 376 635 463 635 q 276 610 315 635 q 222 546 238 585 q 193 525 214 525 l 131 525 q 108 534 115 525 q 100 556 100 543 q 116 607 100 576 q 165 667 132 638 q 251 716 199 696 q 378 736 303 736 q 518 715 461 736 q 608 657 575 693 q 655 575 640 621 q 669 482 669 529 l 669 32 q 660 9 669 18 q 638 0 651 0 l 574 0 q 550 9 558 0 q 542 32 542 18 l 542 92 q 493 42 524 67 q 417 2 463 18 q 304 -14 371 -14 m 333 90 q 438 115 390 90 q 512 190 485 139 q 539 319 539 242 l 539 358 l 378 335 q 229 288 279 321 q 179 206 179 256 q 202 141 179 167 q 260 103 225 115 q 333 90 296 90 m 446 819 q 390 831 411 819 q 352 855 369 843 q 314 867 335 867 q 290 857 297 867 q 276 837 282 847 q 254 826 269 826 l 210 826 q 193 833 200 826 q 186 849 186 840 q 194 891 186 869 q 217 931 201 913 q 253 961 232 950 q 301 972 275 972 q 358 960 338 972 q 397 937 379 949 q 436 925 415 925 q 460 935 453 925 q 473 956 467 946 q 494 967 479 967 l 539 967 q 556 960 550 967 q 563 943 563 953 q 555 901 563 924 q 532 860 547 879 q 495 831 517 842 q 446 819 474 819 z "},"æ":{"ha":1238,"x_min":53,"x_max":1174,"o":"m 311 -14 q 175 14 233 -14 q 85 89 117 42 q 53 196 53 136 q 131 350 53 292 q 333 426 208 408 l 539 456 l 539 493 q 501 597 539 560 q 378 635 464 635 q 300 621 332 635 q 249 588 268 607 q 218 549 229 568 q 206 531 213 536 q 190 525 200 525 l 131 525 q 109 534 118 525 q 100 556 100 543 q 116 607 100 576 q 165 667 132 638 q 251 716 197 696 q 379 736 304 736 q 536 705 479 736 q 621 628 593 674 q 716 706 658 675 q 857 736 774 736 q 1017 702 954 736 q 1113 613 1079 668 q 1160 494 1146 557 q 1174 374 1174 432 l 1174 350 q 1164 326 1174 335 q 1140 318 1154 318 l 672 318 l 672 306 q 702 179 675 226 q 771 110 729 132 q 856 89 813 89 q 946 108 901 89 q 1019 168 990 126 q 1038 188 1031 183 q 1063 192 1046 192 l 1125 192 q 1154 163 1154 192 q 1136 116 1154 146 q 1081 57 1118 86 q 987 7 1043 28 q 856 -14 931 -14 q 693 25 757 -14 q 593 126 629 64 q 477 20 549 54 q 311 -14 406 -14 m 335 90 q 438 115 392 90 q 513 190 485 139 q 540 319 540 242 l 540 358 l 379 335 q 231 288 281 321 q 181 206 181 256 q 203 141 181 167 q 261 103 225 115 q 335 90 297 90 m 672 414 l 1040 414 l 1040 419 q 995 574 1040 513 q 857 635 950 635 q 769 611 810 635 q 701 540 728 588 q 672 419 675 493 l 672 414 z "},"ǽ":{"ha":1238,"x_min":53,"x_max":1174,"o":"m 581 826 q 558 849 558 826 q 565 867 558 860 l 669 992 q 692 1013 682 1007 q 721 1018 701 1018 l 815 1018 q 842 990 842 1018 q 835 974 842 981 l 674 842 q 653 829 663 832 q 628 826 643 826 l 581 826 m 311 -14 q 175 14 233 -14 q 85 89 117 42 q 53 196 53 136 q 131 350 53 292 q 333 426 208 408 l 539 456 l 539 493 q 501 597 539 560 q 378 635 464 635 q 300 621 332 635 q 249 588 268 607 q 218 549 229 568 q 206 531 213 536 q 190 525 200 525 l 131 525 q 109 534 118 525 q 100 556 100 543 q 116 607 100 576 q 165 667 132 638 q 251 716 197 696 q 379 736 304 736 q 536 705 479 736 q 621 628 593 674 q 716 706 658 675 q 857 736 774 736 q 1017 702 954 736 q 1113 613 1079 668 q 1160 494 1146 557 q 1174 374 1174 432 l 1174 350 q 1164 326 1174 335 q 1140 318 1154 318 l 672 318 l 672 306 q 702 179 675 226 q 771 110 729 132 q 856 89 813 89 q 946 108 901 89 q 1019 168 990 126 q 1038 188 1031 183 q 1063 192 1046 192 l 1125 192 q 1154 163 1154 192 q 1136 116 1154 146 q 1081 57 1118 86 q 987 7 1043 28 q 856 -14 931 -14 q 693 25 757 -14 q 593 126 629 64 q 477 20 549 54 q 311 -14 406 -14 m 335 90 q 438 115 392 90 q 513 190 485 139 q 540 319 540 242 l 540 358 l 379 335 q 231 288 281 321 q 181 206 181 256 q 203 141 181 167 q 261 103 225 115 q 335 90 297 90 m 672 414 l 1040 414 l 1040 419 q 995 574 1040 513 q 857 635 950 635 q 769 611 810 635 q 701 540 728 588 q 672 419 675 493 l 672 414 z "},"ć":{"ha":767,"x_min":71,"x_max":706,"o":"m 394 -14 q 224 24 296 -14 q 114 134 153 63 q 72 306 75 206 q 71 361 71 326 q 72 417 71 396 q 114 588 75 517 q 224 698 153 660 q 394 736 296 736 q 533 714 475 736 q 628 657 590 692 q 684 582 665 622 q 704 506 703 542 q 696 483 706 492 q 672 475 686 475 l 606 475 q 585 481 592 475 q 571 503 578 488 q 503 599 546 571 q 396 626 460 626 q 260 575 313 626 q 204 410 208 524 q 204 313 203 360 q 260 147 208 197 q 396 96 313 96 q 503 124 460 96 q 571 219 546 151 q 585 242 578 235 q 606 249 592 249 l 672 249 q 696 240 686 249 q 704 217 706 231 q 692 157 703 188 q 656 95 681 126 q 596 40 632 64 q 510 1 560 15 q 394 -14 460 -14 m 343 826 q 321 849 321 826 q 328 867 321 860 l 432 992 q 454 1013 444 1007 q 483 1018 464 1018 l 578 1018 q 604 990 604 1018 q 597 974 604 981 l 436 842 q 415 829 425 832 q 390 826 406 826 l 343 826 z "},"č":{"ha":767,"x_min":71,"x_max":706,"o":"m 394 -14 q 224 24 296 -14 q 114 134 153 63 q 72 306 75 206 q 71 361 71 326 q 72 417 71 396 q 114 588 75 517 q 224 698 153 660 q 394 736 296 736 q 533 714 475 736 q 628 657 590 692 q 684 582 665 622 q 704 506 703 542 q 696 483 706 492 q 672 475 686 475 l 606 475 q 585 481 592 475 q 571 503 578 488 q 503 599 546 571 q 396 626 460 626 q 260 575 313 626 q 204 410 208 524 q 204 313 203 360 q 260 147 208 197 q 396 96 313 96 q 503 124 460 96 q 571 219 546 151 q 585 242 578 235 q 606 249 592 249 l 672 249 q 696 240 686 249 q 704 217 706 231 q 692 157 703 188 q 656 95 681 126 q 596 40 632 64 q 510 1 560 15 q 394 -14 460 -14 m 368 826 q 347 830 357 826 q 322 847 336 833 l 194 975 q 179 1001 179 990 q 200 1018 179 1018 l 236 1018 q 257 1015 246 1018 q 275 1008 268 1013 l 389 929 l 503 1008 q 521 1015 510 1013 q 542 1018 532 1018 l 578 1018 q 599 1001 599 1018 q 583 975 599 990 l 456 847 q 432 830 442 833 q 410 826 422 826 l 368 826 z "},"ç":{"ha":767,"x_min":71,"x_max":706,"o":"m 392 -306 q 323 -292 353 -304 q 280 -262 293 -279 q 279 -235 267 -246 l 300 -215 q 322 -210 313 -204 q 347 -226 332 -217 q 392 -236 363 -236 q 431 -222 414 -236 q 447 -185 447 -208 q 431 -149 447 -162 q 392 -136 414 -136 q 356 -142 371 -136 q 331 -149 342 -147 q 310 -140 321 -151 l 286 -115 q 283 -96 279 -107 q 292 -74 286 -85 l 319 -7 q 141 94 206 13 q 72 306 76 175 q 71 361 71 326 q 72 417 71 396 q 114 588 75 517 q 224 698 153 660 q 394 736 296 736 q 533 714 475 736 q 628 657 590 692 q 684 582 665 622 q 704 506 703 542 q 696 483 706 492 q 672 475 686 475 l 606 475 q 585 481 592 475 q 571 503 578 488 q 503 599 546 571 q 396 626 460 626 q 260 575 313 626 q 204 410 208 524 q 204 313 203 360 q 260 147 208 197 q 396 96 313 96 q 503 124 460 96 q 571 219 546 151 q 585 242 578 235 q 606 249 592 249 l 672 249 q 696 240 686 249 q 704 217 706 231 q 684 142 703 182 q 629 67 665 101 q 535 9 593 32 q 396 -14 478 -14 l 365 -78 q 388 -69 374 -72 q 417 -67 403 -67 q 494 -99 464 -67 q 524 -183 524 -132 q 490 -270 524 -233 q 392 -306 456 -307 z "},"ĉ":{"ha":767,"x_min":71,"x_max":706,"o":"m 394 -14 q 224 24 296 -14 q 114 134 153 63 q 72 306 75 206 q 71 361 71 326 q 72 417 71 396 q 114 588 75 517 q 224 698 153 660 q 394 736 296 736 q 533 714 475 736 q 628 657 590 692 q 684 582 665 622 q 704 506 703 542 q 696 483 706 492 q 672 475 686 475 l 606 475 q 585 481 592 475 q 571 503 578 488 q 503 599 546 571 q 396 626 460 626 q 260 575 313 626 q 204 410 208 524 q 204 313 203 360 q 260 147 208 197 q 396 96 313 96 q 503 124 460 96 q 571 219 546 151 q 585 242 578 235 q 606 249 592 249 l 672 249 q 696 240 686 249 q 704 217 706 231 q 692 157 703 188 q 656 95 681 126 q 596 40 632 64 q 510 1 560 15 q 394 -14 460 -14 m 200 838 q 179 854 179 838 q 194 881 179 865 l 322 1008 q 347 1026 336 1024 q 368 1029 357 1029 l 410 1029 q 432 1026 422 1029 q 456 1008 442 1024 l 583 881 q 599 854 599 865 q 578 838 599 838 l 542 838 q 521 840 532 838 q 503 847 510 843 l 389 926 l 275 847 q 257 840 268 843 q 236 838 246 838 l 200 838 z "},"ċ":{"ha":767,"x_min":71,"x_max":706,"o":"m 394 -14 q 224 24 296 -14 q 114 134 153 63 q 72 306 75 206 q 71 361 71 326 q 72 417 71 396 q 114 588 75 517 q 224 698 153 660 q 394 736 296 736 q 533 714 475 736 q 628 657 590 692 q 684 582 665 622 q 704 506 703 542 q 696 483 706 492 q 672 475 686 475 l 606 475 q 585 481 592 475 q 571 503 578 488 q 503 599 546 571 q 396 626 460 626 q 260 575 313 626 q 204 410 208 524 q 204 313 203 360 q 260 147 208 197 q 396 96 313 96 q 503 124 460 96 q 571 219 546 151 q 585 242 578 235 q 606 249 592 249 l 672 249 q 696 240 686 249 q 704 217 706 231 q 692 157 703 188 q 656 95 681 126 q 596 40 632 64 q 510 1 560 15 q 394 -14 460 -14 m 343 851 q 321 860 329 851 q 313 882 313 868 l 313 971 q 321 994 313 985 q 343 1003 329 1003 l 432 1003 q 455 994 446 1003 q 464 971 464 985 l 464 882 q 455 860 464 868 q 432 851 446 851 l 343 851 z "},"ð":{"ha":788,"x_min":68,"x_max":714,"o":"m 390 -14 q 214 28 286 -14 q 105 147 142 71 q 68 321 68 222 q 106 494 68 419 q 215 611 143 569 q 390 653 288 653 q 475 642 436 653 q 543 608 514 631 q 463 761 514 694 l 322 707 q 306 703 313 703 q 286 709 294 703 q 278 728 278 715 l 278 757 q 285 781 278 774 q 308 794 292 789 l 399 829 q 351 872 376 850 q 299 914 325 893 q 281 932 286 925 q 276 944 276 939 q 284 965 276 957 q 304 972 292 972 l 376 972 q 408 967 394 972 q 431 954 421 963 q 476 915 454 935 q 517 874 497 894 l 646 924 q 663 928 657 928 q 683 922 675 928 q 690 903 690 915 l 690 874 q 683 851 690 858 q 660 836 676 843 l 579 806 q 676 618 640 728 q 713 338 711 508 q 714 327 714 332 q 713 317 714 322 q 674 144 713 219 q 565 28 636 69 q 390 -14 494 -14 m 390 93 q 496 122 454 93 q 559 201 538 151 q 581 310 581 250 q 581 319 581 315 q 581 329 581 324 q 560 438 581 389 q 497 517 539 488 q 390 546 456 546 q 284 517 326 546 q 221 438 242 488 q 200 329 200 389 q 200 318 200 322 q 200 308 200 314 q 223 200 201 249 q 286 122 244 151 q 390 93 328 93 z "},"ď":{"ha":826,"x_min":69,"x_max":971,"o":"m 367 -14 q 235 13 290 -14 q 144 87 179 40 q 91 193 108 133 q 71 319 74 253 q 69 361 69 342 q 71 403 69 381 q 91 528 74 468 q 144 635 108 588 q 235 709 179 682 q 367 736 290 736 q 503 707 449 736 q 592 635 557 678 l 592 954 q 601 977 592 968 q 624 986 610 986 l 690 986 q 713 977 704 986 q 722 954 722 968 l 722 32 q 713 9 722 18 q 690 0 704 0 l 628 0 q 604 9 613 0 q 596 32 596 18 l 596 90 q 506 16 561 46 q 367 -14 450 -14 m 396 99 q 507 131 465 99 q 569 212 549 163 q 592 313 590 261 q 593 366 593 335 q 592 419 593 397 q 569 515 590 468 q 505 593 547 563 q 396 624 463 624 q 283 592 325 624 q 224 510 242 561 q 203 401 206 460 q 203 321 201 361 q 224 212 206 263 q 283 130 242 161 q 396 99 325 99 m 819 754 q 803 763 808 754 q 799 783 797 771 l 822 946 q 834 974 825 963 q 863 986 843 986 l 949 986 q 966 978 960 986 q 972 963 972 971 q 967 940 972 951 l 908 786 q 894 763 903 772 q 867 754 885 754 l 819 754 z "},"đ":{"ha":826,"x_min":71,"x_max":829,"o":"m 368 -14 q 226 16 282 -14 q 136 95 169 46 q 88 203 103 144 q 72 319 74 263 q 71 361 71 342 q 72 403 71 381 q 88 518 74 460 q 136 626 103 576 q 226 706 169 676 q 368 736 282 736 q 503 707 449 736 q 593 635 558 678 l 593 788 l 519 788 q 497 796 506 788 q 488 819 488 804 l 488 849 q 497 872 488 863 q 519 881 506 881 l 593 881 l 593 954 q 601 977 593 968 q 625 986 610 986 l 692 986 q 715 977 706 986 q 724 954 724 968 l 724 881 l 797 881 q 820 872 811 881 q 829 849 829 863 l 829 819 q 820 796 829 804 q 797 788 811 788 l 724 788 l 724 32 q 715 9 724 18 q 692 0 706 0 l 628 0 q 605 9 614 0 q 596 32 596 18 l 596 93 q 507 17 563 47 q 368 -14 451 -14 m 397 99 q 508 131 465 99 q 571 212 550 163 q 593 313 592 261 q 594 366 594 335 q 593 419 594 397 q 570 515 592 468 q 506 593 549 563 q 397 624 464 624 q 285 592 326 624 q 225 510 243 561 q 204 401 207 460 q 204 321 203 361 q 225 212 207 263 q 285 130 243 161 q 397 99 326 99 z "},"é":{"ha":778,"x_min":68,"x_max":714,"o":"m 392 -14 q 163 74 247 -14 q 69 315 78 163 q 68 362 68 333 q 69 408 68 390 q 115 581 75 507 q 226 696 156 656 q 390 736 296 736 q 567 692 496 736 q 676 565 639 647 q 714 374 714 483 l 714 350 q 705 326 714 335 q 682 318 696 318 l 201 318 q 201 313 201 317 q 201 306 201 308 q 226 199 204 249 q 291 119 249 150 q 390 89 333 89 q 474 104 440 89 q 528 138 507 119 q 556 168 549 157 q 575 188 568 185 q 597 192 582 192 l 665 192 q 687 184 678 192 q 694 163 696 176 q 672 112 693 142 q 613 53 651 82 q 519 5 575 24 q 392 -14 463 -14 m 201 414 l 582 414 l 582 418 q 559 529 582 481 q 493 606 536 578 q 390 635 450 635 q 288 606 331 635 q 224 529 246 578 q 201 418 201 481 l 201 414 m 353 826 q 331 849 331 826 q 338 867 331 860 l 442 992 q 464 1013 454 1007 q 493 1018 474 1018 l 588 1018 q 614 990 614 1018 q 607 974 614 981 l 446 842 q 425 829 435 832 q 400 826 415 826 l 353 826 z "},"ĕ":{"ha":778,"x_min":68,"x_max":714,"o":"m 392 -14 q 163 74 247 -14 q 69 315 78 163 q 68 362 68 333 q 69 408 68 390 q 115 581 75 507 q 226 696 156 656 q 390 736 296 736 q 567 692 496 736 q 676 565 639 647 q 714 374 714 483 l 714 350 q 705 326 714 335 q 682 318 696 318 l 201 318 q 201 313 201 317 q 201 306 201 308 q 226 199 204 249 q 291 119 249 150 q 390 89 333 89 q 474 104 440 89 q 528 138 507 119 q 556 168 549 157 q 575 188 568 185 q 597 192 582 192 l 665 192 q 687 184 678 192 q 694 163 696 176 q 672 112 693 142 q 613 53 651 82 q 519 5 575 24 q 392 -14 463 -14 m 201 414 l 582 414 l 582 418 q 559 529 582 481 q 493 606 536 578 q 390 635 450 635 q 288 606 331 635 q 224 529 246 578 q 201 418 201 481 l 201 414 m 390 819 q 289 844 326 819 q 236 908 251 868 q 221 992 221 947 q 228 1010 221 1003 q 247 1018 235 1018 l 289 1018 q 308 1010 301 1018 q 315 992 315 1003 q 331 931 315 958 q 390 903 346 903 q 451 931 436 903 q 465 992 465 958 q 472 1010 465 1003 q 492 1018 479 1018 l 533 1018 q 553 1010 546 1018 q 560 992 560 1003 q 544 908 560 947 q 491 844 528 868 q 390 819 454 819 z "},"ě":{"ha":778,"x_min":68,"x_max":714,"o":"m 392 -14 q 163 74 247 -14 q 69 315 78 163 q 68 362 68 333 q 69 408 68 390 q 115 581 75 507 q 226 696 156 656 q 390 736 296 736 q 567 692 496 736 q 676 565 639 647 q 714 374 714 483 l 714 350 q 705 326 714 335 q 682 318 696 318 l 201 318 q 201 313 201 317 q 201 306 201 308 q 226 199 204 249 q 291 119 249 150 q 390 89 333 89 q 474 104 440 89 q 528 138 507 119 q 556 168 549 157 q 575 188 568 185 q 597 192 582 192 l 665 192 q 687 184 678 192 q 694 163 696 176 q 672 112 693 142 q 613 53 651 82 q 519 5 575 24 q 392 -14 463 -14 m 201 414 l 582 414 l 582 418 q 559 529 582 481 q 493 606 536 578 q 390 635 450 635 q 288 606 331 635 q 224 529 246 578 q 201 418 201 481 l 201 414 m 369 826 q 348 830 358 826 q 324 847 338 833 l 196 975 q 181 1001 181 990 q 201 1018 181 1018 l 238 1018 q 258 1015 247 1018 q 276 1008 269 1013 l 390 929 l 504 1008 q 522 1015 511 1013 q 543 1018 533 1018 l 579 1018 q 600 1001 600 1018 q 585 975 600 990 l 457 847 q 433 830 443 833 q 411 826 424 826 l 369 826 z "},"ê":{"ha":778,"x_min":68,"x_max":714,"o":"m 392 -14 q 163 74 247 -14 q 69 315 78 163 q 68 362 68 333 q 69 408 68 390 q 115 581 75 507 q 226 696 156 656 q 390 736 296 736 q 567 692 496 736 q 676 565 639 647 q 714 374 714 483 l 714 350 q 705 326 714 335 q 682 318 696 318 l 201 318 q 201 313 201 317 q 201 306 201 308 q 226 199 204 249 q 291 119 249 150 q 390 89 333 89 q 474 104 440 89 q 528 138 507 119 q 556 168 549 157 q 575 188 568 185 q 597 192 582 192 l 665 192 q 687 184 678 192 q 694 163 696 176 q 672 112 693 142 q 613 53 651 82 q 519 5 575 24 q 392 -14 463 -14 m 201 414 l 582 414 l 582 418 q 559 529 582 481 q 493 606 536 578 q 390 635 450 635 q 288 606 331 635 q 224 529 246 578 q 201 418 201 481 l 201 414 m 201 826 q 181 843 181 826 q 196 869 181 854 l 324 997 q 348 1015 338 1013 q 369 1018 358 1018 l 411 1018 q 433 1015 424 1018 q 457 997 443 1013 l 585 869 q 600 843 600 854 q 579 826 600 826 l 543 826 q 522 829 533 826 q 504 836 511 832 l 390 915 l 276 836 q 258 829 269 832 q 238 826 247 826 l 201 826 z "},"ë":{"ha":778,"x_min":68,"x_max":714,"o":"m 392 -14 q 163 74 247 -14 q 69 315 78 163 q 68 362 68 333 q 69 408 68 390 q 115 581 75 507 q 226 696 156 656 q 390 736 296 736 q 567 692 496 736 q 676 565 639 647 q 714 374 714 483 l 714 350 q 705 326 714 335 q 682 318 696 318 l 201 318 q 201 313 201 317 q 201 306 201 308 q 226 199 204 249 q 291 119 249 150 q 390 89 333 89 q 474 104 440 89 q 528 138 507 119 q 556 168 549 157 q 575 188 568 185 q 597 192 582 192 l 665 192 q 687 184 678 192 q 694 163 696 176 q 672 112 693 142 q 613 53 651 82 q 519 5 575 24 q 392 -14 463 -14 m 201 414 l 582 414 l 582 418 q 559 529 582 481 q 493 606 536 578 q 390 635 450 635 q 288 606 331 635 q 224 529 246 578 q 201 418 201 481 l 201 414 m 471 863 q 447 871 456 863 q 439 893 439 879 l 439 968 q 447 991 439 982 q 471 1000 456 1000 l 546 1000 q 569 991 560 1000 q 578 968 578 982 l 578 893 q 569 871 578 879 q 546 863 560 863 l 471 863 m 235 863 q 213 871 221 863 q 204 893 204 879 l 204 968 q 213 991 204 982 q 235 1000 221 1000 l 311 1000 q 334 991 325 1000 q 343 968 343 982 l 343 893 q 334 871 343 879 q 311 863 325 863 l 235 863 z "},"ė":{"ha":778,"x_min":68,"x_max":714,"o":"m 392 -14 q 163 74 247 -14 q 69 315 78 163 q 68 362 68 333 q 69 408 68 390 q 115 581 75 507 q 226 696 156 656 q 390 736 296 736 q 567 692 496 736 q 676 565 639 647 q 714 374 714 483 l 714 350 q 705 326 714 335 q 682 318 696 318 l 201 318 q 201 313 201 317 q 201 306 201 308 q 226 199 204 249 q 291 119 249 150 q 390 89 333 89 q 474 104 440 89 q 528 138 507 119 q 556 168 549 157 q 575 188 568 185 q 597 192 582 192 l 665 192 q 687 184 678 192 q 694 163 696 176 q 672 112 693 142 q 613 53 651 82 q 519 5 575 24 q 392 -14 463 -14 m 201 414 l 582 414 l 582 418 q 559 529 582 481 q 493 606 536 578 q 390 635 450 635 q 288 606 331 635 q 224 529 246 578 q 201 418 201 481 l 201 414 m 346 851 q 324 860 332 851 q 315 882 315 868 l 315 971 q 324 994 315 985 q 346 1003 332 1003 l 435 1003 q 458 994 449 1003 q 467 971 467 985 l 467 882 q 458 860 467 868 q 435 851 449 851 l 346 851 z "},"è":{"ha":778,"x_min":68,"x_max":714,"o":"m 392 -14 q 163 74 247 -14 q 69 315 78 163 q 68 362 68 333 q 69 408 68 390 q 115 581 75 507 q 226 696 156 656 q 390 736 296 736 q 567 692 496 736 q 676 565 639 647 q 714 374 714 483 l 714 350 q 705 326 714 335 q 682 318 696 318 l 201 318 q 201 313 201 317 q 201 306 201 308 q 226 199 204 249 q 291 119 249 150 q 390 89 333 89 q 474 104 440 89 q 528 138 507 119 q 556 168 549 157 q 575 188 568 185 q 597 192 582 192 l 665 192 q 687 184 678 192 q 694 163 696 176 q 672 112 693 142 q 613 53 651 82 q 519 5 575 24 q 392 -14 463 -14 m 201 414 l 582 414 l 582 418 q 559 529 582 481 q 493 606 536 578 q 390 635 450 635 q 288 606 331 635 q 224 529 246 578 q 201 418 201 481 l 201 414 m 385 826 q 360 829 369 826 q 339 842 350 832 l 178 974 q 171 990 171 981 q 197 1018 171 1018 l 292 1018 q 321 1013 311 1018 q 343 992 331 1007 l 447 867 q 454 849 454 860 q 432 826 454 826 l 385 826 z "},"ē":{"ha":778,"x_min":68,"x_max":714,"o":"m 392 -14 q 163 74 247 -14 q 69 315 78 163 q 68 362 68 333 q 69 408 68 390 q 115 581 75 507 q 226 696 156 656 q 390 736 296 736 q 567 692 496 736 q 676 565 639 647 q 714 374 714 483 l 714 350 q 705 326 714 335 q 682 318 696 318 l 201 318 q 201 313 201 317 q 201 306 201 308 q 226 199 204 249 q 291 119 249 150 q 390 89 333 89 q 474 104 440 89 q 528 138 507 119 q 556 168 549 157 q 575 188 568 185 q 597 192 582 192 l 665 192 q 687 184 678 192 q 694 163 696 176 q 672 112 693 142 q 613 53 651 82 q 519 5 575 24 q 392 -14 463 -14 m 201 414 l 582 414 l 582 418 q 559 529 582 481 q 493 606 536 578 q 390 635 450 635 q 288 606 331 635 q 224 529 246 578 q 201 418 201 481 l 201 414 m 236 857 q 214 865 222 857 q 206 888 206 874 l 206 931 q 214 953 206 944 q 236 961 222 961 l 546 961 q 569 953 561 961 q 578 931 578 944 l 578 888 q 569 865 578 874 q 546 857 561 857 l 236 857 z "},"ę":{"ha":779,"x_min":69,"x_max":715,"o":"m 464 -306 q 359 -281 403 -306 q 292 -210 315 -256 q 269 -106 269 -165 q 293 -1 269 -43 q 135 109 193 26 q 71 315 78 192 q 69 362 69 333 q 71 407 69 390 q 116 581 76 507 q 226 695 156 654 q 392 736 296 736 q 568 692 496 736 q 678 565 640 647 q 715 374 715 483 l 715 350 q 706 326 715 335 q 682 318 697 318 l 203 318 l 203 306 q 228 199 206 249 q 292 119 250 150 q 392 89 333 89 q 475 104 442 89 q 528 138 508 119 q 556 168 549 157 q 576 188 568 185 q 599 192 583 192 l 665 192 q 688 184 679 192 q 696 163 697 176 q 666 103 694 138 q 585 37 638 68 q 460 -8 533 6 q 394 -39 418 -17 q 371 -106 371 -61 q 398 -181 371 -153 q 469 -210 425 -210 l 489 -210 q 512 -219 503 -210 q 521 -242 521 -228 l 521 -274 q 512 -297 521 -287 q 489 -306 503 -306 l 464 -306 m 201 414 l 582 414 l 582 418 q 559 529 582 481 q 493 606 536 578 q 390 635 450 635 q 288 606 331 635 q 224 529 246 578 q 201 418 201 481 l 201 414 z "},"ğ":{"ha":829,"x_min":69,"x_max":725,"o":"m 399 -306 q 244 -281 304 -306 q 149 -220 183 -256 q 101 -149 115 -185 q 85 -93 86 -114 q 94 -69 83 -79 q 117 -60 104 -60 l 183 -60 q 204 -65 196 -60 q 218 -89 213 -71 q 243 -135 226 -110 q 294 -180 260 -161 q 392 -199 329 -199 q 501 -181 457 -199 q 569 -119 546 -162 q 592 0 592 -76 l 592 94 q 504 23 558 51 q 368 -6 450 -6 q 235 22 290 -6 q 144 95 179 49 q 91 201 108 142 q 71 326 74 261 q 71 403 69 365 q 91 528 74 468 q 144 635 108 588 q 235 709 179 682 q 368 736 290 736 q 506 706 451 736 q 596 629 561 675 l 596 689 q 605 713 596 703 q 628 722 614 722 l 692 722 q 715 713 706 722 q 725 689 725 703 l 725 15 q 694 -150 725 -78 q 591 -264 663 -222 q 399 -306 519 -306 m 396 106 q 508 138 465 106 q 570 218 550 169 q 592 317 590 267 q 593 365 593 336 q 592 413 593 393 q 570 511 590 463 q 508 592 550 560 q 396 624 465 624 q 285 592 326 624 q 225 510 243 561 q 204 401 207 460 q 204 328 203 365 q 225 219 207 269 q 285 137 243 168 q 396 106 326 106 m 397 819 q 296 844 333 819 q 243 908 258 868 q 228 992 228 947 q 235 1010 228 1003 q 254 1018 242 1018 l 296 1018 q 315 1010 308 1018 q 322 992 322 1003 q 338 931 322 958 q 397 903 353 903 q 458 931 443 903 q 472 992 472 958 q 479 1010 472 1003 q 499 1018 486 1018 l 540 1018 q 560 1010 553 1018 q 567 992 567 1003 q 551 908 567 947 q 498 844 535 868 q 397 819 461 819 z "},"ĝ":{"ha":829,"x_min":69,"x_max":725,"o":"m 399 -306 q 244 -281 304 -306 q 149 -220 183 -256 q 101 -149 115 -185 q 85 -93 86 -114 q 94 -69 83 -79 q 117 -60 104 -60 l 183 -60 q 204 -65 196 -60 q 218 -89 213 -71 q 243 -135 226 -110 q 294 -180 260 -161 q 392 -199 329 -199 q 501 -181 457 -199 q 569 -119 546 -162 q 592 0 592 -76 l 592 94 q 504 23 558 51 q 368 -6 450 -6 q 235 22 290 -6 q 144 95 179 49 q 91 201 108 142 q 71 326 74 261 q 71 403 69 365 q 91 528 74 468 q 144 635 108 588 q 235 709 179 682 q 368 736 290 736 q 506 706 451 736 q 596 629 561 675 l 596 689 q 605 713 596 703 q 628 722 614 722 l 692 722 q 715 713 706 722 q 725 689 725 703 l 725 15 q 694 -150 725 -78 q 591 -264 663 -222 q 399 -306 519 -306 m 396 106 q 508 138 465 106 q 570 218 550 169 q 592 317 590 267 q 593 365 593 336 q 592 413 593 393 q 570 511 590 463 q 508 592 550 560 q 396 624 465 624 q 285 592 326 624 q 225 510 243 561 q 204 401 207 460 q 204 328 203 365 q 225 219 207 269 q 285 137 243 168 q 396 106 326 106 m 208 826 q 188 843 188 826 q 203 869 188 854 l 331 997 q 355 1015 344 1013 q 376 1018 365 1018 l 418 1018 q 440 1015 431 1018 q 464 997 450 1013 l 592 869 q 607 843 607 854 q 586 826 607 826 l 550 826 q 529 829 540 826 q 511 836 518 832 l 397 915 l 283 836 q 265 829 276 832 q 244 826 254 826 l 208 826 z "},"ģ":{"ha":829,"x_min":69,"x_max":725,"o":"m 483 1060 q 501 1051 494 1060 q 506 1029 507 1042 l 481 867 q 469 838 479 850 q 442 826 460 826 l 354 826 q 338 834 343 826 q 332 850 332 842 q 336 872 332 861 l 396 1026 q 410 1050 403 1040 q 436 1060 418 1060 l 483 1060 m 399 -306 q 244 -281 304 -306 q 149 -220 183 -256 q 101 -149 115 -185 q 85 -93 86 -114 q 94 -69 83 -79 q 117 -60 104 -60 l 183 -60 q 204 -65 196 -60 q 218 -89 213 -71 q 243 -135 226 -110 q 294 -180 260 -161 q 392 -199 329 -199 q 501 -181 457 -199 q 569 -119 546 -162 q 592 0 592 -76 l 592 94 q 504 23 558 51 q 368 -6 450 -6 q 235 22 290 -6 q 144 95 179 49 q 91 201 108 142 q 71 326 74 261 q 71 403 69 365 q 91 528 74 468 q 144 635 108 588 q 235 709 179 682 q 368 736 290 736 q 506 706 451 736 q 596 629 561 675 l 596 689 q 605 713 596 703 q 628 722 614 722 l 692 722 q 715 713 706 722 q 725 689 725 703 l 725 15 q 694 -150 725 -78 q 591 -264 663 -222 q 399 -306 519 -306 m 396 106 q 508 138 465 106 q 570 218 550 169 q 592 317 590 267 q 593 365 593 336 q 592 413 593 393 q 570 511 590 463 q 508 592 550 560 q 396 624 465 624 q 285 592 326 624 q 225 510 243 561 q 204 401 207 460 q 204 328 203 365 q 225 219 207 269 q 285 137 243 168 q 396 106 326 106 z "},"ġ":{"ha":829,"x_min":69,"x_max":725,"o":"m 399 -306 q 244 -281 304 -306 q 149 -220 183 -256 q 101 -149 115 -185 q 85 -93 86 -114 q 94 -69 83 -79 q 117 -60 104 -60 l 183 -60 q 204 -65 196 -60 q 218 -89 213 -71 q 243 -135 226 -110 q 294 -180 260 -161 q 392 -199 329 -199 q 501 -181 457 -199 q 569 -119 546 -162 q 592 0 592 -76 l 592 94 q 504 23 558 51 q 368 -6 450 -6 q 235 22 290 -6 q 144 95 179 49 q 91 201 108 142 q 71 326 74 261 q 71 403 69 365 q 91 528 74 468 q 144 635 108 588 q 235 709 179 682 q 368 736 290 736 q 506 706 451 736 q 596 629 561 675 l 596 689 q 605 713 596 703 q 628 722 614 722 l 692 722 q 715 713 706 722 q 725 689 725 703 l 725 15 q 694 -150 725 -78 q 591 -264 663 -222 q 399 -306 519 -306 m 396 106 q 508 138 465 106 q 570 218 550 169 q 592 317 590 267 q 593 365 593 336 q 592 413 593 393 q 570 511 590 463 q 508 592 550 560 q 396 624 465 624 q 285 592 326 624 q 225 510 243 561 q 204 401 207 460 q 204 328 203 365 q 225 219 207 269 q 285 137 243 168 q 396 106 326 106 m 353 851 q 331 860 339 851 q 322 882 322 868 l 322 971 q 331 994 322 985 q 353 1003 339 1003 l 442 1003 q 465 994 456 1003 q 474 971 474 985 l 474 882 q 465 860 474 868 q 442 851 456 851 l 353 851 z "},"ħ":{"ha":844,"x_min":0,"x_max":749,"o":"m 135 0 q 112 9 121 0 q 103 32 103 18 l 103 785 l 31 785 q 8 794 17 785 q 0 817 0 803 l 0 846 q 8 869 0 860 q 31 878 17 878 l 103 878 l 103 954 q 112 977 103 968 q 135 986 121 986 l 206 986 q 228 977 219 986 q 238 954 238 968 l 238 878 l 308 878 q 332 869 324 878 q 340 846 340 860 l 340 817 q 332 794 340 803 q 308 785 324 785 l 238 785 l 238 631 q 328 707 275 678 q 467 736 382 736 q 620 697 557 736 q 716 587 683 657 q 749 424 749 517 l 749 32 q 740 9 749 18 q 717 0 731 0 l 646 0 q 623 9 632 0 q 614 32 614 18 l 614 417 q 567 569 614 514 q 429 624 519 624 q 290 569 342 624 q 238 417 238 514 l 238 32 q 228 9 238 18 q 206 0 219 0 l 135 0 z "},"ĥ":{"ha":846,"x_min":104,"x_max":749,"o":"m 136 0 q 113 9 122 0 q 104 32 104 18 l 104 954 q 113 977 104 968 q 136 986 122 986 l 206 986 q 229 977 221 986 q 238 954 238 968 l 238 631 q 329 707 275 678 q 467 736 383 736 q 620 697 557 736 q 716 587 683 657 q 749 424 749 517 l 749 32 q 740 9 749 18 q 717 0 732 0 l 647 0 q 624 9 633 0 q 615 32 615 18 l 615 417 q 568 569 615 514 q 429 624 521 624 q 290 569 343 624 q 238 417 238 514 l 238 32 q 229 9 238 18 q 206 0 221 0 l 136 0 m 238 1042 q 217 1058 217 1042 q 232 1085 217 1069 l 360 1213 q 384 1231 374 1228 q 406 1233 394 1233 l 447 1233 q 469 1231 460 1233 q 493 1213 479 1228 l 621 1085 q 636 1058 636 1069 q 615 1042 636 1042 l 579 1042 q 558 1044 569 1042 q 540 1051 547 1047 l 426 1131 l 313 1051 q 294 1044 306 1047 q 274 1042 283 1042 l 238 1042 z "},"ı":{"ha":336,"x_min":103,"x_max":233,"o":"m 135 0 q 112 9 121 0 q 103 32 103 18 l 103 690 q 112 713 103 704 q 135 722 121 722 l 201 722 q 224 713 215 722 q 233 690 233 704 l 233 32 q 224 9 233 18 q 201 0 215 0 l 135 0 z "},"í":{"ha":336,"x_min":103,"x_max":389,"o":"m 135 0 q 112 9 121 0 q 103 32 103 18 l 103 690 q 112 713 103 704 q 135 722 121 722 l 201 722 q 224 713 215 722 q 233 690 233 704 l 233 32 q 224 9 233 18 q 201 0 215 0 l 135 0 m 128 826 q 106 849 106 826 q 113 867 106 860 l 217 992 q 239 1013 229 1007 q 268 1018 249 1018 l 363 1018 q 389 990 389 1018 q 382 974 389 981 l 221 842 q 200 829 210 832 q 175 826 190 826 l 128 826 z "},"ĭ":{"ha":336,"x_min":-1,"x_max":336,"o":"m 135 0 q 112 9 121 0 q 103 32 103 18 l 103 690 q 112 713 103 704 q 135 722 121 722 l 201 722 q 224 713 215 722 q 233 690 233 704 l 233 32 q 224 9 233 18 q 201 0 215 0 l 135 0 m 167 819 q 65 844 103 819 q 13 908 28 868 q -3 992 -3 947 q 4 1010 -3 1003 q 24 1018 11 1018 l 65 1018 q 85 1010 78 1018 q 92 992 92 1003 q 107 931 92 958 q 167 903 122 903 q 227 931 213 903 q 242 992 242 958 q 249 1010 242 1003 q 268 1018 256 1018 l 310 1018 q 329 1010 322 1018 q 336 992 336 1003 q 320 908 336 947 q 267 844 304 868 q 167 819 231 819 z "},"î":{"ha":336,"x_min":-42,"x_max":376,"o":"m 135 0 q 112 9 121 0 q 103 32 103 18 l 103 690 q 112 713 103 704 q 135 722 121 722 l 201 722 q 224 713 215 722 q 233 690 233 704 l 233 32 q 224 9 233 18 q 201 0 215 0 l 135 0 m -21 826 q -42 843 -42 826 q -26 869 -42 854 l 101 997 q 126 1015 115 1013 q 147 1018 136 1018 l 189 1018 q 211 1015 201 1018 q 235 997 221 1013 l 363 869 q 378 843 378 854 q 357 826 378 826 l 321 826 q 300 829 311 826 q 282 836 289 832 l 168 915 l 54 836 q 36 829 47 832 q 15 826 25 826 l -21 826 z "},"ï":{"ha":336,"x_min":-19,"x_max":354,"o":"m 135 0 q 112 9 121 0 q 103 32 103 18 l 103 690 q 112 713 103 704 q 135 722 121 722 l 201 722 q 224 713 215 722 q 233 690 233 704 l 233 32 q 224 9 233 18 q 201 0 215 0 l 135 0 m 247 863 q 224 871 232 863 q 215 893 215 879 l 215 968 q 224 991 215 982 q 247 1000 232 1000 l 322 1000 q 345 991 336 1000 q 354 968 354 982 l 354 893 q 345 871 354 879 q 322 863 336 863 l 247 863 m 11 863 q -11 871 -3 863 q -19 893 -19 879 l -19 968 q -11 991 -19 982 q 11 1000 -3 1000 l 88 1000 q 110 991 101 1000 q 119 968 119 982 l 119 893 q 110 871 119 879 q 88 863 101 863 l 11 863 z "},"ì":{"ha":336,"x_min":-53,"x_max":233,"o":"m 135 0 q 112 9 121 0 q 103 32 103 18 l 103 690 q 112 713 103 704 q 135 722 121 722 l 201 722 q 224 713 215 722 q 233 690 233 704 l 233 32 q 224 9 233 18 q 201 0 215 0 l 135 0 m 161 826 q 136 829 146 826 q 115 842 126 832 l -46 974 q -53 990 -53 981 q -26 1018 -53 1018 l 68 1018 q 97 1013 88 1018 q 119 992 107 1007 l 224 867 q 231 849 231 860 q 208 826 231 826 l 161 826 z "},"ĳ":{"ha":689,"x_min":92,"x_max":596,"o":"m 135 0 q 112 9 121 0 q 103 32 103 18 l 103 690 q 112 713 103 704 q 135 722 121 722 l 201 722 q 224 713 215 722 q 233 690 233 704 l 233 32 q 224 9 233 18 q 201 0 215 0 l 135 0 m 124 857 q 101 866 110 857 q 92 889 92 875 l 92 964 q 101 988 92 978 q 124 997 110 997 l 211 997 q 235 988 225 997 q 244 964 244 978 l 244 889 q 235 866 244 875 q 211 857 225 857 l 124 857 m 321 -264 q 298 -255 307 -264 q 289 -232 289 -246 l 289 -185 q 298 -162 289 -171 q 321 -153 307 -153 l 340 -153 q 414 -134 390 -153 q 445 -84 438 -115 q 453 -15 453 -53 l 453 690 q 462 713 453 704 q 485 722 471 722 l 553 722 q 576 713 567 722 q 585 690 585 704 l 585 -17 q 562 -146 585 -90 q 488 -233 539 -201 q 347 -264 436 -264 l 321 -264 m 474 857 q 451 866 460 857 q 442 889 442 875 l 442 964 q 451 988 442 978 q 474 997 460 997 l 563 997 q 586 988 576 997 q 596 964 596 978 l 596 889 q 586 866 596 875 q 563 857 576 857 l 474 857 z "},"ī":{"ha":336,"x_min":-18,"x_max":354,"o":"m 135 0 q 112 9 121 0 q 103 32 103 18 l 103 690 q 112 713 103 704 q 135 722 121 722 l 201 722 q 224 713 215 722 q 233 690 233 704 l 233 32 q 224 9 233 18 q 201 0 215 0 l 135 0 m 13 857 q -10 865 -1 857 q -18 888 -18 874 l -18 931 q -10 953 -18 944 q 13 961 -1 961 l 322 961 q 346 953 338 961 q 354 931 354 944 l 354 888 q 346 865 354 874 q 322 857 338 857 l 13 857 z "},"į":{"ha":360,"x_min":19,"x_max":268,"o":"m 211 -299 q 70 -245 121 -299 q 19 -103 19 -192 q 51 6 19 -37 q 136 61 82 49 l 133 65 q 128 72 131 68 q 126 79 126 75 l 126 690 q 135 713 126 704 q 158 722 144 722 l 225 722 q 248 713 239 722 q 257 690 257 704 l 257 32 q 248 9 257 18 q 225 0 239 0 l 217 0 q 144 -28 171 0 q 118 -103 118 -56 q 144 -177 118 -150 q 217 -204 171 -204 l 236 -204 q 259 -213 250 -204 q 268 -236 268 -222 l 268 -267 q 259 -290 268 -281 q 236 -299 250 -299 l 211 -299 m 147 857 q 124 866 133 857 q 115 889 115 875 l 115 964 q 124 988 115 978 q 147 997 133 997 l 235 997 q 258 988 249 997 q 268 964 268 978 l 268 889 q 258 866 268 875 q 235 857 249 857 l 147 857 z "},"ĩ":{"ha":336,"x_min":-19,"x_max":356,"o":"m 135 0 q 112 9 121 0 q 103 32 103 18 l 103 690 q 112 713 103 704 q 135 722 121 722 l 201 722 q 224 713 215 722 q 233 690 233 704 l 233 32 q 224 9 233 18 q 201 0 215 0 l 135 0 m 239 819 q 183 831 204 819 q 145 855 163 843 q 107 867 128 867 q 83 857 90 867 q 69 837 75 847 q 47 826 63 826 l 3 826 q -14 833 -7 826 q -21 849 -21 840 q -13 891 -21 869 q 10 931 -6 913 q 47 961 25 950 q 94 972 68 972 q 151 960 131 972 q 190 937 172 949 q 229 925 208 925 q 253 935 246 925 q 266 956 260 946 q 288 967 272 967 l 332 967 q 349 960 343 967 q 356 943 356 953 q 348 901 356 924 q 325 860 340 879 q 288 831 310 842 q 239 819 267 819 z "},"ȷ":{"ha":429,"x_min":17,"x_max":325,"o":"m 49 -264 q 26 -255 35 -264 q 17 -232 17 -246 l 17 -175 q 26 -152 17 -161 q 49 -143 35 -143 l 79 -143 q 154 -125 131 -143 q 185 -76 178 -107 q 193 -7 193 -44 l 193 610 l 61 610 q 38 618 47 610 q 29 642 29 626 l 29 690 q 38 713 29 704 q 61 722 47 722 l 293 722 q 316 713 307 722 q 325 690 325 704 l 325 -7 q 302 -139 325 -81 q 228 -231 279 -197 q 88 -264 176 -264 l 49 -264 z "},"ĵ":{"ha":429,"x_min":-17,"x_max":403,"o":"m 49 -264 q 26 -255 35 -264 q 17 -232 17 -246 l 17 -175 q 26 -152 17 -161 q 49 -143 35 -143 l 79 -143 q 154 -125 131 -143 q 185 -76 178 -107 q 193 -7 193 -44 l 193 610 l 61 610 q 38 618 47 610 q 29 642 29 626 l 29 690 q 38 713 29 704 q 61 722 47 722 l 293 722 q 316 713 307 722 q 325 690 325 704 l 325 -7 q 302 -139 325 -81 q 228 -231 279 -197 q 88 -264 176 -264 l 49 -264 m 4 826 q -17 843 -17 826 q -1 869 -17 854 l 126 997 q 151 1015 140 1013 q 172 1018 161 1018 l 214 1018 q 236 1015 226 1018 q 260 997 246 1013 l 388 869 q 403 843 403 854 q 382 826 403 826 l 346 826 q 325 829 336 826 q 307 836 314 832 l 193 915 l 79 836 q 61 829 72 832 q 40 826 50 826 l 4 826 z "},"ķ":{"ha":717,"x_min":104,"x_max":700,"o":"m 136 0 q 113 9 122 0 q 104 32 104 18 l 104 954 q 113 977 104 968 q 136 986 122 986 l 201 986 q 224 977 215 986 q 233 954 233 968 l 233 471 l 507 699 q 533 717 524 713 q 563 722 542 722 l 636 722 q 657 714 649 722 q 665 693 665 706 q 662 681 665 688 q 649 667 658 674 l 328 400 l 683 54 q 700 29 700 40 q 692 8 700 17 q 671 0 683 0 l 599 0 q 568 5 578 0 q 543 24 558 10 l 233 319 l 233 32 q 224 9 233 18 q 201 0 215 0 l 136 0 m 272 -301 q 256 -293 261 -301 q 251 -272 250 -285 l 275 -110 q 287 -81 278 -93 q 315 -69 296 -69 l 401 -69 q 419 -77 413 -69 q 425 -93 425 -85 q 419 -115 425 -104 l 361 -269 q 347 -292 356 -283 q 319 -301 338 -301 l 272 -301 z "},"ĸ":{"ha":718,"x_min":103,"x_max":699,"o":"m 135 0 q 112 9 121 0 q 103 32 103 18 l 103 690 q 112 713 103 704 q 135 722 121 722 l 200 722 q 223 713 214 722 q 232 690 232 704 l 232 433 l 518 699 q 544 717 535 713 q 572 722 553 722 l 640 722 q 662 714 654 722 q 669 693 669 706 q 667 681 669 688 q 654 667 664 674 l 328 363 l 683 54 q 699 29 699 42 q 690 8 699 17 q 669 0 682 0 l 594 0 q 564 6 574 0 q 539 24 554 13 l 232 288 l 232 32 q 223 9 232 18 q 200 0 214 0 l 135 0 z "},"ĺ":{"ha":338,"x_min":104,"x_max":403,"o":"m 136 0 q 113 9 122 0 q 104 32 104 18 l 104 954 q 113 977 104 968 q 136 986 122 986 l 201 986 q 225 977 217 986 q 233 954 233 968 l 233 32 q 225 9 233 18 q 201 0 217 0 l 136 0 m 142 1042 q 119 1064 119 1042 q 126 1082 119 1075 l 231 1207 q 253 1228 243 1222 q 282 1233 263 1233 l 376 1233 q 403 1206 403 1233 q 396 1189 403 1196 l 235 1057 q 214 1044 224 1047 q 189 1042 204 1042 l 142 1042 z "},"ľ":{"ha":406,"x_min":104,"x_max":482,"o":"m 136 0 q 113 9 122 0 q 104 32 104 18 l 104 954 q 113 977 104 968 q 136 986 122 986 l 201 986 q 225 977 217 986 q 233 954 233 968 l 233 32 q 225 9 233 18 q 201 0 217 0 l 136 0 m 331 754 q 314 763 319 754 q 310 783 308 771 l 333 946 q 345 974 336 963 q 374 986 354 986 l 460 986 q 477 978 471 986 q 483 963 483 971 q 478 940 483 951 l 419 786 q 405 763 414 772 q 378 754 396 754 l 331 754 z "},"ļ":{"ha":338,"x_min":63,"x_max":238,"o":"m 136 0 q 113 9 122 0 q 104 32 104 18 l 104 954 q 113 977 104 968 q 136 986 122 986 l 201 986 q 225 977 217 986 q 233 954 233 968 l 233 32 q 225 9 233 18 q 201 0 217 0 l 136 0 m 85 -301 q 68 -293 74 -301 q 64 -272 63 -285 l 88 -110 q 99 -81 90 -93 q 128 -69 108 -69 l 214 -69 q 231 -77 225 -69 q 238 -93 238 -85 q 232 -115 238 -104 l 174 -269 q 159 -292 168 -283 q 132 -301 150 -301 l 85 -301 z "},"ŀ":{"ha":421,"x_min":104,"x_max":454,"o":"m 136 0 q 113 9 122 0 q 104 32 104 18 l 104 954 q 113 977 104 968 q 136 986 122 986 l 201 986 q 225 977 217 986 q 233 954 233 968 l 233 32 q 225 9 233 18 q 201 0 217 0 l 136 0 m 333 424 q 311 432 319 424 q 303 454 303 440 l 303 543 q 311 566 303 557 q 333 575 319 575 l 422 575 q 445 566 436 575 q 454 543 454 557 l 454 454 q 445 432 454 440 q 422 424 436 424 l 333 424 z "},"ł":{"ha":383,"x_min":33,"x_max":353,"o":"m 160 0 q 137 9 146 0 q 128 32 128 18 l 128 418 l 78 400 q 60 396 68 396 q 41 402 49 396 q 33 421 33 408 l 33 471 q 40 495 33 488 q 64 508 47 503 l 128 532 l 128 954 q 137 977 128 968 q 160 986 146 986 l 225 986 q 249 977 240 986 q 257 954 257 968 l 257 582 l 308 601 q 325 606 319 606 q 344 599 336 606 q 353 579 353 592 l 353 531 q 346 507 353 514 q 322 493 339 500 l 257 468 l 257 32 q 249 9 257 18 q 225 0 240 0 l 160 0 z "},"ń":{"ha":842,"x_min":103,"x_max":746,"o":"m 135 0 q 112 9 121 0 q 103 32 103 18 l 103 690 q 112 713 103 704 q 135 722 121 722 l 200 722 q 223 713 214 722 q 232 690 232 704 l 232 629 q 323 706 268 676 q 464 736 378 736 q 617 697 554 736 q 713 587 681 657 q 746 424 746 517 l 746 32 q 737 9 746 18 q 714 0 728 0 l 644 0 q 622 9 631 0 q 613 32 613 18 l 613 417 q 565 569 613 514 q 426 624 518 624 q 288 569 340 624 q 236 417 236 514 l 236 32 q 227 9 236 18 q 204 0 218 0 l 135 0 m 379 826 q 357 849 357 826 q 364 867 357 860 l 468 992 q 490 1013 481 1007 q 519 1018 500 1018 l 614 1018 q 640 990 640 1018 q 633 974 640 981 l 472 842 q 451 829 461 832 q 426 826 442 826 l 379 826 z "},"ŉ":{"ha":842,"x_min":103,"x_max":746,"o":"m 135 0 q 112 9 121 0 q 103 32 103 18 l 103 690 q 112 713 103 704 q 135 722 121 722 l 200 722 q 223 713 214 722 q 232 690 232 704 l 232 629 q 323 706 268 676 q 464 736 378 736 q 617 697 554 736 q 713 587 681 657 q 746 424 746 517 l 746 32 q 737 9 746 18 q 714 0 728 0 l 644 0 q 622 9 631 0 q 613 32 613 18 l 613 417 q 565 569 613 514 q 426 624 518 624 q 288 569 340 624 q 236 417 236 514 l 236 32 q 227 9 236 18 q 204 0 218 0 l 135 0 m 144 813 q 128 821 133 813 q 124 842 122 829 l 147 1004 q 159 1033 150 1021 q 188 1044 168 1044 l 274 1044 q 291 1037 285 1044 q 297 1021 297 1029 q 292 999 297 1010 l 233 844 q 219 822 228 831 q 192 813 210 813 l 144 813 z "},"ň":{"ha":842,"x_min":103,"x_max":746,"o":"m 135 0 q 112 9 121 0 q 103 32 103 18 l 103 690 q 112 713 103 704 q 135 722 121 722 l 200 722 q 223 713 214 722 q 232 690 232 704 l 232 629 q 323 706 268 676 q 464 736 378 736 q 617 697 554 736 q 713 587 681 657 q 746 424 746 517 l 746 32 q 737 9 746 18 q 714 0 728 0 l 644 0 q 622 9 631 0 q 613 32 613 18 l 613 417 q 565 569 613 514 q 426 624 518 624 q 288 569 340 624 q 236 417 236 514 l 236 32 q 227 9 236 18 q 204 0 218 0 l 135 0 m 403 826 q 381 830 392 826 q 357 847 371 833 l 229 975 q 214 1001 214 990 q 235 1018 214 1018 l 271 1018 q 292 1015 281 1018 q 310 1008 303 1013 l 424 929 l 538 1008 q 556 1015 544 1013 q 576 1018 567 1018 l 613 1018 q 633 1001 633 1018 q 618 975 633 990 l 490 847 q 467 830 476 833 q 444 826 457 826 l 403 826 z "},"ņ":{"ha":842,"x_min":103,"x_max":746,"o":"m 135 0 q 112 9 121 0 q 103 32 103 18 l 103 690 q 112 713 103 704 q 135 722 121 722 l 200 722 q 223 713 214 722 q 232 690 232 704 l 232 629 q 323 706 268 676 q 464 736 378 736 q 617 697 554 736 q 713 587 681 657 q 746 424 746 517 l 746 32 q 737 9 746 18 q 714 0 728 0 l 644 0 q 622 9 631 0 q 613 32 613 18 l 613 417 q 565 569 613 514 q 426 624 518 624 q 288 569 340 624 q 236 417 236 514 l 236 32 q 227 9 236 18 q 204 0 218 0 l 135 0 m 347 -301 q 331 -293 336 -301 q 326 -272 325 -285 l 350 -110 q 362 -81 353 -93 q 390 -69 371 -69 l 476 -69 q 494 -77 488 -69 q 500 -93 500 -85 q 494 -115 500 -104 l 436 -269 q 422 -292 431 -283 q 394 -301 413 -301 l 347 -301 z "},"ŋ":{"ha":842,"x_min":103,"x_max":746,"o":"m 479 -312 q 456 -303 465 -312 q 447 -281 447 -294 l 447 -226 q 456 -203 447 -212 q 479 -194 465 -194 l 493 -194 q 571 -176 546 -194 q 604 -124 596 -157 q 613 -49 613 -90 l 613 417 q 565 569 613 514 q 426 624 518 624 q 288 569 340 624 q 236 417 236 514 l 236 32 q 227 9 236 18 q 204 0 218 0 l 135 0 q 112 9 121 0 q 103 32 103 18 l 103 690 q 112 713 103 704 q 135 722 121 722 l 200 722 q 223 713 214 722 q 232 690 232 704 l 232 629 q 323 706 268 676 q 464 736 378 736 q 617 697 554 736 q 713 587 681 657 q 746 424 746 517 l 746 -51 q 720 -188 746 -129 q 639 -280 694 -247 q 490 -312 583 -312 l 479 -312 z "},"ñ":{"ha":842,"x_min":103,"x_max":746,"o":"m 135 0 q 112 9 121 0 q 103 32 103 18 l 103 690 q 112 713 103 704 q 135 722 121 722 l 200 722 q 223 713 214 722 q 232 690 232 704 l 232 629 q 323 706 268 676 q 464 736 378 736 q 617 697 554 736 q 713 587 681 657 q 746 424 746 517 l 746 32 q 737 9 746 18 q 714 0 728 0 l 644 0 q 622 9 631 0 q 613 32 613 18 l 613 417 q 565 569 613 514 q 426 624 518 624 q 288 569 340 624 q 236 417 236 514 l 236 32 q 227 9 236 18 q 204 0 218 0 l 135 0 m 496 819 q 440 831 461 819 q 402 855 419 843 q 364 867 385 867 q 340 857 347 867 q 326 837 332 847 q 304 826 319 826 l 260 826 q 243 833 250 826 q 236 849 236 840 q 244 891 236 869 q 267 931 251 913 q 303 961 282 950 q 351 972 325 972 q 408 960 388 972 q 447 937 429 949 q 486 925 465 925 q 510 935 503 925 q 523 956 517 946 q 544 967 529 967 l 589 967 q 606 960 600 967 q 613 943 613 953 q 605 901 613 924 q 582 860 597 879 q 545 831 567 842 q 496 819 524 819 z "},"ó":{"ha":797,"x_min":71,"x_max":726,"o":"m 399 -14 q 222 26 293 -14 q 114 138 151 67 q 72 301 76 210 q 71 362 71 325 q 72 421 71 399 q 115 585 76 514 q 224 696 153 656 q 399 736 294 736 q 574 696 503 736 q 683 585 644 656 q 725 421 721 514 q 726 362 726 399 q 725 301 726 325 q 683 138 721 210 q 575 26 646 67 q 399 -14 504 -14 m 399 93 q 536 148 485 93 q 592 308 588 203 q 593 361 593 329 q 592 414 593 393 q 536 574 588 519 q 399 629 485 629 q 260 574 313 629 q 206 414 208 519 q 204 361 204 393 q 206 308 204 329 q 260 148 208 203 q 399 93 313 93 m 357 826 q 335 849 335 826 q 342 867 335 860 l 446 992 q 468 1013 458 1007 q 497 1018 478 1018 l 592 1018 q 618 990 618 1018 q 611 974 618 981 l 450 842 q 429 829 439 832 q 404 826 419 826 l 357 826 z "},"ŏ":{"ha":797,"x_min":71,"x_max":726,"o":"m 399 -14 q 222 26 293 -14 q 114 138 151 67 q 72 301 76 210 q 71 362 71 325 q 72 421 71 399 q 115 585 76 514 q 224 696 153 656 q 399 736 294 736 q 574 696 503 736 q 683 585 644 656 q 725 421 721 514 q 726 362 726 399 q 725 301 726 325 q 683 138 721 210 q 575 26 646 67 q 399 -14 504 -14 m 399 93 q 536 148 485 93 q 592 308 588 203 q 593 361 593 329 q 592 414 593 393 q 536 574 588 519 q 399 629 485 629 q 260 574 313 629 q 206 414 208 519 q 204 361 204 393 q 206 308 204 329 q 260 148 208 203 q 399 93 313 93 m 399 819 q 297 844 335 819 q 244 908 260 868 q 229 992 229 947 q 236 1010 229 1003 q 256 1018 243 1018 l 297 1018 q 317 1010 310 1018 q 324 992 324 1003 q 339 931 324 958 q 399 903 354 903 q 459 931 444 903 q 474 992 474 958 q 481 1010 474 1003 q 500 1018 488 1018 l 542 1018 q 561 1010 554 1018 q 568 992 568 1003 q 552 908 568 947 q 499 844 536 868 q 399 819 463 819 z "},"ô":{"ha":797,"x_min":71,"x_max":726,"o":"m 399 -14 q 222 26 293 -14 q 114 138 151 67 q 72 301 76 210 q 71 362 71 325 q 72 421 71 399 q 115 585 76 514 q 224 696 153 656 q 399 736 294 736 q 574 696 503 736 q 683 585 644 656 q 725 421 721 514 q 726 362 726 399 q 725 301 726 325 q 683 138 721 210 q 575 26 646 67 q 399 -14 504 -14 m 399 93 q 536 148 485 93 q 592 308 588 203 q 593 361 593 329 q 592 414 593 393 q 536 574 588 519 q 399 629 485 629 q 260 574 313 629 q 206 414 208 519 q 204 361 204 393 q 206 308 204 329 q 260 148 208 203 q 399 93 313 93 m 210 826 q 189 843 189 826 q 204 869 189 854 l 332 997 q 356 1015 346 1013 q 378 1018 367 1018 l 419 1018 q 442 1015 432 1018 q 465 997 451 1013 l 593 869 q 608 843 608 854 q 588 826 608 826 l 551 826 q 531 829 542 826 q 513 836 519 832 l 399 915 l 285 836 q 267 829 278 832 q 246 826 256 826 l 210 826 z "},"ö":{"ha":797,"x_min":71,"x_max":726,"o":"m 399 -14 q 222 26 293 -14 q 114 138 151 67 q 72 301 76 210 q 71 362 71 325 q 72 421 71 399 q 115 585 76 514 q 224 696 153 656 q 399 736 294 736 q 574 696 503 736 q 683 585 644 656 q 725 421 721 514 q 726 362 726 399 q 725 301 726 325 q 683 138 721 210 q 575 26 646 67 q 399 -14 504 -14 m 399 93 q 536 148 485 93 q 592 308 588 203 q 593 361 593 329 q 592 414 593 393 q 536 574 588 519 q 399 629 485 629 q 260 574 313 629 q 206 414 208 519 q 204 361 204 393 q 206 308 204 329 q 260 148 208 203 q 399 93 313 93 m 479 863 q 456 871 464 863 q 447 893 447 879 l 447 968 q 456 991 447 982 q 479 1000 464 1000 l 554 1000 q 577 991 568 1000 q 586 968 586 982 l 586 893 q 577 871 586 879 q 554 863 568 863 l 479 863 m 243 863 q 221 871 229 863 q 213 893 213 879 l 213 968 q 221 991 213 982 q 243 1000 229 1000 l 319 1000 q 342 991 333 1000 q 351 968 351 982 l 351 893 q 342 871 351 879 q 319 863 333 863 l 243 863 z "},"ò":{"ha":797,"x_min":71,"x_max":726,"o":"m 399 -14 q 222 26 293 -14 q 114 138 151 67 q 72 301 76 210 q 71 362 71 325 q 72 421 71 399 q 115 585 76 514 q 224 696 153 656 q 399 736 294 736 q 574 696 503 736 q 683 585 644 656 q 725 421 721 514 q 726 362 726 399 q 725 301 726 325 q 683 138 721 210 q 575 26 646 67 q 399 -14 504 -14 m 399 93 q 536 148 485 93 q 592 308 588 203 q 593 361 593 329 q 592 414 593 393 q 536 574 588 519 q 399 629 485 629 q 260 574 313 629 q 206 414 208 519 q 204 361 204 393 q 206 308 204 329 q 260 148 208 203 q 399 93 313 93 m 393 826 q 368 829 378 826 q 347 842 358 832 l 186 974 q 179 990 179 981 q 206 1018 179 1018 l 300 1018 q 329 1013 319 1018 q 351 992 339 1007 l 456 867 q 463 849 463 860 q 440 826 463 826 l 393 826 z "},"ő":{"ha":797,"x_min":71,"x_max":726,"o":"m 399 -14 q 222 26 293 -14 q 114 138 151 67 q 72 301 76 210 q 71 362 71 325 q 72 421 71 399 q 115 585 76 514 q 224 696 153 656 q 399 736 294 736 q 574 696 503 736 q 683 585 644 656 q 725 421 721 514 q 726 362 726 399 q 725 301 726 325 q 683 138 721 210 q 575 26 646 67 q 399 -14 504 -14 m 399 93 q 536 148 485 93 q 592 308 588 203 q 593 361 593 329 q 592 414 593 393 q 536 574 588 519 q 399 629 485 629 q 260 574 313 629 q 206 414 208 519 q 204 361 204 393 q 206 308 204 329 q 260 148 208 203 q 399 93 313 93 m 476 826 q 454 849 454 826 q 457 860 454 854 q 461 869 460 865 l 515 992 q 567 1018 528 1018 l 644 1018 q 672 992 672 1018 q 664 974 672 982 l 554 846 q 511 826 538 826 l 476 826 m 249 826 q 226 849 226 826 q 229 860 226 854 q 233 869 232 865 l 288 992 q 339 1018 300 1018 l 417 1018 q 444 992 444 1018 q 436 974 444 982 l 326 846 q 283 826 310 826 l 249 826 z "},"ō":{"ha":797,"x_min":71,"x_max":726,"o":"m 399 -14 q 222 26 293 -14 q 114 138 151 67 q 72 301 76 210 q 71 362 71 325 q 72 421 71 399 q 115 585 76 514 q 224 696 153 656 q 399 736 294 736 q 574 696 503 736 q 683 585 644 656 q 725 421 721 514 q 726 362 726 399 q 725 301 726 325 q 683 138 721 210 q 575 26 646 67 q 399 -14 504 -14 m 399 93 q 536 148 485 93 q 592 308 588 203 q 593 361 593 329 q 592 414 593 393 q 536 574 588 519 q 399 629 485 629 q 260 574 313 629 q 206 414 208 519 q 204 361 204 393 q 206 308 204 329 q 260 148 208 203 q 399 93 313 93 m 243 857 q 221 865 229 857 q 213 888 213 874 l 213 931 q 221 953 213 944 q 243 961 229 961 l 553 961 q 576 953 568 961 q 585 931 585 944 l 585 888 q 576 865 585 874 q 553 857 568 857 l 243 857 z "},"ø":{"ha":844,"x_min":19,"x_max":825,"o":"m 422 -14 q 273 13 335 -14 q 173 87 211 40 q 115 189 135 133 l 64 169 q 46 165 54 165 q 27 172 35 165 q 19 190 19 178 l 19 229 q 26 253 19 246 q 50 267 33 261 l 97 285 q 94 354 94 321 q 96 421 94 388 q 117 538 99 482 q 175 639 136 594 q 275 710 214 683 q 422 736 336 736 q 573 708 511 736 q 672 634 635 681 q 728 529 710 588 l 781 550 q 797 554 792 554 q 817 548 810 554 q 825 529 825 542 l 825 489 q 818 467 825 474 q 794 453 811 460 l 747 435 q 750 369 750 410 q 749 301 750 328 q 727 184 746 240 q 670 83 708 128 q 571 13 632 39 q 422 -14 510 -14 m 422 93 q 517 114 475 93 q 587 181 560 135 q 615 303 614 226 q 617 341 617 317 q 615 383 617 365 l 236 236 q 307 126 256 160 q 422 93 358 93 m 229 336 l 607 483 q 539 596 590 563 q 422 629 488 629 q 328 609 371 629 q 259 543 286 589 q 229 422 232 497 q 228 382 228 408 q 229 336 228 356 z "},"ǿ":{"ha":844,"x_min":19,"x_max":825,"o":"m 379 826 q 357 849 357 826 q 364 867 357 860 l 468 992 q 490 1013 481 1007 q 519 1018 500 1018 l 614 1018 q 640 990 640 1018 q 633 974 640 981 l 472 842 q 451 829 461 832 q 426 826 442 826 l 379 826 m 422 -14 q 273 13 335 -14 q 173 87 211 40 q 115 189 135 133 l 64 169 q 46 165 54 165 q 27 172 35 165 q 19 190 19 178 l 19 229 q 26 253 19 246 q 50 267 33 261 l 97 285 q 94 354 94 321 q 96 421 94 388 q 117 538 99 482 q 175 639 136 594 q 275 710 214 683 q 422 736 336 736 q 573 708 511 736 q 672 634 635 681 q 728 529 710 588 l 781 550 q 797 554 792 554 q 817 548 810 554 q 825 529 825 542 l 825 489 q 818 467 825 474 q 794 453 811 460 l 747 435 q 750 369 750 410 q 749 301 750 328 q 727 184 746 240 q 670 83 708 128 q 571 13 632 39 q 422 -14 510 -14 m 422 93 q 517 114 475 93 q 587 181 560 135 q 615 303 614 226 q 617 341 617 317 q 615 383 617 365 l 236 236 q 307 126 256 160 q 422 93 358 93 m 229 336 l 607 483 q 539 596 590 563 q 422 629 488 629 q 328 609 371 629 q 259 543 286 589 q 229 422 232 497 q 228 382 228 408 q 229 336 228 356 z "},"õ":{"ha":797,"x_min":71,"x_max":726,"o":"m 399 -14 q 222 26 293 -14 q 114 138 151 67 q 72 301 76 210 q 71 362 71 325 q 72 421 71 399 q 115 585 76 514 q 224 696 153 656 q 399 736 294 736 q 574 696 503 736 q 683 585 644 656 q 725 421 721 514 q 726 362 726 399 q 725 301 726 325 q 683 138 721 210 q 575 26 646 67 q 399 -14 504 -14 m 399 93 q 536 148 485 93 q 592 308 588 203 q 593 361 593 329 q 592 414 593 393 q 536 574 588 519 q 399 629 485 629 q 260 574 313 629 q 206 414 208 519 q 204 361 204 393 q 206 308 204 329 q 260 148 208 203 q 399 93 313 93 m 471 819 q 415 831 436 819 q 377 855 394 843 q 339 867 360 867 q 315 857 322 867 q 301 837 307 847 q 279 826 294 826 l 235 826 q 218 833 225 826 q 211 849 211 840 q 219 891 211 869 q 242 931 226 913 q 278 961 257 950 q 326 972 300 972 q 383 960 363 972 q 422 937 404 949 q 461 925 440 925 q 485 935 478 925 q 498 956 492 946 q 519 967 504 967 l 564 967 q 581 960 575 967 q 588 943 588 953 q 580 901 588 924 q 557 860 572 879 q 520 831 542 842 q 471 819 499 819 z "},"œ":{"ha":1301,"x_min":72,"x_max":1240,"o":"m 400 -14 q 224 26 294 -14 q 115 138 153 67 q 74 301 78 210 q 72 362 72 325 q 74 421 72 399 q 115 585 78 514 q 224 696 153 656 q 400 736 296 736 q 560 699 494 736 q 664 600 626 663 q 767 700 703 664 q 917 736 831 736 q 1094 692 1022 736 q 1203 565 1165 647 q 1240 374 1240 483 l 1240 350 q 1231 326 1240 335 q 1208 318 1222 318 l 728 318 l 728 306 q 753 199 731 249 q 817 119 775 150 q 917 89 860 89 q 997 104 964 89 q 1049 138 1029 119 q 1075 168 1068 157 q 1095 188 1088 185 q 1118 192 1103 192 l 1185 192 q 1208 184 1199 192 q 1215 163 1217 176 q 1193 112 1214 142 q 1134 53 1172 82 q 1041 5 1096 24 q 918 -14 986 -14 q 767 22 832 -14 q 663 119 703 57 q 560 22 626 58 q 400 -14 494 -14 m 400 93 q 538 148 486 93 q 593 308 589 203 q 594 361 594 329 q 593 414 594 393 q 538 574 589 519 q 400 629 486 629 q 262 574 314 629 q 206 414 210 519 q 204 361 204 393 q 206 308 204 329 q 262 148 210 203 q 400 93 314 93 m 728 414 l 1108 414 l 1108 418 q 1085 529 1108 481 q 1019 606 1063 578 q 917 635 976 635 q 815 606 857 635 q 750 529 772 578 q 728 418 728 481 l 728 414 z "},"þ":{"ha":828,"x_min":104,"x_max":758,"o":"m 136 -264 q 113 -255 122 -264 q 104 -232 104 -246 l 104 954 q 113 977 104 968 q 136 986 122 986 l 204 986 q 227 977 218 986 q 236 954 236 968 l 236 632 q 323 707 269 678 q 460 736 376 736 q 592 710 538 736 q 683 638 647 683 q 736 533 718 592 q 757 408 754 475 q 758 361 758 386 q 757 314 758 336 q 738 190 756 249 q 683 85 719 131 q 592 13 647 40 q 460 -14 538 -14 q 324 16 379 -14 q 236 90 269 46 l 236 -232 q 227 -255 236 -246 q 204 -264 218 -264 l 136 -264 m 432 99 q 544 130 503 99 q 603 212 585 161 q 624 321 621 263 q 624 401 626 361 q 603 510 621 460 q 544 592 585 561 q 432 624 503 624 q 320 592 363 624 q 258 510 278 560 q 236 410 238 461 q 235 357 235 388 q 236 303 235 326 q 258 207 238 254 q 322 129 279 160 q 432 99 365 99 z "},"ŕ":{"ha":528,"x_min":103,"x_max":513,"o":"m 135 0 q 112 9 121 0 q 103 32 103 18 l 103 689 q 112 713 103 703 q 135 722 121 722 l 199 722 q 222 713 213 722 q 232 689 232 703 l 232 628 q 308 699 260 675 q 426 722 357 722 l 481 722 q 503 713 494 722 q 513 690 513 704 l 513 633 q 503 611 513 619 q 481 603 494 603 l 397 603 q 279 559 322 603 q 236 440 236 515 l 236 32 q 226 9 236 18 q 203 0 217 0 l 135 0 m 249 826 q 226 849 226 826 q 233 867 226 860 l 338 992 q 360 1013 350 1007 q 389 1018 369 1018 l 483 1018 q 510 990 510 1018 q 503 974 510 981 l 342 842 q 321 829 331 832 q 296 826 311 826 l 249 826 z "},"ř":{"ha":528,"x_min":72,"x_max":513,"o":"m 135 0 q 112 9 121 0 q 103 32 103 18 l 103 689 q 112 713 103 703 q 135 722 121 722 l 199 722 q 222 713 213 722 q 232 689 232 703 l 232 628 q 308 699 260 675 q 426 722 357 722 l 481 722 q 503 713 494 722 q 513 690 513 704 l 513 633 q 503 611 513 619 q 481 603 494 603 l 397 603 q 279 559 322 603 q 236 440 236 515 l 236 32 q 226 9 236 18 q 203 0 217 0 l 135 0 m 261 826 q 240 830 250 826 q 215 847 229 833 l 88 975 q 72 1001 72 990 q 93 1018 72 1018 l 129 1018 q 150 1015 139 1018 q 168 1008 161 1013 l 282 929 l 396 1008 q 414 1015 403 1013 q 435 1018 425 1018 l 471 1018 q 492 1001 492 1018 q 476 975 492 990 l 349 847 q 325 830 335 833 q 303 826 315 826 l 261 826 z "},"ŗ":{"ha":528,"x_min":54,"x_max":513,"o":"m 135 0 q 112 9 121 0 q 103 32 103 18 l 103 689 q 112 713 103 703 q 135 722 121 722 l 199 722 q 222 713 213 722 q 232 689 232 703 l 232 628 q 308 699 260 675 q 426 722 357 722 l 481 722 q 503 713 494 722 q 513 690 513 704 l 513 633 q 503 611 513 619 q 481 603 494 603 l 397 603 q 279 559 322 603 q 236 440 236 515 l 236 32 q 226 9 236 18 q 203 0 217 0 l 135 0 m 78 -301 q 61 -293 67 -301 q 57 -272 56 -285 l 81 -110 q 92 -81 83 -93 q 121 -69 101 -69 l 207 -69 q 224 -77 218 -69 q 231 -93 231 -85 q 225 -115 231 -104 l 167 -269 q 152 -292 161 -283 q 125 -301 143 -301 l 78 -301 z "},"ś":{"ha":708,"x_min":57,"x_max":650,"o":"m 353 -14 q 219 6 275 -14 q 129 53 164 25 q 77 108 94 81 q 58 153 60 136 q 68 176 57 168 q 90 185 79 185 l 153 185 q 165 183 160 185 q 178 171 169 181 q 218 132 196 151 q 273 100 240 113 q 354 88 306 88 q 471 115 425 88 q 517 194 517 142 q 498 250 517 229 q 431 288 479 271 q 300 322 383 304 q 168 370 217 342 q 99 438 119 399 q 78 528 78 478 q 108 627 78 579 q 198 706 139 675 q 346 736 257 736 q 469 718 418 736 q 554 673 521 700 q 604 619 588 646 q 622 575 621 593 q 614 552 624 561 q 592 543 604 543 l 533 543 q 517 547 524 543 q 506 557 511 551 q 473 593 492 575 q 424 623 454 611 q 346 635 394 635 q 242 606 276 635 q 207 532 207 576 q 222 485 207 506 q 281 447 238 464 q 408 411 324 431 q 553 363 500 393 q 628 292 606 332 q 650 199 650 251 q 617 92 650 140 q 517 15 583 43 q 353 -14 450 -14 m 300 826 q 278 849 278 826 q 285 867 278 860 l 389 992 q 411 1013 401 1007 q 440 1018 421 1018 l 535 1018 q 561 990 561 1018 q 554 974 561 981 l 393 842 q 372 829 382 832 q 347 826 363 826 l 300 826 z "},"š":{"ha":708,"x_min":57,"x_max":650,"o":"m 353 -14 q 219 6 275 -14 q 129 53 164 25 q 77 108 94 81 q 58 153 60 136 q 68 176 57 168 q 90 185 79 185 l 153 185 q 165 183 160 185 q 178 171 169 181 q 218 132 196 151 q 273 100 240 113 q 354 88 306 88 q 471 115 425 88 q 517 194 517 142 q 498 250 517 229 q 431 288 479 271 q 300 322 383 304 q 168 370 217 342 q 99 438 119 399 q 78 528 78 478 q 108 627 78 579 q 198 706 139 675 q 346 736 257 736 q 469 718 418 736 q 554 673 521 700 q 604 619 588 646 q 622 575 621 593 q 614 552 624 561 q 592 543 604 543 l 533 543 q 517 547 524 543 q 506 557 511 551 q 473 593 492 575 q 424 623 454 611 q 346 635 394 635 q 242 606 276 635 q 207 532 207 576 q 222 485 207 506 q 281 447 238 464 q 408 411 324 431 q 553 363 500 393 q 628 292 606 332 q 650 199 650 251 q 617 92 650 140 q 517 15 583 43 q 353 -14 450 -14 m 333 826 q 312 830 322 826 q 288 847 301 833 l 160 975 q 144 1001 144 990 q 165 1018 144 1018 l 201 1018 q 222 1015 211 1018 q 240 1008 233 1013 l 354 929 l 468 1008 q 486 1015 475 1013 q 507 1018 497 1018 l 543 1018 q 564 1001 564 1018 q 549 975 564 990 l 421 847 q 397 830 407 833 q 375 826 388 826 l 333 826 z "},"ş":{"ha":708,"x_min":57,"x_max":650,"o":"m 350 -306 q 281 -292 311 -304 q 238 -262 251 -279 q 238 -235 225 -246 l 258 -215 q 281 -210 271 -204 q 306 -226 290 -217 q 350 -236 321 -236 q 389 -222 372 -236 q 406 -185 406 -208 q 389 -149 406 -162 q 350 -136 372 -136 q 315 -142 329 -136 q 290 -149 300 -147 q 268 -140 279 -151 l 244 -115 q 240 -96 236 -107 q 250 -74 244 -85 l 278 -7 q 153 35 201 4 q 83 100 106 67 q 58 153 60 133 q 68 176 57 168 q 90 185 79 185 l 150 185 q 163 183 157 185 q 176 171 168 181 q 217 132 196 151 q 272 100 239 113 q 354 88 306 88 q 471 115 425 88 q 517 194 517 142 q 498 250 517 229 q 431 288 479 271 q 300 322 383 304 q 168 370 217 342 q 99 438 119 399 q 78 528 78 478 q 108 627 78 579 q 198 706 139 675 q 346 736 257 736 q 469 718 418 736 q 554 673 521 700 q 604 619 588 646 q 622 575 621 593 q 614 552 624 561 q 592 543 604 543 l 533 543 q 517 547 524 543 q 506 557 511 551 q 473 593 492 575 q 424 623 454 611 q 346 635 394 635 q 242 606 276 635 q 207 532 207 576 q 222 485 207 506 q 281 447 238 464 q 408 411 324 431 q 553 363 500 393 q 628 292 606 332 q 650 199 650 251 q 617 92 650 140 q 517 15 583 43 q 354 -14 451 -14 l 324 -78 q 347 -69 332 -72 q 375 -67 361 -67 q 452 -99 422 -67 q 482 -183 482 -132 q 448 -270 482 -233 q 350 -306 414 -307 z "},"ŝ":{"ha":708,"x_min":57,"x_max":650,"o":"m 353 -14 q 219 6 275 -14 q 129 53 164 25 q 77 108 94 81 q 58 153 60 136 q 68 176 57 168 q 90 185 79 185 l 153 185 q 165 183 160 185 q 178 171 169 181 q 218 132 196 151 q 273 100 240 113 q 354 88 306 88 q 471 115 425 88 q 517 194 517 142 q 498 250 517 229 q 431 288 479 271 q 300 322 383 304 q 168 370 217 342 q 99 438 119 399 q 78 528 78 478 q 108 627 78 579 q 198 706 139 675 q 346 736 257 736 q 469 718 418 736 q 554 673 521 700 q 604 619 588 646 q 622 575 621 593 q 614 552 624 561 q 592 543 604 543 l 533 543 q 517 547 524 543 q 506 557 511 551 q 473 593 492 575 q 424 623 454 611 q 346 635 394 635 q 242 606 276 635 q 207 532 207 576 q 222 485 207 506 q 281 447 238 464 q 408 411 324 431 q 553 363 500 393 q 628 292 606 332 q 650 199 650 251 q 617 92 650 140 q 517 15 583 43 q 353 -14 450 -14 m 165 826 q 144 843 144 826 q 160 869 144 854 l 288 997 q 312 1015 301 1013 q 333 1018 322 1018 l 375 1018 q 397 1015 388 1018 q 421 997 407 1013 l 549 869 q 564 843 564 854 q 543 826 564 826 l 507 826 q 486 829 497 826 q 468 836 475 832 l 354 915 l 240 836 q 222 829 233 832 q 201 826 211 826 l 165 826 z "},"ș":{"ha":708,"x_min":57,"x_max":650,"o":"m 353 -14 q 219 6 275 -14 q 129 53 164 25 q 77 108 94 81 q 58 153 60 136 q 68 176 57 168 q 90 185 79 185 l 153 185 q 165 183 160 185 q 178 171 169 181 q 218 132 196 151 q 273 100 240 113 q 354 88 306 88 q 471 115 425 88 q 517 194 517 142 q 498 250 517 229 q 431 288 479 271 q 300 322 383 304 q 168 370 217 342 q 99 438 119 399 q 78 528 78 478 q 108 627 78 579 q 198 706 139 675 q 346 736 257 736 q 469 718 418 736 q 554 673 521 700 q 604 619 588 646 q 622 575 621 593 q 614 552 624 561 q 592 543 604 543 l 533 543 q 517 547 524 543 q 506 557 511 551 q 473 593 492 575 q 424 623 454 611 q 346 635 394 635 q 242 606 276 635 q 207 532 207 576 q 222 485 207 506 q 281 447 238 464 q 408 411 324 431 q 553 363 500 393 q 628 292 606 332 q 650 199 650 251 q 617 92 650 140 q 517 15 583 43 q 353 -14 450 -14 m 272 -301 q 256 -293 261 -301 q 251 -272 250 -285 l 275 -110 q 287 -81 278 -93 q 315 -69 296 -69 l 401 -69 q 419 -77 413 -69 q 425 -93 425 -85 q 419 -115 425 -104 l 361 -269 q 347 -292 356 -283 q 319 -301 338 -301 l 272 -301 z "},"ß":{"ha":818,"x_min":104,"x_max":753,"o":"m 136 0 q 113 9 122 0 q 104 32 104 18 l 104 685 q 135 833 104 765 q 234 944 167 901 q 410 986 301 986 q 585 947 518 986 q 682 848 651 907 q 713 726 713 789 q 695 631 713 671 q 651 564 678 590 q 596 524 624 538 q 691 466 657 503 q 739 382 725 429 q 753 285 753 335 q 735 188 753 238 q 679 94 717 138 q 582 26 642 51 q 436 0 522 0 l 343 0 q 318 9 326 0 q 310 32 310 18 l 310 78 q 318 101 310 92 q 343 110 326 110 l 417 110 q 568 161 517 110 q 619 288 619 213 q 568 415 619 363 q 415 467 517 467 l 342 467 q 318 475 326 467 q 310 499 310 483 l 310 539 q 317 562 310 553 q 342 571 325 571 l 404 571 q 540 612 494 572 q 586 724 586 651 q 538 833 586 790 q 410 876 489 876 q 281 828 329 876 q 233 681 233 781 l 233 32 q 224 9 233 18 q 201 0 215 0 l 136 0 z "},"ſ":{"ha":408,"x_min":25,"x_max":529,"o":"m 208 0 q 185 9 193 0 q 176 32 176 18 l 176 611 l 57 611 q 34 620 43 611 q 25 643 25 629 l 25 690 q 34 713 25 704 q 57 722 43 722 l 176 722 l 176 785 q 199 914 176 860 q 274 998 222 968 q 414 1028 326 1028 l 497 1028 q 520 1019 511 1028 q 529 996 529 1010 l 529 949 q 520 926 529 935 q 497 917 511 917 l 417 917 q 344 899 368 917 q 312 851 319 881 q 304 785 304 822 l 304 32 q 295 9 304 18 q 272 0 286 0 l 208 0 z "},"ŧ":{"ha":553,"x_min":32,"x_max":518,"o":"m 390 0 q 264 30 313 0 q 194 115 215 60 q 172 244 172 169 l 172 413 l 64 413 q 40 421 49 413 q 32 444 32 429 l 32 474 q 40 497 32 488 q 64 506 49 506 l 172 506 l 172 629 l 64 629 q 40 638 49 629 q 32 661 32 647 l 32 690 q 40 713 32 704 q 64 722 49 722 l 172 722 l 172 954 q 181 977 172 968 q 204 986 189 986 l 268 986 q 291 977 282 986 q 300 954 300 968 l 300 722 l 474 722 q 497 713 488 722 q 506 690 506 704 l 506 661 q 497 638 506 647 q 474 629 488 629 l 300 629 l 300 506 l 474 506 q 497 497 488 506 q 506 474 506 488 l 506 444 q 497 421 506 429 q 474 413 488 413 l 300 413 l 300 254 q 323 151 300 189 q 401 114 346 114 l 486 114 q 509 105 500 114 q 518 82 518 96 l 518 32 q 509 9 518 18 q 486 0 500 0 l 390 0 z "},"ť":{"ha":504,"x_min":25,"x_max":586,"o":"m 385 0 q 258 30 307 0 q 188 115 210 60 q 165 244 165 169 l 165 611 l 57 611 q 34 620 43 611 q 25 643 25 629 l 25 690 q 34 713 25 704 q 57 722 43 722 l 165 722 l 165 954 q 174 977 165 968 q 197 986 183 986 l 263 986 q 285 977 276 986 q 294 954 294 968 l 294 722 l 467 722 q 490 713 482 722 q 499 690 499 704 l 499 643 q 490 620 499 629 q 467 611 482 611 l 294 611 l 294 254 q 317 151 294 189 q 396 114 339 114 l 481 114 q 503 105 494 114 q 513 82 513 96 l 513 32 q 503 9 513 18 q 481 0 494 0 l 385 0 m 433 849 q 417 857 422 849 q 413 878 411 865 l 436 1040 q 448 1069 439 1057 q 476 1081 457 1081 l 563 1081 q 580 1073 574 1081 q 586 1057 586 1065 q 581 1035 586 1046 l 522 881 q 508 858 517 867 q 481 849 499 849 l 433 849 z "},"ț":{"ha":543,"x_min":25,"x_max":513,"o":"m 385 0 q 258 30 307 0 q 188 115 210 60 q 165 244 165 169 l 165 611 l 57 611 q 34 620 43 611 q 25 643 25 629 l 25 690 q 34 713 25 704 q 57 722 43 722 l 165 722 l 165 954 q 174 977 165 968 q 197 986 183 986 l 263 986 q 285 977 276 986 q 294 954 294 968 l 294 722 l 467 722 q 490 713 482 722 q 499 690 499 704 l 499 643 q 490 620 499 629 q 467 611 482 611 l 294 611 l 294 254 q 317 151 294 189 q 396 114 339 114 l 481 114 q 503 105 494 114 q 513 82 513 96 l 513 32 q 503 9 513 18 q 481 0 494 0 l 385 0 m 171 -301 q 154 -293 160 -301 q 150 -272 149 -285 l 174 -110 q 185 -81 176 -93 q 214 -69 194 -69 l 300 -69 q 317 -77 311 -69 q 324 -93 324 -85 q 318 -115 324 -104 l 260 -269 q 245 -292 254 -283 q 218 -301 236 -301 l 171 -301 z "},"ú":{"ha":836,"x_min":96,"x_max":732,"o":"m 372 -14 q 222 26 283 -14 q 128 136 160 65 q 96 299 96 207 l 96 690 q 105 713 96 704 q 128 722 114 722 l 197 722 q 220 713 211 722 q 229 690 229 704 l 229 306 q 410 99 229 99 q 548 153 496 99 q 600 306 600 208 l 600 690 q 609 713 600 704 q 632 722 618 722 l 701 722 q 724 713 715 722 q 732 690 732 704 l 732 32 q 724 9 732 18 q 701 0 715 0 l 636 0 q 613 9 622 0 q 604 32 604 18 l 604 93 q 513 15 567 44 q 372 -14 460 -14 m 372 826 q 350 849 350 826 q 357 867 350 860 l 461 992 q 483 1013 474 1007 q 513 1018 493 1018 l 607 1018 q 633 990 633 1018 q 626 974 633 981 l 465 842 q 444 829 454 832 q 419 826 435 826 l 372 826 z "},"ŭ":{"ha":836,"x_min":96,"x_max":732,"o":"m 372 -14 q 222 26 283 -14 q 128 136 160 65 q 96 299 96 207 l 96 690 q 105 713 96 704 q 128 722 114 722 l 197 722 q 220 713 211 722 q 229 690 229 704 l 229 306 q 410 99 229 99 q 548 153 496 99 q 600 306 600 208 l 600 690 q 609 713 600 704 q 632 722 618 722 l 701 722 q 724 713 715 722 q 732 690 732 704 l 732 32 q 724 9 732 18 q 701 0 715 0 l 636 0 q 613 9 622 0 q 604 32 604 18 l 604 93 q 513 15 567 44 q 372 -14 460 -14 m 414 819 q 313 844 350 819 q 260 908 275 868 q 244 992 244 947 q 251 1010 244 1003 q 271 1018 258 1018 l 313 1018 q 332 1010 325 1018 q 339 992 339 1003 q 354 931 339 958 q 414 903 369 903 q 474 931 460 903 q 489 992 489 958 q 496 1010 489 1003 q 515 1018 503 1018 l 557 1018 q 576 1010 569 1018 q 583 992 583 1003 q 567 908 583 947 q 515 844 551 868 q 414 819 478 819 z "},"û":{"ha":836,"x_min":96,"x_max":732,"o":"m 372 -14 q 222 26 283 -14 q 128 136 160 65 q 96 299 96 207 l 96 690 q 105 713 96 704 q 128 722 114 722 l 197 722 q 220 713 211 722 q 229 690 229 704 l 229 306 q 410 99 229 99 q 548 153 496 99 q 600 306 600 208 l 600 690 q 609 713 600 704 q 632 722 618 722 l 701 722 q 724 713 715 722 q 732 690 732 704 l 732 32 q 724 9 732 18 q 701 0 715 0 l 636 0 q 613 9 622 0 q 604 32 604 18 l 604 93 q 513 15 567 44 q 372 -14 460 -14 m 225 826 q 204 843 204 826 q 219 869 204 854 l 347 997 q 372 1015 361 1013 q 393 1018 382 1018 l 435 1018 q 457 1015 447 1018 q 481 997 467 1013 l 608 869 q 624 843 624 854 q 603 826 624 826 l 567 826 q 546 829 557 826 q 528 836 535 832 l 414 915 l 300 836 q 282 829 293 832 q 261 826 271 826 l 225 826 z "},"ü":{"ha":836,"x_min":96,"x_max":732,"o":"m 372 -14 q 222 26 283 -14 q 128 136 160 65 q 96 299 96 207 l 96 690 q 105 713 96 704 q 128 722 114 722 l 197 722 q 220 713 211 722 q 229 690 229 704 l 229 306 q 410 99 229 99 q 548 153 496 99 q 600 306 600 208 l 600 690 q 609 713 600 704 q 632 722 618 722 l 701 722 q 724 713 715 722 q 732 690 732 704 l 732 32 q 724 9 732 18 q 701 0 715 0 l 636 0 q 613 9 622 0 q 604 32 604 18 l 604 93 q 513 15 567 44 q 372 -14 460 -14 m 494 863 q 471 871 479 863 q 463 893 463 879 l 463 968 q 471 991 463 982 q 494 1000 479 1000 l 569 1000 q 592 991 583 1000 q 601 968 601 982 l 601 893 q 592 871 601 879 q 569 863 583 863 l 494 863 m 258 863 q 236 871 244 863 q 228 893 228 879 l 228 968 q 236 991 228 982 q 258 1000 244 1000 l 335 1000 q 358 991 349 1000 q 367 968 367 982 l 367 893 q 358 871 367 879 q 335 863 349 863 l 258 863 z "},"ù":{"ha":836,"x_min":96,"x_max":732,"o":"m 372 -14 q 222 26 283 -14 q 128 136 160 65 q 96 299 96 207 l 96 690 q 105 713 96 704 q 128 722 114 722 l 197 722 q 220 713 211 722 q 229 690 229 704 l 229 306 q 410 99 229 99 q 548 153 496 99 q 600 306 600 208 l 600 690 q 609 713 600 704 q 632 722 618 722 l 701 722 q 724 713 715 722 q 732 690 732 704 l 732 32 q 724 9 732 18 q 701 0 715 0 l 636 0 q 613 9 622 0 q 604 32 604 18 l 604 93 q 513 15 567 44 q 372 -14 460 -14 m 408 826 q 383 829 393 826 q 363 842 374 832 l 201 974 q 194 990 194 981 q 221 1018 194 1018 l 315 1018 q 344 1013 335 1018 q 367 992 354 1007 l 471 867 q 478 849 478 860 q 456 826 478 826 l 408 826 z "},"ű":{"ha":836,"x_min":96,"x_max":732,"o":"m 372 -14 q 222 26 283 -14 q 128 136 160 65 q 96 299 96 207 l 96 690 q 105 713 96 704 q 128 722 114 722 l 197 722 q 220 713 211 722 q 229 690 229 704 l 229 306 q 410 99 229 99 q 548 153 496 99 q 600 306 600 208 l 600 690 q 609 713 600 704 q 632 722 618 722 l 701 722 q 724 713 715 722 q 732 690 732 704 l 732 32 q 724 9 732 18 q 701 0 715 0 l 636 0 q 613 9 622 0 q 604 32 604 18 l 604 93 q 513 15 567 44 q 372 -14 460 -14 m 483 826 q 461 849 461 826 q 464 860 461 854 q 468 869 467 865 l 522 992 q 574 1018 535 1018 l 651 1018 q 679 992 679 1018 q 671 974 679 982 l 561 846 q 518 826 544 826 l 483 826 m 256 826 q 233 849 233 826 q 236 860 233 854 q 240 869 239 865 l 294 992 q 346 1018 307 1018 l 424 1018 q 451 992 451 1018 q 443 974 451 982 l 333 846 q 290 826 317 826 l 256 826 z "},"ū":{"ha":836,"x_min":96,"x_max":732,"o":"m 372 -14 q 222 26 283 -14 q 128 136 160 65 q 96 299 96 207 l 96 690 q 105 713 96 704 q 128 722 114 722 l 197 722 q 220 713 211 722 q 229 690 229 704 l 229 306 q 410 99 229 99 q 548 153 496 99 q 600 306 600 208 l 600 690 q 609 713 600 704 q 632 722 618 722 l 701 722 q 724 713 715 722 q 732 690 732 704 l 732 32 q 724 9 732 18 q 701 0 715 0 l 636 0 q 613 9 622 0 q 604 32 604 18 l 604 93 q 513 15 567 44 q 372 -14 460 -14 m 260 857 q 238 865 246 857 q 229 888 229 874 l 229 931 q 238 953 229 944 q 260 961 246 961 l 569 961 q 593 953 585 961 q 601 931 601 944 l 601 888 q 593 865 601 874 q 569 857 585 857 l 260 857 z "}}}
